<mxfile host="app.diagrams.net" agent="Mozilla/5.0 (Windows NT 10.0; Win64; x64) AppleWebKit/537.36 (KHTML, like Gecko) Chrome/129.0.0.0 Safari/537.36" version="24.7.16">
  <diagram name="PÃ¡gina-1" id="7rRkF6xvbscYqYHiHX7N">
    <mxGraphModel dx="1195" dy="622" grid="1" gridSize="10" guides="1" tooltips="1" connect="1" arrows="1" fold="1" page="1" pageScale="1" pageWidth="827" pageHeight="1169" math="0" shadow="0">
      <root>
        <mxCell id="0" />
        <mxCell id="1" parent="0" />
        <mxCell id="sy004vF7E9jO8Do3R6p2-1" value="" style="shape=cylinder3;whiteSpace=wrap;html=1;boundedLbl=1;backgroundOutline=1;size=15;" vertex="1" parent="1">
          <mxGeometry x="170" y="180" width="110" height="110" as="geometry" />
        </mxCell>
        <mxCell id="sy004vF7E9jO8Do3R6p2-2" value="" style="endArrow=classic;html=1;rounded=0;" edge="1" parent="1">
          <mxGeometry width="50" height="50" relative="1" as="geometry">
            <mxPoint x="90" y="210" as="sourcePoint" />
            <mxPoint x="170" y="210" as="targetPoint" />
          </mxGeometry>
        </mxCell>
        <mxCell id="sy004vF7E9jO8Do3R6p2-3" value="" style="endArrow=classic;html=1;rounded=0;" edge="1" parent="1">
          <mxGeometry width="50" height="50" relative="1" as="geometry">
            <mxPoint x="90" y="230" as="sourcePoint" />
            <mxPoint x="170" y="230" as="targetPoint" />
          </mxGeometry>
        </mxCell>
        <mxCell id="sy004vF7E9jO8Do3R6p2-4" value="" style="endArrow=classic;html=1;rounded=0;" edge="1" parent="1">
          <mxGeometry width="50" height="50" relative="1" as="geometry">
            <mxPoint x="90" y="270" as="sourcePoint" />
            <mxPoint x="170" y="270" as="targetPoint" />
          </mxGeometry>
        </mxCell>
        <mxCell id="sy004vF7E9jO8Do3R6p2-6" value="" style="endArrow=none;dashed=1;html=1;dashPattern=1 3;strokeWidth=2;rounded=0;" edge="1" parent="1">
          <mxGeometry width="50" height="50" relative="1" as="geometry">
            <mxPoint x="130" y="260" as="sourcePoint" />
            <mxPoint x="130" y="230" as="targetPoint" />
          </mxGeometry>
        </mxCell>
        <mxCell id="sy004vF7E9jO8Do3R6p2-7" value="Datos&lt;div&gt;Nodos (GTW)&lt;/div&gt;" style="text;html=1;align=center;verticalAlign=middle;whiteSpace=wrap;rounded=0;" vertex="1" parent="1">
          <mxGeometry x="20" y="220" width="60" height="30" as="geometry" />
        </mxCell>
        <mxCell id="sy004vF7E9jO8Do3R6p2-9" value="" style="shape=image;verticalLabelPosition=bottom;labelBackgroundColor=default;verticalAlign=top;aspect=fixed;imageAspect=0;image=data:image/png,iVBORw0KGgoAAAANSUhEUgAAAEMAAAA/CAIAAAA0SOKeAAAWM0lEQVRoBbVa51dbSZbvf2T2087u7Dm75+zumd2ZnZ1uG1DCsZ3d3bYb53Fu53YQyjLGgHFut0M74IwD4NQYSe8pIqLISWQZkAQoIOmlqnq79YSFbIMbbM/7AKWnqnvrd++tm0pfZN5t7PNGAc/zCPKf64EIIST8QRDxCAEeQcgj9LnoT0bnix9vNzM0DXmB32QzPuodgogFCIQotn80NhplAOR4BHj+74jli8O3GgFkIeIg//l0wvMAotru4LEnbT9cqT32uKOoyuseirKcoKKPks1vLvriyK1GbAZY9Z8mMASwSSEOQESx3HWie+Vxm1hhkChJiYKUKU1Lj1u3X6w9+7KzsivoDVIxmoUI8pBFPAKIBwhAxAlGie0DG/tv7v3tCZ8RiWBRPApEuEeVA0uyrClKco7SKNEYpGpCojBLMk0SZdk8jXXVyco9N+uulLWTbf7WwfAYw0EMAyAEEAQQ/+OxbDGWGcD5bEgQhBBxMZq5bRuYryOlcpNUbUrJNIiOmCRKk0RtEisIUSYpUZNipUEkJ2fJiblZjk0/Vec/7Sht8Hf7ogBgGAhBHnE8NsOZ4OD5z4YEQDgWY48/bpmvJ8RKQqp6JVYQ+67WXSjtyjhVPk9j3XujMeOUY67SKJGbxEqjRGmUqgipipBoyDl6cnGOY9e1umvmvpreoC/CMByEApi3LehDnz4JCWYGAEA8RMAbiv78yj1PZxFnmqQqUqwhDhe4WjyBcJR6Vj24KNt+6mW7vW3klvW15kHzpgsVC46RYqVRpCQlKkKsMqWpSZHaPD/LvupszY8Pmu84PJXuke6RGMUxkIfY9n5LQ5+EhMc8EEKsP8TkFrWmHrVK1CaZmkyVv1I+bOv1xTBQHtA0/cDmWaC2XjJ0sUyM4UCvN1pcO6x/3LzuQtVcvS1VbkpRmEQ6Qqw3ytTGWSpTitq8MMe+45rrernPF4iCaZyXT0OCIATgdYDafblSpjbJNES63CjV2HJKOobHaAghDiMQMghRLHPd3PVNjuNnw2sMBbIA0FGWHQzRzZ7gdfPAgZv1y0/YpVpbitaWqrXJtCax3iLS2cR669E7rgjF/eap+SQkCMEOb0Rxv1mqJCQqQqog03Xm/OLmwQANEBP3yhByeADBaJi9amxbkWUrbRiKsSyEYDwN4FGEpj2jMUdn4I61J/N+w7xjjhSNRaK3pOutszXWBTk2qzv4d0AiuEiAnSbfPBDef70p7WjpXLU1PdMoVpPXiO5wjJvK7QRj4GSJe1m2tajqNQdxmAQQcBBxHOcLxap6Qk+qvcdLOkQ6m0hvTtcQIr1FojNLs8hf7MM8jzOqDzwz1gnL46MBOVTTM5qRZ01XmaXKMrGibPEJ+0PnYJTmcLyb4kE8ClNc1pPWlXnWu+aeut7Qy1r/iRL3tqtV3512rMi1r7tQc+he0y1Ln90dfFTlT8+ySLQWkd6sLepkOG4KquOvZ4wEQcBwoNEztv1SrVhBilUmiYpcftxyz+KO0eN+ZipLgNieQMdgZMtF1zy9ZfVZW8a5mu2XatUPGi+W9T13+Rs9QU+IjVIUC2HPcPT785VijVWkt2692hiiPrdOIITV7tENP7lE8ldz1KRIYVqsJcvqfTQHAA5qAMIP6AQfDkuj77t8518Plx645rK2jfrHaBYAHD94wXDxueIQhEGKPXS3NU1jFh+zrDhVMRRmPoNOEAI4J8dJFfe0diDjVKVYYUhXk2I5kXG2ytHqZ0Bc9ZM4S8Rje8QxgUcMy72o6/8mt2L31eo1+c68l70RKgbHs5KJtZgTQjQHrxLdUp01TW+W6q2kexSjxbPwOXz/mZZ14SwI+1TU8nosI9+ZlklKNYRIadxwrtJQP8DBD+kB2wTAqykGGBu9K05W5RW2tw6Fc5917y9o8IcZIcWa2Fi8iEFYeKi00T8/25ais4h05ktkd4QW4iOOkpM800KCBY7gaIw9+7IzVW5I15jSlcSak5VN/WMAcoyQck1CW3gFcXYMAMfcdvSvyHUee9gciMYggM9qhjLOOqt7x97JwgULw1tFiO/yU9+ecaRpbakaYv+9Vt8YTpynqginhYTnsXH1DI/9eKNOnGlMV5nEckL32E2xLIaIpTrlcYQQhij2F2PvyuPElbLuMMVArF7QMRRele984HyNK8qkZwIJz1MM+KGgNk1pFmuJFefr3L6okLNMqpLpZZA47YG8PxzJedwuyjTIcMlhXplrdfWOshyOcdzbGscnXwh7EIFAhL5v712Sbbtm6gmO0TjVFZ4ozW264Mwp7gT8lEeZAyC7uC1Va5dpibnZDqIjiIT0CEv2vWdaOokfQQaA4iq/NJOUKF9JtUS6ilx9usLpDkLIIoiVkyAOeIbFls5SLJdV1L44u/wm0RNlGZS0AwCR4kHT7qt1MZZNWpqggQeQR/ecg5Ism0RHinSW+5WDuISe4PPW5GkhEfwWLvQbPeH5elKSSaYrjOqHrQdv1K8/56joGOXgWxbC4+IPekZi+gdtq087iqu9NMsKXnaCN4LoCtGdcb7a7R1LlsLEDAFJVW94xdnKFA2ZojOfKu1jWNzcSJ6TGE8LCT7SwlHrH4mtzHOkyY1ihWnf9foGT2jftZpN56u6/GPJjRMWAc/IWP7zzpU5llf1QxGaw2UYxFlgwlMhxBPNvjXna4jmkSmkjKXfNzy2s6AlRWNO05v33G7tHo5N1W+YFhLBk2B2UYrZcbkqRU6kq4zLTtiHx6iGvtD6s5V7rlZ3DEUBAkJWCL0h9ofLtWtOOsjmYQ77zGSY40JEiO/zh7f9Uned8OBTKDwJnIlJoRh7urR7ltos1hHfnHOZOkawhxn/+q1/00USXwQgyn3aKVVZZCqTTGms7PBxDNfuj31/yrn3isvtGwOAqn8d3PFzxdYr9RXuEAfetrok1gjxQYrRFrUevdUcpvCxSvpyYggQfNU0ItKRIr11zgn77fJ+rN6J7ydGM0ASd0cP7P2L9BaJihTJjXdsgxRHQwDK6oY2nK84dLvZ1OQ/WNCy4VxFU88I4GiQdMQneL4ZsRy46+zJOFM7FKTfvHvrv9D14xr7gl+fMKfq7Wl6s76kg55COtNCkhAYQqiuN7TujFOiJERyo7qwaUxIfiEEZLN/cZYl9WjZQr3Z0OQFAHDYEY+3fN7aoPABxw2Iyjv9i06Udw2G3p8QN2nEc54ROuOnyjSdbbbWtO1aQ5DiJnVf00KSzCYY4w7fqktTWKRKw8ZzFW1eCqdVCEVoVlvYKFFbV56wrjntOHynucDiae4PBWIcw7KcEPCEjgnkeYAXYCtBHb7I8rzyF3U+wAlpS6JDhN0ZQjjFgiGKO3qvRaS1p2gd354p7w+xk7qvGSNhITz1vC01k5CqjMuyrWTbaDxajUTYPTcbdfeaDU3DBea+IwW16y9UbLhYoy7sKHH0t3vCvjBFs6ygJyD06SDiwUCQ2n658lxpd5TGnQ2hRQRwKy/eSxYya4oDp8vcKTrTrGOOedmW8q7IOz4/LugZI4EIPnK+lqlMUpVxjsp0w+yJR/OqzpFlOY7GniCADItrGK5vmH5e480tbt5+tTbjXPXua3X5z9qf1fpah8a8YZpmAIIwysBTz7v33KgfHmOFzQMOQSBkzeEY+zpEtQ6Gy5qHfyhoTBMOfZrees3eG6EncSQzRsLz0NkZXJpjl6hMkkxj1sN2FnAAwQcOz+p8ZzBG4bOB29s4w0E8ByEbori2wUiBbfDArcZl2ZaVOeV7r7vuWPs7h2OhKPW8dmDV+RpXTxAiFKXZkQjr9saKa73HnvZsulq/LN8pPW5L1RLiYzapzirSWu9VDlLs50CCEHJ7w9suucQKgyiz7IdLVf0j0ZEwnXmvSXe3IcpySe4ee8s3NT1iODAaAb3+2MvagTPPu3f9Ur/ubPWWn2u3XHbJ9LbdN2rzSnv336hdf7Fqzbm6rZeqjhS23bJ5VI87JFlO0TGLSG/9Su34/nxF9ygzaU9v5jpB0Bumsovd4kxDqoJYked09QYaXoc3Xqx+7BwCENtMsodIHsePAYQgxjAtr8fu2zxZT1pW5tukSnO6xrzufMX+G/V5JW13Kwequ8P+IFXXF97xS1WK3i7Rm8Qa8rsL1U8qPYyQCiWT/chzghCgOVBcNSRTGKVKYo7O8qpu8K69f8P5ivbByAcyPFxxCR0Z4WJACE6QY1nqed3o/GP244+bfWE2QnMsbg6zDGTsXeGlJytnax0yLSnW2lacqbG4hwHAdiuUme9i+Rid8Ag29IcW6c3parNUacx/6t57rU73oIViGcEjv8tj4nO8BYaLGRZBwCKeBuCmpW/Tz9W49oAsVqjQ8bhl7VlyulKsNoi1plnHLFsuVzcPjbEcvk/Cedeb7GaC8sd0uLHhg9ej0VX55VI1ma4yrDpZuTTbfsPcixCFIMeNX8YAIZdN5oXHb46NABmi4Qh94Gaj7lFbiGIFbw7CVPRx9dCSXMcsrVmqIyVay9rzNY6OEVzMJZ+7dwlPr9JKXiVks1yYAbuu1MqUhFRjFsuN3+baqzsDEDI4RghNRyE4TJo6jhPDlz8ItfsCS3OcpXVeBsdKEKbA7fIhkc4iwS0Vq0hl3nSjubovIFywJO9ikvGMrQvX0Qhba15xu1RhkmpwDrYqv1wouSCCQq8IskIvRWjyTcIUv8JBHiFDq3fRiYpefxhBLhBhTxQ1z8+yiNWERGsWac0H7za243sVoRs4mUUl0545EiHTABDcs3vEcqNUZZCpyTlaYufVqpuWPmf7SO8wFcB9XzRpjZrgLUQPLr+0e+eVWn8kNhRizhl6ZTosFzFubBM/XK9v90WEhicO9ZPmvwlqPM9/cbigQbg5mCKrTp4rjIVsEovTPRiZryNFSqNMRYjVFnxlddQ0V02sPuPUF7aVNY8OBGIxisb94/GqfrylLdwz46u8Lm9s+5XaArOnP0wfL+pIUxtEWuyOZ2st2SVtQ6OMUNcI69/bxvsvsE7il2LThBLv0wg9VXTfPrD6lFOcaZIc/lWkeCVVmqWZZpncIFaWLdRb1p6uOHi7voDstLcN+8awXxLaEfjyDXezIHpaPZhxtqa0yX/4pitdTYq0hFhjkuqteb/2DQVp3F97f79Tv/ni6O0m4SJsune/AnXBchCkONbU5M0tatl8sXp5tm2OihArSbHShCEpCbHcIDpinKuxZpyu0N5rKKr2uXqC3jAdoVkORxYmp6h1YY7z8M1GkdqcpiHFGnLBMau2sH5kjMG18nSVMQ7uC/mdmSFJEgqObsJ1DwhF2XZv5H55//4brhUnbDIVIVIYRBgSIVESYhWZJjfIlMb5WtP6s5VnnnfaW/0Ng9G1+Y40fAeGrxolatNcLXnT6gnFhNgnpMMz08kn3scnmCEIaRb6wmyrJ/CiZuh0SdPOK5WLT1jEilKR3IAv5jNxVz9VSciUpkVZ1uV5jnQNIVGVpWuJNKVpcZ69sLw/RDGTxu8k8U05fHPi8eFK7GrK2R/8Ai+PV5cIgAgNGz3Rx85BTWHz5p9ci47bZApDutwgUZplSotMaZYoTFJ1/FKbXJpru2Zy0xyuTD7I4kNffkYkE2ziFYtQVCGG44IRuskTuWTq3/VL03w9KfxwwiBRmdI0llSVadFxgmgdpTnh7EzkABPUpjn6zEiEbqXwqyEhz+NwcxJX8xCBMM0NBGJ1fYGH9v7sIvfmC9Vrz1Qq7jRY2wNCk0G4Df8Eu/iIyDhhRcnSepPhxjuv438Fm8VJfnxNYp9jMcbVPVLV4Xs9Go0HeyHoCO0LIYmI6ybRCUlmNNX4Y5BMyuAtBEkfkhmPnyIhcsUT2vGfqwhv4ovi84V2RRIVYZhM6v3xRyJJ5honOu6ShV568hbeZ/lGEONG+Oaj0GlN2nGcYILU+3TeeTNjJBzHMQy+A0nsIEERQhgVHoqicKCZbE5iFUSQZphINBaJRmOxGMPgLlF89zRNx2IxTCkWm5RIgmPyYGZIEEL1Tc1Piksomk6WVnzX/uERtUaXd+rUtZs3fX6f8NuBCc8enx/31MLlG3j4+MnhTOW+gz8ePnL0xs2CkUAAQhgIBn6+fPnAwUMHDh7KVChrams5fM2Kn+R9vz+eGRIIYeGToi3bdwSDIYG2EOQF2XMQqDW6o3JlwZ27snnzW1pbBF8c34OQZo036/CGhFstbu36DX+dnbpj1+6t23YsXbZ82Yrl/R5PX3+fRJq+avX3O3f9sGXrNtmcuUUlxXEq7+8++c2MkTwuLtmybUcoPOaqc7W7O56/fGkiiGgs5u7qTEkV5eadMtsdXy9Z2tbePjg4WFffyAEwFok6yitGR0ftDsfA0BDNMDWu2q6urvUbNskVSoh/DwKclRX/9Id/Lnz0qKu7d8HCxRWVVcFweCQQ+Pa7VQqlEkzRC/4kJE+eFG/bvnM0EFy8ZMm8hYsOHj7yxz/9+cat2zaH/b/+9OdNm7fdLXy4aOmyjk73rdu3N/5tayQy1u7umpUq6uhoP5qp2Hvg4LOXv/7vV7OqqmrWrd90VK6Iy/v/b/nkCsXuPfva3e40kWTJ0uXr1m9YsfKbjLXrO7u6/j46EZCMjAbmzpt/8/at14OD5y5czNiw0ev3rV23objkeUtb+/yFX7vd7rv37m3eui0ajXZ0dqVKpH19fbUu14KvF//pL19mHT8eiUTXrtt45IhcaC/gn4lln8jZtn1na1u7SCxZk7Fu195923fsEklkV365ntRDS1bDW+MZW1dRcUlcJ8tXfFPjcgEICx8+XrN2vdfv27Bxc8nT51093QsWLurs7Lx3//7W7TuisVhnd7ckfU5/Xz9F01u2bv/H3/+hvaOD5bi16zYczYzrBFIUtX3HjoM/HnZ3ds2bv7CuvgEgxHJg9979qSIpmLqHlkAzYyRPikq2btsRCIaWLF1eWV3Fclzhw8fffZ/hHxlet37j02cvunp65i1Y6HZ33r17d/X3a/3Dw1a749/+/T96+/osVrtEmr5g4aJ9+w/EaGrNunX7fzzs9foGh7wvfn35u3/43auysq7u3rnzFlgstsHBoX7PwLer1ixctOQ3HReufmeU1UMIi0ue7dm7PxAMffvd6qqaagDhw0dP1m/+m39k+G9bt714Wdrd27Nk2fK29vaGhoaly1cekh89eOjI//zlr9Uu154DB8+cO0dazIuXLTfbbFt27Pz9v/zrl1/N/vKr2bI5c3V6XSAQ6OvziCWy//zjf3+VkvrlV7NXrPzulcH0+c8Jz/Nd3d0kaaZp5uWvpThoIOR2d5YZjTGaMhJET29vKBx+9ux5IBDgOM5ZUXH67JnnL1+++PXXzu6uwkePvF4vRVNGE1HtqjWS5NkLF3LzTp7MP1Va+ooWgmMoFH746FFu3skTOblnzpxtaWkFOAOdskM7M+tKVm48DCcCXDwGxznFx++kLfFgLwSQ8QAXF7AQTMe/xL8KffPEZyZWJbSRvIfE7pMHM7OuN+ywkOLjOMs4xWSuCcCJmYm1iYXxEJn8PiGgOMG4gH4TQ3zybyNJcEoWQJxlglNijtC4G0/J4juIf5VIDyf2On5f96bMTJB4Ly8ep/AO+/c+/h/cy/Q5llHD7AAAAABJRU5ErkJggg==;clipPath=inset(0% 0% 0% 5.22%);" vertex="1" parent="1">
          <mxGeometry x="190.75" y="212.04" width="68.5" height="67.96062992125985" as="geometry" />
        </mxCell>
        <mxCell id="sy004vF7E9jO8Do3R6p2-10" value="Visualizador" style="swimlane;whiteSpace=wrap;html=1;" vertex="1" parent="1">
          <mxGeometry x="630" y="160" width="124" height="130" as="geometry" />
        </mxCell>
        <mxCell id="sy004vF7E9jO8Do3R6p2-12" value="" style="shape=image;verticalLabelPosition=bottom;labelBackgroundColor=default;verticalAlign=top;aspect=fixed;imageAspect=0;image=data:image/png,iVBORw0KGgoAAAANSUhEUgAAALoAAACyCAYAAAD1XdWcAAAAAXNSR0IArs4c6QAAAARnQU1BAACxjwv8YQUAAAAJcEhZcwAADsMAAA7DAcdvqGQAADYbSURBVHhe7Z0HgJTV9fbPzOxsB5beQZCVIihEEEVQY0X/iqYae6LRoMbeJSYYozEGY4tiiVG/xBKNXbHHKNYooIL03vsiW2Z3p33nd2fe5d1xdsruLLoz76OXnXnLLec+99xzzy3j6t+/f1gcOMhyuKN/HTjIajhEd5ATcIjuICfgEN1BTsAhuoOcgEN0BzkBh+gOcgIO0R3kBByiO8gJOER3kBNwiO4gJ+AQ3UFOwCG6g5yAQ3QHOQGH6A5yAg7RHeQEHKI7yAk4RHeQE3CI7iAn4BDdQU7AIbqDnIBDdAc5AYfoDnICDtEd5AQcon/LqAuK1Gtw0LpwiP4tIRQWqfKL7NvFLYPKXFKpn7nmoHXgEP1bQCCkWlzD+fvkyTPH5MuzEwtk8rC8huuu6HMOMgfn7MXdDMyUfI/IzQd55ZTBeVJXr+IPuaTA5ZLnlwfkmv/Vy456kSJ9xqmYzMHR6LsRftXWhXki9x6eL6eoBq9RkqPFuV7tD8uJe+TJowcXSPcil/i0QTiaPXNwiL6bEEQ9a5h2aL4cu6dHquvCjTQ2n6uU7GO7ueWBcQVSlh8xYxxkBg7RdxN8Oti8bEye/HCwx2jypsAAdWxXt9yyX4EhvzNAzQwcou8GVCt5v9/fLRfu55Va1drJuGvMmL4eOXNgnlSbrsBBS+EQvZUBT9upGXLdgXni1QFmMAVzBGozaL1wsFcGlLgdEyYDcIjeysBkwVwZ1dOtn1PXzpC7V7FLTh/glTrHfmkxHKK3IuBnqWrz04Z7JNQMrcys6Qm9PdLJ65IKbSS1+j2gcaZCe56hseC9qdJuxQq52mY8ZWVlU6OfHWQQEGpHrciYXi65aH+v1Af0IiSziGZ9NsEV8z1yjcbRPs8lvQpdSna3lKjpU6fXKjUun5I2LC7x6Kt2NyTkrtF7XrdL+ul7+7bzyAEdPDJWw/BSj6ysDRl3pivHfJfOhFGGgW1dp0RsVyBS3sklZ4/0yE+H5kltvd5UgoU1GCLzNxrCIWWd7XskuCLPalALRtxKfF99WDbXhmXhzrB8vD0oH1YEZWFVSGq0VeUpc9H2e+nDk7p55dBOHtmzyCXttKHk6z2I7dL++9pFdfLA2nppRwvJIThEzxCwxdHi5V1ccvxgtxyzp1uGdvEoyfRelOSE5hDdCi5tRB5914sm1/uVSvyvlOgvbwnITCX9D7vnyak9vdJVE63XzDAkIE8kBwqV6AuqQ/LDz31Gq6vSzxk4RFeEo4QwQQlgCQQtCBk8ShCjEaPX7UB7M7s5uo9Lfv49txxd7pEyNRnCSvz6gEuCSk47WVtCdNG4Gq4FXarlRQpMHpX0qs5LVXtDcDR7PJB/tYDk1C9r5X1tGCwzyBXkLNH9Spr6qBYu8KotXCTSoVgHj4X6PU8JpdcxN6rqRCpq1C5Wezug7+QpOaz71Xp/eA+XXDjeLZOGesz1en0+qAQ3ZFRzI5asmSS6+RsFDZKyJAMmy7RV9XLLirqcMl9yiuiGnEpE6rdf17B8b8+wjB4YlqG9XdK3o8to4iIlvVF0SjS/autqn0u2V7lk+ZaQfL5a5KPlIp+vjYhs8kFuOe/APOmgjaReG0KogYhREu5GoqeKEi38q1sD8suvaqWAnip6PduRM0SH5Gjjw/dVW3ZcSA4oFylrzx2tajSwX2td/0JWQ6AoSRkE8p9xxOrnkDaU2atChpxj9vBIQL8H8KhECRghYpSE30GiY6d/XhmSn3zhM9mgWLmAXCmn1NS5ZMLeAXngKr9MPCAoZaVhCStJQz7ljDE3NChxGmz1aDCrC/UeJglam2dG93fLGA11mDPNINu3CcgN2XOm4qPImfKi0durDQ57w7URzU2lpwviqVPbnpBJqH6ODHw1MGDMtwW+6zjT3Oe5loD3a2nQka85AxVh7qClJMkkIHShmlIlXpeUaijQz/QgO7UBbagJy4qqsCzTsFzDOv2+wx+Z1eQ5fOPY2jSCdMuEv32lL2QWi+VS5eeMjV6lWvykCX6552K/hH3uqF0cCZHPWu12u7jBvo4+g5TMZ731jeu7wq57+jfGRvfodwaAdCU7fEriipDM3xqWRTvCsmpnWDZB6Pqw+NRUYn0LxNaYlNA6SFaCl2mDYJZ0ULFbhpd4ZO8St/TV74V6n+fxjSerTMyWT74Oyi/m1UqN9mo0llxAzhC9Wol+7Bi/PHolLFLeRYltyGr+th7RmTTC9KioFvlwbUjeWhmUzzaFZE1l2Kw/ZzLfo5oWLW/ME4K+TrAqB9ITJT7ykCbK86yBGVbqlu938sjhnfKkvCQycI4sD2ga9AZvbAvIefNrzaSSRpP1yBmi4xMfs1dQXvqtflAihoKtT3SvkjFPo12xLSRPfRWUF5eEZKlqbwawmCDcg9jNhfLZrG0JaCYg/QQl+yk98mR8R48xURIRnjU0T2zwy2WLak0+W5KPtoCcWdSFRsxXTXbywUHJ90JIrVkl8zeDPmzYYX2OXgf2+42uNw4uvY4/fpuaInd+HJBr/hOQ15dHtDd7RiG5NdvaEkBOBqoF+gHN/FWVNqbNQZm1MyTdtBsZVOwxadAgYkED2a+Dx7z37vagiSObkTNEp8Jr611y4oFB6VSmfMQPbZG1UdCHDTGsz9HrwH6/0fVdAROlQP95eWFQzn85IC8tDplGZiailJStBXiKLc/fJTUheUEJz0rF4e080l0NcQgdC8ygcWUeWVClY4XqkHk/W9GKov9ugTqs9IksXqdFVo3aGshXbY1Z8ps3A3L2CwFZoWZK+4KIibK7AFWxwWlUmCY/mOOTpzf5pViv0QjtQNOTtd+XF0gfHSUn2Mra5pEzRAdBNVc+XaK13QqaC5Nkuzaks571yz2fqCmgjYlr3xaoWNyQW5S9v15QJ1OW1BkNbrw+NuBTH1jklqsG5GsjTTyIbcvIKaJ788Ly0UK3BNV2ziTXWcy1uVrkzKf88vqSsHQobJW21CzgPsRfzxr0s76qla06Fo9dtVilLeBH3b1yeOc843LMRuQU0TEt5q9xy/xVWmy1mTMBNjzvrBM5599++Wh1xFT5roFKxsvyzvaAnDHXJ6t9YTVlIveAKnW15sJySf98c53v2YacIjpatkrNixf/p8VW7d5SuKPSu0oHne+t+G6S3A6W5X5RxWRRhOxqsTRAx68yur1Hju+KVs8+AyaniA6K8kVe+MQjO7e7xB3ThacLr8Z134dBefqLkLRXc6UtALLjYZk8v1a2+Rvb7ExEndnLK6X6TLZp9ZwjulfNl2UbXfL0B1r0guZrrgIl+ZxVIZn2TlCK9XOmTXJyZk0IsSGaQSN/+c715uac9yDyrJ1BuXxRrRmg6lcD0hjZziMHd/SYyaZsQk6eAkC9LlWy/2Ssdt8Frhifut40dWx9jl4H0ft0BIGQSy56JihLt2bOuwK3ONKiVj941M5ibUuPIpf0VhujZ6FLOue7pFTTYpofUrIpOuISjPjPo7lMCUwQsd9UozHLB/CzExXrZtia98rWgJkxzRbkzBKAWOxUW/3S44Jy/ala2dUs8lINz5Q+NU9QUje1BCBfCffkJyG54Omg2e3fUrAYC3J3UTKP7uKRg7q5ZZ8OHrOAi0EkSbj0GZYWs0d1Z11YNmn+FylR0cyEFWpzBzWTRYaokXiTgYksCP7Q3oUysUueOfcFX3ul/j1hjk/W1IazZh1MzhKdTdDw+MlLgjJ+uJLEh7shOdHR5jV1IsdND8qiLeEWaXOIxrmM/du55KRBHjmxX57sWeqSPNXNbARhX+uu7XkacP3pXzZFe7QXyov2NFuVrZ99HZTnNgfk7e0B2an2CBNEqdil9AwDtNd4dmSRlCnLIT6mzZWLa+XR9X7zORuQcza6BTwmbI6uqtUvadSlR+3xl+aGZN7G5pOc5DBRaDvnj/DIS8cWyNWj8mVge5c5nYvjozlhC02POUODsALfTQ+gwTp9i4ONjlaNPH1YgSHsyT28pmH69JlkYNnuIh2c/nW1v2G9i74qEzrmmRWS2YKcJTonZw3sEZbxQ7Ra66MXkwAesKXu8c+0i2+B5Pi9IrT4P47KlxsPzJeuqlGr1NiG5JAsXUB+NlIw2TOsxC13DimUf44o1IGl2xyDkYzvLBl4fINf5lQGDfE5MmNEqVu6qN1C3NmAnCb62PKwlHZQomCepIA8r8hnq0Iye23ztXmlNqoDerrl6ePy5dA+HqlWguNJyRQsTT9eNfK/9imSyX3zjbcG70pTwDrBLp++pl7Make91kMH6Zg0mDLZgJwlOpgwVBngSqMmlQQvzwtLrWrkdHt1HmeZ7kG93fLIRK/0UY3JOeitBTQ80/9/KC+QW/cqMGROlBw2/RvbdGD7dcgcioT3pbzYbda6ZwNykujYuh1KREYO0C8cdZECjDeiWuS9Jc3T5myPG9LJJdOP9EontQ98TahYcgNBSzTBdmo6cPoWwewT1cAET6peFZJgHQuTQHerOcNOp6bIDhFoHE9s9BvbnO8DlejZguwpSRrg+Ip+XcLmECPTT6cAt5L7q/UhWbEtsr4lHWDnFun7f/6+V3qr3RyP5HC3WJ9h1ePKqrA8szogt35VL1O+rJPr59bL7Uvq5bn1AVlcre/q/xA/FdcfKeGFmdQtT/4yuNBUOPmJB1yTb6lWZ/M0PVYvVe3ZQpCcnDDiqIrxw8Jy4kEhCfm1Rs1EkBX0AUME63Pkukft82c+E3lroWr0NBeE4UK8aLRHTt7ba36ky8BKRwOn3aJt314XlBvnBOTPcwPy71UBeX9zUGZXhOSziqC8tzUoMzYF5fkNAfmPknG72vZ9tGfopioe4kZjbRLY6SPbe8zKxTe3BYRjpTXJRqCnqNBGgSbfr8wjmzSvL24JGtLHPtvWkJMaHWIM7qX/pFh6Y49rLzBnDTOWkWupgmOkB6vJcu7IPOPOjAVafGttWC54v17O+G+9zFgbNIuqSvR6rOnCykIGrrPVjp66tE4mzfHJbSvrzbWiFPzdmDHn9MmXn/bwmgFrPLiV0tjq1tns+n/SRtQWkJNER3MN6J569fE8u5OWbuGA/ejFFAHRzxjhkU4lLrOxwY5iZdGCirCc9Ead/GtZZLMGU/yJOEtecAFCwm1qcN+0vE5O/tIn86uCSSd3lLtmcDllYL4MKnIbLR8LxgBzK0OyRs0X4kscY9tBzhHdVxchUv9u+iVORccDk0ubKzXs1HfTkBjb6nq1c8lx5W7xx2hzY4vvDMkv3q6XhUr2Ds1YGIaN3kEJP2tn0JCd9ebJTshF+/fU0e7le+Rrz/bNxs7r2/wh41NHm6coou88cobonJm4s8YlI/YIySOX+WWfgSEJ16dILZXSBjUXOCYajZoqWJcyrq9L+rRXotsYQxx8v+oDvzn+orSFm0CY8KnQhjR5Qa28vyNovicC3pXju3rloLK8uLOnzJDeusIvFy+sNR6qbCBJ1hOdKmfwifK6+id18tINdXLMgUGzZiVlF7FGgkZnksnY62lgQl8Vccw7Raoqn1gUlLfXhMxPM6aajUTA5Nip+btUybm6lh390RtxALd5/he9+e2Mb+4TpadYpXF8pj1OkjbTZpDVRKeOqutc0q1DWP7f1bVy9Zl+s/Ei7Isu0koVGtEOtdFjTOyE4NkSTWtYF7cZ2FnA9NnuC8tD8wLGfMkkcHsvVxX9B7XbqdhEHGWJ7yGdIj/gFTszSzEhO2OBbEHWEp1K5rzF8l5BeXpqjRx2gKq7aiV4in7zWNSkuB7GAkTvVOSSHqUMQqMXFZz58t66oCxWuzzTRIegeGf4TSP84cx2NgXy117vH9slT+rTavVtE1lJdKoXTT6oV0gev94ne6k9bkgeub1bgPeOPaSl+a5GPQF+jHfX6viglTJD2UNhlzyy3q/jAH6gsWn4NRP8eh2Ej1HqWYesJDo2eRc1V/5+dY3076dVqKZKS8FJW+kAIqOx7ascse9rdBS6cHuoVQ81YlKIE3PnVYWMLd4U2J3EybwE+2A5G5F1REd7osduv6BGhg5VOyUDJKcr6FiswkojKh6NVdqsIWH14la191v1eDoNTAh9sCOotnbTmUZW+MqHl3JkXWxuswtZR/SqGpf8apJPjj5U1bqaKxmBcqB7+8i5MKnyAX4x9V8baGw+mN//VO2ZoZw1CSr288qgmSBKltaQkqyjwTeQVSXkENHhAwNyxam1ar9o9WZKSSkxe5e5pV1hRAumAsaBeFcqNFjam0bCVD0nZ6UaT3PBsdGra8PmvJYESt3Y5n2L3Ebzt3KWvlVkFdFx4119qk9KO2qVNdO7Eg/E20M1eu+yyGxnKmA2tUJNlCUVu3Yj6RBUOhS4pG+7yM+ZtyYws9hdxLqZRJXMWS7sJErkd88GZE3xampdMn5fvxw7Qe2FTNjlNjCrWlgksk9vl5k0SgXkABNl5mr9JyplNLpXNTqbL1JtMC0Bnp9kDYrbLBZjuj9Vs6wtIqva8TmTasXFoUStRKIJg1I/SgJgory5PCRbq3Zpdb+yb9JAj3TXwW2rkl3FYH7dDgJHL8UD9xgkG6JHLmUlsoLodWqb71sekCPGMvpLg4lpgN/2HzfQLb3SMF/YoLFMTZfnFkV+ZQPUK9EHqr1/zvA8M1htLZBFVjgyJkimqcP6AGOG1pHcdwNZQXQqqbgwLC4lVmsd8o8Z0qOjyKHlLvGlMUuKL3367KCs+5qZ0AiV8MSct0+eHDfALV/XmUsZBysTe+p4gGn8RDyHACzsYsluokFrW0dWEL1IzZUP53rlkmnFxp4Wb+t1wiePVvKodk7VnkWrr1aST53pN0TCA4PdjClz5yH5EbJrw0nWS5AcNneqYCw+tCS5N4V7tD8Go9k8aZQ1W+nwcX+20CtrN7jliP0DkpevF83GZw3UZsNWuWSBZzXEvqcIaXz9OrnMTqMFGyNppgLI/uXmyLEWh/f3mJO3+Mwg8P/0O3/nqYmzvZYzWHZtdiB5GgUHfuIuZFMGmjfZOMFkX2O5oF++9C+K//tFFmg8HG0xrNQjb20LCDv9oh1PViGr9oxywu2sRXkyb6lHDh0ZlOIOWmtmT6jebETmRIFnic36HL0O9G+ekrJ3O5c8+4V5KKXunkfQ4B+si6xpP7iP26z5Zr06XeqEnh6Z2Mcj3dTOoEdCs0JA3ulW6JJDunpkypB8uXBgvtk7ujm6eaQp0Dj4od2L++eb5yI5bRqktbcSnT2or24NmPxmmxmTlWcvVtaohuoflGkX1MpYJbzodwi/69eim//L0Rz26fW65MpngvLQR+mdi04cVUruo/u75bdjvTKko1sCqm7rNG+MVdkkXVsfli2+sOys07T0+U6qxXtgV+j/y7eH5JTPamVNTeItfRxGdE7vfLm5vKDJvaGx0FKalY/XL62Te9fUJ92p1NaQlacAYENvrHDL8zO9ElQNOqpciVGig9Vv7PiPFzQCww3rc/Q6iN6HgKN6u+WNhSHZWq2aV7V8KkBLMjhduD0sLy4LSoVq5p7FLqO12ZUf1lE1/CpTVd5NTY6uep2N0VuV+I+tDMjlc+tlg5o3yTZVcPjQ1D0LpGt+ehNTDOr3be8xpwRs92eXCZPVp+liBjCRNGpQUC79Ub0cO1otYFShz2Xs7QZtbf7qdfNZXyQoqeNpdO5xvUC1+n8XhuX0f0ZmkNJdpMXgk0ONOheJ7Kemyf5d3VLePnIGOsdE+zR/66pDMntbSN7dFJSlVRGCJ9ucjTb/WQ+vOX+xOT/RgkvyPtXov1HNni0n6YKcODaaNTAQ9YChATnziJActW9IStXONoNVvQfpw9GfTE+V6HwuUFLe/15QpsyI/OpFOpNJFuAih4viDkSrGytF44lcjxwQyg/dJtLiFhh0qkKWZ0cVy8AiHQPwcppgZxHHUB8/22f+MpGUDciJA4wwLfLU1l250S0vfeKRGZ95ZOUGl3iUGKWqPks4kUpr2BWMEpqQwHSxroe1geyv9naN2tUzl6vG1XTSHcRBarQ0PnZ6BV4neq5HCK7XU4iTd9DgU9Rk4Qjp5v6MIm2js2aItexfVgVN+tmAnPwhANarsDkD92D3MpH+XcMyqr/IlBMipAphjaSg0QnwABN96msBuUcHp2j2b6PH/1qN8ZOMyVJgNDv2dnOByfL4Rr/ZaJ3sRIG2gpw8kg7NWaADVo8ytLpWZNUWl7y7wCX9u4Rl5F5qypiZT61gyJJAoxMMoTQcMQiXocjMFZHp9HRt9paAsxXZEneX2uWYGs0wzRuhUMmNi/PfmwKmh4qWvk1jN1bHdw9UIGZNsZovHYpF/vyKS9Zs0GtMNqUBBr30Epcc7JH7f+CRzsUuqayLtIfWBPGjyb/fKU+mDy1S7Rux05sLGgmD0cU6CP7TynpjxmQDyUFOavR4YHJma5XIhgqRSftpBVvmShKNbqDfeZbfHdq7h1smDnTLxkqR+Zsj2p24Mw0I7dPIT+nplTtUk7ePzpqmCnJOwDJhPQwnBuzQ/D+6zi9XLK5TG51fv4iWLwuQsz/W1RQq1ZS55adhOedIt/ir9ULUFm/KRo9c3xW4B0H4+8KCoNz9SdBM/2PKsGy3pTOOmCWctMWCrcv3KJDTeuaZa6lqcpK3NkzjY8cduaImLO9sD8pLW/yyWD9zH+9LNsEhegwwQyDl45NdMm6IEohZ1TSJznUmlQrVDKisEXlxUUCe+CokczaFpFa1JmtfLDdiKiAJ1sbUqQbvrAyc1CNPJveJHBTKCbmpViDJke5fVtXLF5Uh0wNs0H/W14WlWuNhWUIqbsy2CIfoccBPt/Qs08HYBS7Zs5sOzGrTJ7r5rqYNP5XIbGit2uyzN4Tk9RUh+XBdSJbvCMlOHfTyGASE9HbiY/Kw9Q5gVuxZ6pYjunrkxB4eGVrsMWOCVHc7WcD+fk4HmOfO95mYrQ0XBFvSWQmH6HFApVcpMYf3Fnnkl27p28ElAUjVDKJHviuJ9bkCJVYk7rCsrAib812W6t81lWHZVqtaVRsYM6YQr4Nq7h6FLhncjh/XdcvgEreUaUuoU83LYjDh166JO0Wo8peVmsZPPvfJ5vrEywiyEQ7REwB7/YlzXXLUCLfU83ukLSC6/T4cYxEXP5xrXeNY6UBQP2vA7OH4T/ODuXovoHY02hv/fkN8aRAde5vDis6c6zNnvWSLbzwd5Fi7Th38avOALiL79VeypmkiJANmCdP+/CpdJGh6SlraDINV/vIDAtjfBH58l3eaA3oHftv/msV1MrMiN0kOHKI3AYg+pKdI5/aRAWprAx7TO0Bo/jaT140Qsb9ZelsrT230m2W4uQqH6E0Acpd31w86kDTmSRtDxIWomnxJrTy01m+W++YyHKInQJ9O0Q9tDJgnO9QcOm+Bz0wAQfLcprlD9CaBrVxWFP3ShoDi/nRnUH72pU9e3hww5kqukxw4RG8C+LRZdpsRY3k3gTwzQ3q1Djy/qAzmtE0eC4foTQC73BxB0Ya4Qlbx3vADANm0TiUTcIjeBPB+7MR33gIU5kVmRTGDdgfgNr/8zOKsHPUiNgmH6AmwviL6IU2wWpEfBZuzISQLt4WM3cyGjGKvS82hyOaO1uAhhxUtqwlJhdovjkJvDIfoTQCiLN2iH9QUSFUjsxisqCCy6fnWmQH54VP1cuK/6uWk5+rljx/65dXlQVnxdchMALGwq0SJTyiNCUzPN2dowJDiox1B8+NbDs8bw1kC0ASYch/YVeT1S93md0GZno+3BABwYi2NobpG5OUFQZn+SUjmbgwbLQ6Y5cTeZ29oB20I3Ytd0rPEJT30b+cCl7TXCFiLopaOWccyvptHhndwm8OOzDS/FTSeppYA0EuwGvGEOT6j1XNtLUsyOERvAgxGWef9/AVuGT1QiV6nF5XYLM6KcAiSR7bdLd0SkjcWhuXZeRGCY7oUwNoYIGhsfyaj1JSOzILqNZdNf0PWkZ088uSEAnNUXI1fL0JoQgKis8/z2c1+OX9+rVnt6KAxHKInAIu6LjnCJdf/wC0Bn5Iz4JIq/butSmTl1rB8uTYsH68Ky9wNYdmm2hx3ZDyCpwMoymle+3dxywNjC6RXgVuqWJGVgOjwmob50y98MqsyZHoHB43hED0B0Lj8+vNe3VWj6xeOi4b8/GRLlf7FlYf25jSBTCvRaiX7MDVfpo3KlzEdPZp22CwVjkd01pn/ba3fTPdn06FDmYRD9CSA7NjN0Ac7nEEqg04+tyaliJuzWThB9/xBXvl5f690VkL7/GHxa34sonPQ/9LqkPxYtfkOtYd0LOsgDhyif8fBOAHCD23nklP7emViV4/0VXPGo+MFtHulEv/0eT7jbcnVJbipwCF6GwGDVGY8exa6ZWyZR8ZpGFHqlofVZPnXJn/WnX6baThEb2PAW8MmaSqtSO0oNL7jSkwOR0RtDMyyYqIw6GS84JA8NThiasNwjJXU4RDdQU7AIbqDnIBDdAc5gVbzugSDwYbALxMTXC6XeDyehsB3Bw52BzJKdEhdV1dnSNyxY0fp0aOHdO3aVUpKSsTtdkttba1s3bpVNmzYYP7W19dLQUGB5PFzFA4ctCIyQvRAIGAI3q1bNznwwANl3LiDpLx8kHTq1Fny8/MbtDcNwe/3y9dffy3Lli2Tjz76UN5//31Zt25dzhE+FAoZefA3FvR+yMJRAJlDi4leU1MjnTt3lh/84Ady7LH/J7169TIr6fz+elORgIqzAOHR7jQA/m7atElee+01+fe//62fN0pxcXFWmzSWUigtLTWKoX379obQNhEZxbB9+zZZu3at+eyg5Wg20dFEmCKHHnqonHfe+TJgwABTgWjsdEAlFxYWypo1a+XBB++X119/vaEXyDb4fD5D7uOOO14OOuggoxQoOw3bIjptnGtTp06VV1+dYRq+g5ajWURHK6Glzz77l3L66aeba5DcDgjs9aK1G2tn3qMxWHFYsMj97LPPyr333mOeyaaum55vwoQJcumll0nfvn3N+IQy2mUAkMPq1atVeUw2ioRez0HLkTbRLS/KFVdcacyV6urqRnYm2ghgdy9atFBWrFip3fB2fS8gHTp0kD322EOGDh0m/fr1M8SmMq3KRrOVlJTKJ598JDfccINUVlZmhWZHk48fP15uvPEP2vi931AKdlONgfv9998vf/vbg+azg8wgLaJDyPr6OtVKl8tJJ50kVVVVDSSNaHCvzJ49W55//jnzF4LHDraoVAg/YsQ+csIJk3TwOs5csyqfrnrhwoVy+eWXmfjbOtHpuTp27CTTp0+X7t27N5STMhcWFqn8IoNSQFkp87nnnquKYq2Rp4PMIC2io71/9rOT5bLLLjNdsUVytPiOHTuMJsKupDK51hRJIX9dXa1WttvYquee+yvZa6+9DCm2bdsml1xysaxatcp4Yto6kNkvf/lLmTz5PNNDAUsub731pnz00Ueq8ZFFZJBeVVUp8+fPd0yWDCNlokPewYMHy1133W3sSEgJioqKZOXKFWbwRAVZPvNUQEOhWy8rK5Nf//pCmThxokyZcp3897//zYpum/JB4Lvv/qsMGTLEyJDv9H633367PP30U4b0lrx4ns/Z0MC/a0iJ6FQAxL711luNqYE2B1QItvgVV1xuBlDN9RAQNxVOQ6KxZMsglMFmz5495b777jcNFxMFc+X992fKVVddaXo9R3PvHqQkZQaMTASNHXuA0cAAYvL5ppv+0CKSA4vYc+fOTYvkNEArxIP9fqLnYsFzkBKiWh6ieBM7IFH8fG/Xrr3p9az3PR63zJkzx8QPyRO9nwg8m2oeQSppJHqGuO1pJYqnOSC+TJfHjqREJyJIfcIJJxib2ooYbfTYY4+ZQWcmfL106el02XahECyh4LbDLqbXsVx4sc+RVjxY7xI3A+Y+ffoY7xDLGJABcdq9RIAKscdvv8dnrzfvG+mRBu/Fyx8hEXiP93mOSafevXubPDLQxaRE+RDsJInNYzwCxSsHgfISH3WD39+SB2UiH5ShJSAtS+ZMntlljtKLJ3N7Pq28JkNS04WCDBw4UO69d7pJGCHhDWDWDl8vQoAEuxMUHHv+6KMnGruX/Pz97w8ZTTlixAjZb7/RMmDAHmoulDZoTYBm/fDDD41tbG9UCCsQ8MugQeVyyCGHyKhRo4zJUVy8a40Og+T587+Sd975r3z++RwjB4h2wQUXSJcuXc134rjnnntk8+bNRlbkjfzcccedDcRBVsuXLzfrfWLlBlGXLFksDz30kEnX3kAgAvnAB3/wwQfL6NFjDCnatWtn4qGecAgsWrRIZs58Tz755BPzPLL5+c9/IcOGDTPP8OwjjzwiCxbMN+kByn/66WfIPvvs00CcO+64XdavXy8HHHCAHHHEkeZ9xlJWubZs2axKbo688cbrsnjxYiPPdHhgNfQ999xTy3OIfO973zMNqaSkWMvuMWkwOzx//gIds71j6pZ3qEMmKHkWmSD3e+75q2zcuDGhNZCU6LS2U045RS655FLzGWBvTp9+r5Lr76aydzdwwZ1//gUazjctHgHfcsstZnb22GOPNXlCAPaWDmmo2CuuuELJ+h8jMMD7PXr0lDPPPFOOPPJIo1UQKIE4AO+SBqShcj7++GO5//77jGfoySeflP799zBC594vfvFzc51n4xEdcC9epdBLQtCLLrrQpGcRHcJSppNPPlkmTTrBaDvSs/JIvPY8cg8z8MEHH9SG/YHW1X2mARMP6V522eU6TnjPpAfI5623/lkOP/xw85lyXHfdtXLYYYcbmVjltqdFPFzfuXOnPPPMM/Loo4+YRsK1ZEA5UoYzzjhDjjrqaNOAEsmceP/3v//JAw/cb1zPTzzxZIOXjrIic9ZOWQ03HpKaLiQ2fPiIhgygaSjcBx98kDDi1gRCoJAIDKKSH1x4P/rRj0z+aAhc574VEMgXX3yuRPq4QZvX1FTL/vvvb7Twj3/8Y1N5vAshLKETLBLT0LmORsX7dOSRR+nz1Y3SsTeupkDF2d+xB4hmh89XY3rU22+/Q8t4jtHg5JFniYe8xeaRONDOt912m5m5pjx2eYRCEb+9HbzLPZ7j+auvvsb0mqRBnLFpkQb5gIhnn3223HjjjcaE5blEIC56zL/+9R456aSfmbpIJnPiHDdunNx5511y3HHHNZTfCqnIPCHRSRDt3a9fX5MwgAwMPvG2JGu9vB9LuOYE4oglgB0QHw3Ns6QJIDz5ozEiTO6/9dZbxpfNPQRIl/nHP95ilhNz3XqX+HiPd6g8+5wAQuXd0tJ2pnfgXSooVfA+cSPXeMHSsoDKHzx4iEybdpvsvffeJo9WWuSR8tnzaPUSpIEsAD0fpE8kPzt4l7LSoIjDIpE9LfJP+gBeoGgOOeRQbRxXm+uWHGNBPeLU+NOfbjVmF+WxeBWvPHaZ8y73Lr/8CsPHZA0qFglNF4RKF0PXx+CMTJGJV199VX7/+xtMwk2BZzt16mS67qYKniqw2SoqKmTevLlGIBDtnHPO1XCO+WwHJEZICBFbGbJwjb94iLhGufBroyUhF5rDAmVCiJgfa9euMfeY2cQsQhZ8t5MNUBGkwT3GLSgCKg1yxZoukOTdd981ZeGzHR5PnrHdMa0s+aHFtI4aiAusHon8rVq12pAAk4vlFYwteNcqE3m0yMdfGsO1115rTBqrUZHPP/zhJrNAz54OsEwUyrR8+TKVTUDHCX3MeIb47Okgy2nT/ixPPfWU4YkdpDFgwEAtz53GVLE3PPJBni2Zc6+srKOROYvgEsmc95A5455YedqR0JdHZFQ8gc+AhBiYJSMvZGGgcdNNN5tMWu83BwgC2/Xiiy9qaOXxwD3SefLJJ2TGjBlmgEI+yDPXCVZDuPjiS0zjhSQAj1JhYYGxv5944nHjz8dsCIUia8Mh+WGHHWZmhiEgDac5ZaIyrDQgRiwoA/mjcidPnmxkSKO1AIHI2z//+U8dDM5q6Il4DwKhMU877XTVejSOmoZyNwcQHEXCuht6QzQ3cRUVFZoBP70FjdCSBQTFHPnPf/5j8mXVFfkjrosvvlg6d+6iMo8oJ+oFbn366f/k8ccf18Y/z9QHzyPzLl26mLHFKaecauRv72HSRULThUjRprHksrfGRCDDCCETIVlXhdAI06ZNM4HBiaVtLOFAcoSF7Tly5CgbyXFt5ssjjzwsV155hRE8jbOgoNBUBELfunWLDrgeNY2NuC1tmC7IC2S3TJXYQLyUd/To0cbbgT1qAZLTgBmsvv32W6YsllkGkSDXCy+8IL/+9QXamD76hlZNB5Eeqk5uuGGqNsonTFrkjbRo/PRKyGrNmjUNmpQ6wiTBnrZzhPIwsGU8ZCc58T322D/VHLncLIXgfas8yByFigv7wgsvlAULFpjrzUVCopMZBi50D3ZAilTA+1RAuoFCxoLVj4laM0Jg7ciLL75g7EsERmWRByvQ8CAT68FxBVqAEGz8uO+++0yjLirCxbVLNLybl+c18ULy66//jXGvkdfWAt4VCGSVmTx+8MH7csstfzQkohx2BUQe+Y53hsV0U6f+zmj+5jZIZnBZMj1z5kzT89nTQjakg6mB90lTN+kD8ou2t38nD5MmTWrEI+rrxRdflLvvvts8S/m+KfM8I/PVq1cZma9fn3xc2BSSEp0FR7RIe8bpuq3vTYH7VAg2Fz73VAMagl1HdiCAysoqo2Xjpcs1hIiP2yJ3PKAxsM0HDRrUoO0RHPYdfngaR2zvFQsqBLI//PDDcRtkS0EZ8RGPHDnSyB2QJ3zk9957r7mfrLIpB9sVrXX9yeoqFsiwurpSFcfbJq6mQGP79NNPzVonK0/kjwkfiAxXSB95s7zD0vI8S10/+OAD5nMymRMXY4S//e1vSZ9tCgmJHiHYTrXNvm5IAEL16dPXtFJL28QDAsLnyYBx8uRfmQFDKgGfKDYh71sVxF/sbTRyPHAfIWJeJCIflYD3wp53tOZrr71qtGCqxIXs77zzjlbwyqSkSxcRYpQbZWK5AZEFe2uXLl2asoaGHEyyEBKRNR6o6+3bK5LKE35g/kFaix/I1TLBqC/Kw2QTMrPLnImmzZs3pSw/4qR3WbZsaYOplA6SEp3ByNq16xoKQsZpsam41WgU2HZoplQD6ZWX72UEbAmGvytWLE+qmaKPNwne76eDNCtevpM/yJAOYZEFGpPBU6aJDjmY/SQNqzzkd9asz5KW3w6epa54z6q7dEDdUn/JZR7R2rGAOxaQuQXiQynNmjVb6zh12UWUbqV88cWXzZJ5QqIDCoytZwmLiuAoizFjxjR0RU2BQpHBVAMg7rFjxzYIj+uM9plmbgmpqBAaD244q2cgboTHoCddMhAfNmM65EsVHTuWRT/tIgY9Wrp55HnclakQtiVIFDd5wMa3lAsyZ0C6bdvWtMsDkHlzkJTokAM3Fl2UVSDIP3HiMaY7acqcaA7QrqytwKVm2dB0U3TZdI+pmhaJYN/DSnnIv1UJ6SKTZbcjHnGam1Zr5TEdxJYHrw35StA+mgSNtjlISnSItmTJErW3FzTYemiYYcP2lqOOOqrBRddSUAAaDn5qO/EgN4t6MGsSaY5k4F3SYMreigdh4z1gZN8cQuDbbQ3Qy9hBHURs9vTyiI2PLxrN2dzG3FKQ5+rqqkYyZ/wQmYBMrzyUgQmk5iAp0ckgJHvllRmNuhrcc2eddbaZjeN+S0GDOfXU02T48OENJhGmCnsn2XHEZE5LgZDp+iwzie80rqFDh8a1M5sC+zwZXLHJm5nCTAJ5r1u33uQNULnInRnWdLUZk2C8922RHJA2y0UsovMd9y2KMj2ZR9yUDGyTjQ3jISnRAQkwLW33y5JJWte1115nNGIye70pUAA02DHHHGsWIGG+WKAHee6554y7kenxlgKCL1iw0OTdrmFYQUdaFrmSoabGJ6NGfc+soOOgpkyCxo1ngb2jVoNEtqzLQd6pVjLvsBhszJj9M6KImgsaKd438mPJnDkRVkWyJDdVmcML1uzQQCyzNh2kRHQEzgzdww//3RDTqgASZyUa6yQ4rQuPCfdTBZXGO0zgXHPNNeaaVXC6t6++mmeInqpLLRkwAVhTjoax7H1IQBmOP35So1nIpoCQadhnnXWWkUM65U0F5Auf8cKFixpMReSEJ+a0004z+U1GDjQ/z9DjsiwgVTK1BpA5RLfW/wBIj5v3hz/8UUoyRzHBB84RIo7myDwlogO6avyYrD2mu7eAyYEHhmWr48dPMBVBA2iqmyWTZJwCEg/r3K+7boqpYEtb8Zl4WQDEc80ZnccD8eBhefvttxs1Hsh7/vnnGS2Dhyee1iTf5ImKu+aaaxuZWJkEWo/8sHDOUiiAXuTHP/6JWfeBfJvSasgf+bIhhPXl9h7y2wBlwBX75ptvNvLnk3+WHXOMIT06eY4FMif/1NuVV15lFFJze6eUiQ6oZKZ8WfnGIM4CBGCNA5sfbr75j2atAy2QTKGx7YEGwAo7tBOrIk899VTTlVnkolAQ/c477zD+beLJJBA2584wY0t5AHniVLHf/vZ3ZqESWpAy2fNN/vbbbz/5y19ulyOOOMLcby1YpiI7mVAwgHEBeWDdB+Yis6eQwJ5HGl55eblZSMd4B/lnusdpDijPSy+9aOZCLLIjc+p6ypQpctFFF5nBdjyZ77vvvsIyZTbUtETmaRm+ZAxh/v73vzfmChVvdT20ULQRSz05eg13IFPlbMeytDKF2WOP/mo77mlMHd6hQBboltAAd911l1kHYe85MgUaET5p1rVMnXqDSY+uHaHyGZPkmGOOMY2Mqe26unqTV7paAo2jNUkOyAckZUMIx2J4vQWav8heT2R24oknms0fNIQlS5ZqfqqlffsOMmTIYLVj9zVK6NvW5HZQ9/SkLGGgEfIdolsyZxsf46Q5c2ZrY1hhys5JzAw86TlpHC2VuUe119To55RAJiEnZkzPnr3M2hEqwLIDyTyf0Yr4w1mzgWnDajyIwoyq1WCsdwCaq7q6RlvvrWqXP2s0uTV4iQXdHI2MwGeeQ3O98sorZiqf+BOBBoXdSPQHHHCgETrvE4gPolCu/fcfa5a9UgY2H1M2AiBNKoB3re98fuWVl01XbVUm7zHnYIGGwu4sBvZWjxIPNEjW/Wzdus2Q2mqQgDySNmtIkC1HkLDnsnfvvnq38Uxlfv6uQTZ5JB5MN+ImDUA+WV2IB43ykXdMOMrC96bqAXD/+98/zAx8rXdRbNQFjZL0ADLHTU2DpccnT3aZo9TYZMIKR8qDzOEKz1nlsWRuLY3ge6TeXzb7FRLVe1qmiwUSg+y/+91vjYlBa4McVkJW5mO7VgKt1U4O4qKQnCZwySUXycsvv2xIn0i4LQVx052y5xUtQ75ZkmuBCovtRu1mAJVGQ2RJLIThe2sAucyY8bJqwZuMYrDMGIAMY+VbW7trhxVlYtDMHMTnn3+esFHtLiCzf/zjH6bHturAQlMyt8qDjCk/DWjp0mVpy7xZRAckhDDZAMBAjiWdZJTKoUBoC1ozBbIH3kHoPMdfWvnNN99kzlpEy3I9FRA3adgD8acK3qeRsQb92muv0S5zmUkb4ZPH2Lh4nvzSoCsqtpvlsrfdNs2QH1k0lQe+2/NIsLRcKuAkghkzXjHH9M2aNcvIlgqPl0e+kxfySMPgiECWtzLYo6xW+rHvAeKz55HvqSLVd0kX+T722D/kqquuMss6LL7EK49d5vSS7F76059uMY2c61Z68coTi7RNFztIgAQxF9577z1zAhWuO2a8uG4XrlV4GgP2O8/jrmR57Ny5X5pnUm2ltH78qXTddLG0fOJlRVyyLswO8k+ajCXYyMB4gnXY1qFD5J9yEB/dMOuvMauwm9nxBOHYK8lzlhbifHfyxDtoI+x7zB/yR6Cn48iNdNbukAfWrJBH8sp7rNkhfYhjVTpy2bBhvbz66muax78YTwfAFMAHD+FpAEzAUVbeAeQTM41ZVPLOM1u2bDHvE2ciIkE6fPXEb72LPf7mm280Ml0sRGSeb1Z+Uh7OxacMlCdW5siKtegvvPC8KQ9y4z6mHA0EEwmZU+8sY05U7ymfvZgKyBiFoyJYnEUlY6uTOYRJpmgU/H4RmaTQ3EtHwwG0KMKBlNikFqhIq6tLF1QYlYSQ8WhwMBBlYIcVU9jMVuKpsWtHEGuyUa5deWBWM888swusmIxs9k5EoHggXg5nJb3u3XsYTxcyRt6YMQyy8VdT6eSPspAnSAG5LFlRD9SVPX0ajf0Z0qKsyRAvft5FDtxLBJ5DSZFP7HHKw/5cykceabSYhjQgnrEUQ2OZi6aVvN4zSnQLFJCEIQ9/rQJDaAKZTJfcsSDe2MIRb7rkiQV5RYvZ827lGfLE5pvn7BWal0cF7MoD93jGjpbm04qTfFp5JD7ihQyxeWTwxkIqC/HSjy2HFV8qiI0/nXcB6bZE5vHKE4tWIboDB981tEytOnDQRuAQ3UFOwCG6g5yAQ3QHOQGH6A5yAg7RHeQEHKI7yAk4RHeQE3CI7iAn4BDdQU7AIbqDnIBDdAc5AYfoDnIAIv8fr8Sm7vrG62cAAAAASUVORK5CYII=;" vertex="1" parent="sy004vF7E9jO8Do3R6p2-10">
          <mxGeometry x="13.5" y="28.96" width="93" height="89" as="geometry" />
        </mxCell>
        <mxCell id="sy004vF7E9jO8Do3R6p2-17" value="" style="shape=image;verticalLabelPosition=bottom;labelBackgroundColor=default;verticalAlign=top;aspect=fixed;imageAspect=0;image=data:image/png,iVBORw0KGgoAAAANSUhEUgAAARIAAADtCAYAAABzhPpbAAAAAXNSR0IArs4c6QAAAARnQU1BAACxjwv8YQUAAAAJcEhZcwAADsMAAA7DAcdvqGQAAK6GSURBVHhe7b0HvCTZVd9/urs6vTQ57uzOZu2uclxFJCFyFiCBjbEBY4yxLTB8jG0+tv/YBhts44AzNhgk2xiZJJGzQEI57q5W2hxmZ2cnv/fmhU7V/f99z+37pqam+oV5s4vQ1u/Nne6quuHcW/f87jn33qqujAQrUaJEiW2gOv4sUaJEiStGSSQlSpTYNkoiKVGixLZREkmJEiW2jZJISpQosW2URFKiRIltoySSEiVKbBslkZQoUWLbKImkRIkS20ZJJCVKlNg2SiIpUaLEtlE+a1PCMakbVCqVS65xDNbrNjFOiWcPSoukxGWAJNYjiuy1GHejNCU+v1ESSYmrhrwlUpLLswela1PiEhR1hyxBxOtFLk5RPFC6Op//KC2SEtsCJBFDiWcvSiIp8bSgJJhnF0rXpsSWManLlKTx7EVJJCXWxVa6R0kkz16Urk2JEiW2jZJISlwRsvMfWC0xRPB9OBxuyaIp8ecXpWtTYiLoGpO6R5Ebkz0X08ZzRfFLfP6gtEhKXIY1AnEOGVsdfjCZWPLYbLwSnx8oiaTEJYgk4kF/wZIY6sKAq/rDXdHxGFyP1kY2bYlnF0oiKbEuRiKQkfVtVEltqO+VIaQCmeh8hjRK1+XZjZJISqwLLBD9JwdH1om+Vyo69gB5hBhYKGmarhFL3iIpSebzHyWRlFgXcAI0UBl/8gVeiN89QDI5ssi6PCU+/1ESSYl1AElgfTA/EpZyh1gcQ51naVefHjiPy1OAvHVS4vMT5fJviUuwRgjqFrgzEEjF5LbInRmNcG5AVecUKoxDIVboROPna+Kx8qiOrZLSOvn8RmmRlChE1Hsni1HVUpFIX/RQFUPU9P0iIA6OYwLC+LuIpBynnh0oLZJnMbjxWUrgOHaHKkf6ziTqwvlzdmFpXgxStV27d9vU1IxVq8mYQDymiAbLRX86FamF9H6xyvlsSc80Qp0C/izl+PxFSSTPYnDjUavs7MaQ+Q9dSegWnRXrnjpmj971ITt94gmz5rRdc9O1du1NL7bqngNWrU8pAxGJMsl2I0iDY5+HBVsgEt+ioqi+OuTSbS5dMcK8Tr5s2UnKlXOlQX61UBLJBMRm+Vz37ePN26yUa7db2j9KpWhKOBQZpJWUziBeqFjSX7Xq4jkbPPqQ9T/0e3byoXtssLTg8Zqzu23fbXda8+WvtOott5m1dymzJEMkfFZ8UjbMnlBmoKpKtSpOiXMrl4M8mIfJTu4ioMcnHX9buh9DycGksALkQdbjuZ2QT0kkVwslkRQgdOgQ6HAxbAcxvzxivleafyoFYd4iygqyeeXLXfs+kjKJSEifVmsiCfaIYDyMrLl0yi58/P129sPvtekHP2m11TNWG3Wso2SdYctqczfa4PnPs6kveJPtvPkVVm/Nhiy9LOXJSo7yIr8KZsl4Ahe5qpWaPmt+nJUrYjRKFVHBVZ+PSCAo/eWKT57kU9x+YyJZK2fo5SuVx49ylNg+SiIpQGySbAct7qhbw1aaer3yYj5Doug7h6hYUZrL68KxAhaJ9JvLQ1kh7FxlTaax8pQNP/FBO/feP7Vz999tc50FSxpdq9S6IgizvohhUGnbUn2/Td3xcjv8mi+30YvusFYyK50XIaXKBeKgKJXH31BpOJQ94jKgzJPawomkEMXWQ6xzNr9sOwRrKF7jeyClEKe0SK4WSiKZAJqFEDtltnNeCWJ+m8V65cV8IJKgKFJOnSJNXuZY7sXzpCUEJQpZSbmUQW1l0Zbv+hNL3/Orlt73iDU6HZGGwmjBGk1ZLooMkZB82G9YNTlkyW0vs8qbv9Saz3meNap7da3qbo3nLYWFQlxOBYikofO4N5MwaT9KRKx7to4gngfxHLiUSPiESEIoieTqoWzJCbjY2Z4e0L2zXTyPLAHkA8oWTHaed2EED65ABHEuw2V1kYqTR5XVFqE/stVjT9j5j3/ETj70WeuurtgoaVlSk6uTVC3t90VWqdWGA2vVhtZiHmPlgi0+cL899P4P2tnHTsga4XkcnKUAtSClKJ0oRGxShU1CaRMR231SUAso1qRWuxzB+ggWyEVLpMTVRmmRPCMIfroHHaFPfFbc/w/YSvcOrkNQKFGKj/RhEjO4DDF/HegfdBWUkNKQgP8Brkxa7VvSXbHek8es997fsQsf/C1Lzp2zqtwUJl6JU6n0FPqeJh2sqqyK1awpQVrWGU7bqT0Hbfer32R7X/slNjpyWOU3RRyJlxkVl1L5n7Q+b+JH4TMgkE4e2bOxDTmBBFlshSBKMrn6KC2SZwgozRqZoAzjT99yXhA2CxQdsNpxMf3Y3uGTvLA8xvFIgcsRJy8rw57Z0mm7cP/H7Pyn32fN82dsZpjKbRnYcmOgVJCgoor0yC6p1axVb1hdx4mOZ9NlO3jyhFU/+AGb/+ynrNtbdAskCycxV37ECTKG1RR9Hwe3svzz0hDjZwG9bRaRzLKhxNVHSSTPCOi8IcRvIPt9K3CFiH9rSntR2dauMYEqFyTsyXA2gBacUtBNvlfSvnWfuM+qd7/PRk+dVuKOjRjs5aY0Uyk3ApJ07D0NlLgnBe/L3enJ7ek0RCg1yTC/YEsP3WsrZ59Uxh0RBxvWwgpJgMrS14t6fGnNg8ThbDZERDLJEkGoESH8lfizQ0kkzwhQkmAF4H5UpWAoGWZ+DNkRM6ssRQhxyEvxxpZFBOfczfEDuSPVjj5FJr7QG4kkBOY7qrgx93zYqp++12ZWL1h72LakrzxSZExC/iN9DuuK31De05aOWjZg74jP8CrX+sDq/bOW3Pewje69z9KV88EtctcoV5exzKE9WArmk1OygiRnCHxnqVbnPT3W1rjOuFz6xKoiIfQBMYrb3KWLiJZMNpR4+lASyZ8RttPwF1UizI1ARK5smRUPzlAG6yaEeA4l5gxExguLFo8fs2OP3mejzhlrWk9WCPMYwZLA3ZAKUopbPqOhzo/qUsqaK25QXl581FX0nnUXztrZ++6z/so5S4erfs7JzFUdGZjvIFE8zkLHzJ3EMI6vAy462Tg4RS5XQA4lqTx9KInkaUC2w17tjktOrt7KsyJN9glbDcUYB0H3Ylm6tbIcbDSt0NDpxPo+gqORGu1Hq5aePm6dz9xt7ROyJnQeUhoq2VAWQa06FNWEJ3+rOgftEBKRS11kU5ePUx+llogUcKH6tZ4445S1jj9sw7vvsuHZh826snZSuTnDZXEHZIPkKl+yIDeUFvgBgpKMsnoCUSGnfClMjIHIqL9io4FCSliVgbUqOZaUbjnURbkEglK70DprRJUNXA6f4Grfl2c7ylWbpwFFTXq1mhkVSZ0IwlO4a26Q8vcJTB0H12d8HugaT+6mNTkrWBnVrjW7C2b33GOn3vUua973cZvtL4gwlEbWwEoytEGNeRBZJUqbDCrWYi5mqHxRbpWNwlZlbaRK00tqtiziGYiF2u1D1j56m7Vecpul1x21dGqP1Zp7rNKatWRKpNZoSsamykH9RVLKCxpIJS+2C1LjclVGXblIKwpLlq6KMPpYRnKxhAQ5Zpo23DtjtWSX5BABSSJvYSe2i3UP32O4CO5HjHdJW5W4IpREcpWQbcaijsn1q9HUgUhCPq4eXpT+I2+FtZJ1WMWUkOKzs3SgwEDd6GtE75+xqqyR/kffbwsffL8Njz9kUxrxG/WwZLsKiUAMEIvyqacVa4okWF0Je0EoN1grWDB9kcKydHlgdWsNWlZtz9lg/z5b3rPf0sYOax84bLO7D9j0ngNW23fIbGbORrWmuETE0FSZtWBTpD1ZNV1ZLiuL1j1/2rpPPmYr86dtsCzS63RclkRlSSKr3Xitzb7kpdbedZNcMNLTJrg8TDCvtcL4ewwXgW1E45EbZZfYHkoiuUpYrxl9ENd1j5OJFuY2xnAFzRz7SgsBBEIAQ6Vhh+lQQzkvGwJRucmcpVeKQLES1EVuB/MVjVUp4uKCjU4cN3vyEbPH77XuA/fZ6KwUNl2yXqUrd0ZplT/ZOfGMpOw6wPKpq6hERJKkcjlUbl9Wy5DNbDqPOpIOZwhm6Q37VmnWLU0gpoZV6nUZIm1rze624Z5rbHTNYasfvM4aB66x4b45q8laGfWV5ty82SOPWefxB2z1+CM2OHPahiK4IS4NLo7qjQXTqTZt9frn2bVf8jXWfv6rbNiYkYslMsE1Y+Im08gXiYTk4fxaDJ0OFBbjlbhSlERylbBeM/oWcV3Px2Fd5BKsEULo6GtHPvkYEOwA5UUMnYdKiBcUGfpANbAiNNizZNu9YCunHrPVE/fb4PEnbHT8cUtOP2rN8yesdaFriRS40+zbQr0X5CQoGagMW5I5sZrKgUyag6E1BgMpbWqdxsg6SSpyqfqeklZfLo54BGVOhyoYF4rPFLJRjjquNaZsUWTS373bVncfssq1R611aK/N6Vy1O7DeQ49a/757bHDulFUWzskKWrVqjTmagcgzvLUeC2Kl0rL5Qy+0Pa/8Ytv7xq+yyp4jvCrFGyLfzlmCiOexRvjuTyPrGCopiWR7KInkKiHfebPHYS8GnTccR9CJL4KLYYs5XR2E5VOBSdPxOZ7ShUh82zlJsuSjayhzc5BabUUj+MnjNnrs07b06Kdt4YnHbPHsU2arS9ZKuzaV9m26P5IrMrROvW+rdR7dz0J2xrDtwruHo1AVGSQpRDKQRSKXJmECthYsIjaY6F/Nd8SKTOToONlxTedxi6xat5Va25ZrdRNFyAWaspm9u2xKn520Y51zJ612bsFqPpErMqz2lB9yDaySjt0fkdqy3KKVpgjojhfbga/8Zqvd8GKZSw1E9pWmLIqIhPbzHcEVpCdZSSTbRUkkVwmTmpHzdNI4SemjvlwCDtKUEzLpmbcYdHzvRiolSvtsIsMSoHMrrhij2pKroLyY92CdotpsStMagaQEjBZfV5Gb0jj9lHUeftCSD/6eRvm7rLv8hMpaVT7sC8Fq0d9Q31O5LAkrJWFuJdCWxmsRhTTT6n0RmE6xpX2gdIORSpZiV0R2uFb+HpNaSBkWSkayInz3ia3IYkGmcE1xBpJO8XHnxD826PO08cjajbqaoCvl7ltPFwbSbCiDuDXFo6low+FgysQlOhHWegbKsnZYFs3X/RWbevkXq2rTOh+IJEsKeYIgr7QiC0fE5vKM7UK/R7m4JTaPkkiuErLNmG9S30jl5j1bzvtokUhDhLGyaKvnz1t/6YK+L9hoddG63VXrdLtKo3z0H0pT0whs7Za1mlPWak3Z7I6dVp/ZaaaQNtuyQmoawaXg/Y4tn7jP5j/xMbtwz10298RD1l45J4Xn6V3xRl9KJqsApwrlRvkTEQlEgcIy2vsj/75qkoi/dA21lvwjnU91voZSS6qBlJ6VFuRESqrMfEkDItHBSgPy5FpQTv53p0vXOM8mFF++Jq0Shj99xwpTQMXdYnOLhnkhBZ0fja0I5kKquw/Y8Mu/yVpf8FXWnt5PQ3vbxzJBEZEMRCRYfjVRHqWsyej1uTR+ic2hJJKrhGwz8p0QOiWdWyO53InKolyLU0/I5Thhw/kz1jt7zM7PL9pA7kalv2LNzoo4ZuBhOGQvh1TJJxGnpKF1qzcb1pQlkihUZ+esuuuAVfZda6P9+60xWLLlUw9b+ukHbOH4/dY7f9KmmSdRPqMasyciJF/dUMB6kCL6W9HEKynuEnFEbhBBVdYD+tutkypYEaAiCybpB1cmlblAYM9JmPTVCK+0zM1ASt267BLFc+WUvYEdRZ4+v6NzkAZQEldm5loS4ksuJpRpNycZz1nHYh8mgLFE6pKvLlJMZ3bb8pu+xmpv+lrbtf9mlYUtRH4XcTmRyOmSzCyVs8e4onK9LMXzVS6OcmlKbIySSLaB2HSXd9ZAJKiAqcOf7yxZ9fF7LXnkI5ZIyTtnnrL++QXrLl7Q9Y41FKfNPonqBaXDqQgrJT4KKxdfjZBbMlA/9/kRnmORlZLM7Lfq3GFL98zIQlixzilWPB6xhtK1FadZUzrl15OCYGHUhrJc5LWIM1QCy7t96ycD60n7+d6QazXVk7HPyksytG5C6WNLgiB3qNGTlaL8nTxkIQxqEMlA5CKyVFmk5WGddKyUbj0Y294hkKH13ByhZcgDmkr8sya/pSr5eLVBcDdUnr4PlEaiC6kIT//L8mIOqNXDDZqzU2/8Kpv64q+3nTc+T2WwmY30F+9H9t6EVxyQjz7V0D7PNC7LH10Yy1xi6yiJpAD5JikaoYgT402+Ls9f1sbJxz5rqx/4fas9+BGry1JI+6x2sNGLDVlddebU6pjqnh0+/ljZyYO8RAiDqtwRivEycTV4PWJdVkFLnzWfLB12lm1aiupLtYqGcpMEBXT3SiN5RYRVh6qkNJBAr9qT0gdrgSXUBhaFyujXKtaXXpHeiQNl8+tKq+tYFP7aAoTGshFZuOwuJDTFXIbK5kli5njgF/35S4+Iov88T8lFfRxwE9yF7GoEpfLVGMhhKLcKiwSjo63ro17fVpI5O/+FX2s7v+gbbed1d6hOiecf2jGAexPKReLgPqkYF4E5mGBxUf5Fi6TE1lG23AR459Xox2cR1zKyQRQhBFLJBrSCh89aq6tmD95vlfs/ZfUnH7Hk7GnbsTpvu7vnbe9g0fakPduRikiUn9U0otYaUmwFEQSbtqpJQ5/q9vgLbgVIUaQc4cG2ZZGR8uucsbnekrWVT03WAMqBYiAFNk1DFkONJ3JHq1K2rqWyQuSh6EpTMWaU7YyuMVlZdwLBGoF8sCcq5MfjwGxrZxrVSdMvBpVMpdwSXTaFjmUB6TqTor4zVkSV+i5ZGV6cG89x5BHaUG1d6dmw0cV3kQXWl6w9NSNzP/qOaaVQkxzDSst6tWlbVdukicit0XDCQAo+s8Hz96A66Q+CY5KYZW23l8bEV2J7KIlkEjDFnUwuEsVFQC467w+shdHOH3Bbi8OnrutPY77M8AsayYfucuxQp2/7yI67QfMPZUFoJBdBoIgVKXN11FB+ohYmMNTpw01S/r4UimjBDeAt8DWZLp2mrJpR39oaUdk+jnvBG8mieoxYmkXhSachfsRmMqUjIGtcZvaR2cuDjOAsXfc6yexXeQOWiiVreAyv6s/u+OKs8u735LbI3ejK6lmVFSKqUhzFxDVxi4WyBKVhQpXaQgyqqFtfOqVi9J/LAFHqu9rLJVS9IFN2wPrrHlVeKiKo1htueVU6Kkf5OFxevys6xVyIvutUaFuRB/GJEuUpcVVQEskkeIekT9PDJ4E4k66jFLouDaHz07GDFcNoj9uAu0JIZLI3FGQdeFbq4D7E09EVV4TFhRqk48QTsq3JxWimLQ3eDWv0WtbQkN+QRdIY9qw+6knBNIprlPd6MKfC21JFTBUppLwkZdDXZ0d6K6tGlkpL5TQkG6EK6cjtGvaxCKAMFLpiHSn5gmSclwKfb7btbNK007IKTiYtO5FM2VPNHXa6scvO13ba+dGMXUinrZPOWJrO2aA7a5XetKololRoVHGwmI+RWDJ/qoOmJX1ZRopj/bZcorZoqClrRlZSo26Dukg1EXlKzkrataYslRm1aLsu2eqBtHG5kDRYkaH9OMbJYmKVP1rCbTY1y/gWl7gKKIlkIhil+cs2Ueh5Fy2PMYlo5LyccHTsZrM6r5StVqP7qluLBVip4M3tuAE8kg+h+EoF8T0flJ/RXESAZURuUmImYIOtIOWQovi28LSh76gHkUQOUr+aCEQUpU8UK6gRb3jHrZARI8XuKgfmHOTqVDqyYjpW661arSv3p9uTUjN3oxwlKPs9+jomj1q9bfXZPVbZv88G1+y33pHD1rvuWhtcf9RG199odu31Vjly1KqHb7Ta/qNW2XfUbOdhqzT2iE/bIj/Vt6uy5e6lKyqPuSJVUR6QWzyWiizYu0IYttzF64tou2q7vsTBruEfVlddJFcdiAjTZRGzXCJJyPwMlpiTNmSivwjah7bz/Sn65H5h9fB5qbVZ4kpQTrYWIDQJJrFGNPfp1UnpiQ4RgJvMY8sBX1tk4Ka4lH7NL3eXSOH8KTv3J79tK3/6mzZ16kFZER2RCOMjHZ+I+qYkWCnkE95nisqgzJ6T8uVakAnTH4VBmUg7kLXhKyhOOrygWUrp1gs8AAmSv4/TLo9bOorEDlnSsTBT7bM3I7GeyK2j+g6lwPU68yciOVkftak5S6ZmbTg7ozBrzb07zKZbNmi1XZ4aD9Ep0G4jWTNsPhstLei7MuffwooNF09bvbdkw6UL1r1wzobdJbl0IhJnNgWhWRMpMiGMzBK9L3NlUGO+RNdlgdBmWEstWV815b063bAztz7Hdn7pW2zXc95o1fZuVYZ3pVBb6qdDZmfHuHhv3DYct284dqIfXy+xdZREUoDYJHyGzhWJBMVUB9X5MHfCJYhGRjPXLyESLopw5k+LSH7LVv/k1232xGflevStxx4L9y+kGsTTv+C6aISsQlK8bFlEQnm65nmKOJhSkJbpLCY70aEbFAXVCysnWDz+9jDSjfNkE6uu6BTEyEis8pRZK5UMAx7fb9qKZDolV2Vl1z5LmvtFFjutPjdrjUMHbMf+w/q+0wwikRvD5GZDroZPnMqa8uXpAe3iQrmsCADXDmV1sHt3JAui0u/a4PwZO3v8Mbtw5rh1zzxplXNPmS2dtPbKou0Sye5gAga5yUa1Gkjb/VD1gkh8JUtZDuSm8ZoDm9thjZtvtalXfKklz7/TKtOygryugZA8ozGy9ybe2/i9JJLtoSSSAoQmoYOheHTG2AnpeIyeEIk6q2t26IDhekgXOqjiEefCvJ370B/a4Pd/2aaOfUoKnFraYJ8Fy7eMnoyM0cJQcoZwJlVlYWCcQBYohJv+ZOkyBSIZ+hwL6WQPKF/cGVZdUsmMGrFBDOuFXagD5eej8FjWhkb+2qpZfdS2/tSMdffss86B62x49BbrH7nepkQatWbbZvbst/bsDqs1mpJXhOFWE7MmzFdICNrHZaR1AtyoigfAhaUyI+uLTDqyVlYWTopkn7DuiYescvIBa546Zs2nHrfGqSUbpKzYqBlkTfgKS43yVD/qr0ZQy6jezWDF9fo2mG5a5UWvsfYXv9naN7zcnzTGfvFJ50sEuYjsVvqSSLaPkkgKEJqEEXZMJK4ogVDitbhS47MWus4ehEgyTiSoLcfLy3b2439i9ru/aK2HPixuGVqtLvvBJ1nllqDcihZeBUAQkfhkK0MzuQEpRMqWdUiAc6iSp3Qi8dUYyYWlwnyLS6h4nqPSxHkZZO30R9Zl/wkWxfQem951wKYOX2fV62+w+oHrrXX4BhvulRvDb9mgYMqPZ34CVSQ6Fywp2oVt9tQ1KmCMFY6QEzqLR7Sa2kSEB8Gysawy6sgFOmv90ydsqNA/fsxWH3tI5HLcavM8/ctqF/tiZG2pTWj68DAgcz4iD8nQVHsuD7oiwv1WfdmdtveVX2HJTa+wQWNKJBnINzDbRWCv+Bb78TEoiWR7KImkABeJJJCC/pM6XE4k/jCaQJzLiETxeD5l0F2y5Xs+ZKPffKc1PvNedEhEgiLVnEiYZMVXr2v0DJu5ApEMarzTTCVRtuImaV1kAkmQgZSKpWcvnnSch0Zwc5SKeRB9DnyjGa9HHMmlEmkN6rY6atnK3F5bvfYaqz7nBda66Rbbf91NVpvZKeVsSLaGPkU+Xl2sGv7nK9J47fyTs6G++iaFps7hL2CtW+kEZ709FD8846JjtZfJImP2ppKyEjP0H+U6f/ZhW7z3YzZ8+LNWO3GfzZw8ZTvPz7t71msFV4f6JkwyS6b2UNZbf2AdlbO4b8baL/8qa77hr1rrumvVNCylI8RY9rFMbGyjdf1xgPH1akkk20Lth4Xx9xKXAVJAoy4qz0XwXSqCAq0FnfHOSGA8ptPLsriwbMmjKMaDGgl7Pj3io+rY2iG6Wxuulz5e6hwkoHhePvtDasZmM7Za0PfDZCnpOIZIlB6l9LTkoAtYK+QmJU0HrHzMmO29xpq3P99mXvYq2/HiO23nDbdYMrvTV2RqSUPxmQjG+tGnT04od68TboKUjRUiiGPt7+J36hKPkRG9hX+olh/rz+P5/9HtCPVjVcmaLZvaPWsz+3dZ/eAumxu2nWRGvVXrDtmaL+KVwpMOmViV4tWR1BUPr9vv2PzCklX23Ggz+45atcUPhFJyAHJA1kGKUFMkIA47fUsiuXKURDIRoVMFIskjXlN3HHe+iwQSAyOwGlijcL0v9X78PhseU+DJX7GBK7+vCCmu0voDaz5iKkASYohIJMyT1DUk++SprsdH+HlIjW3hKHx4RiU888LEJJO2oirFr9qK3KLTbVkgt7/Ypl/1Jmvf+QU29byXWLJrr1WTsDoTrIMgy9qHf9V/ykMFSA5UMMjIWUiC6/yhkt4eOg/WLBJ9+PfxYYxPnrRt/s33vAS63pq19q6Dlhy+yer7jlhf38+y6/ZC39pdWRLKqyZa8IlX1Z15G0hqWJfbJutkZeUpa+2Ys+peuTsJ73IJQATqhKzuTo7rSsjeyxJbR0kkG2C9zhU7XzZOVCA+UK9ape5zKenxB6z7yL2yz1NL0EvFGUIe/Cl9+G1czktJUVr1dNwLJk5Rm2RMJJzDvGeiNTCN1EL5Y4lAIjV+H4YkOlcd9axbadpweq/ZzS+w5itebtMvfqU1Dt9io9aUktZVGvM0JAj1CdbHRQSXRILJPWInLcO6TzKHf6Ei4zr48RieTn/+bE0W5E+9x+XE9uKYU5zlAcVeTdZIe6dV9x22/sHrbKTvo77qd+6CNeQuMr/CvFDF35SvdlajjpK+PuXSrfbUxhVr7Tliwx17vZnI14OXAxHjQtLW8dxFmUpsHSWRbAA6V7azR2Q7H9fjtTBXMj72UxrtWdJ98klbfPIpq/Tmw+Sh/tjHgVHCd7c2IAXYBJUcuy6BMIJrQ7yh8uKRf+ZSyJ4f9q7WXGWdYEymP9ZMJ63Zal/5tY/4sujcq19vu17wfH+HR6U2LamgOS9ZuWDNSGbKXQtAV8f1Ar4EywoKbgDB60jwiyHSGN5m+uftM77Gd8qkjWK+a9fxTWg7fSAJ8uGyjBJZYzNt27ljp802p/xF0wuLyzZ/Yd4q9ZrVqzwewPyQyFppOyr3giwzVnOS2Smb2nezDdoi4TgHpX9MbbEcHurL/4FAo0wlto6SSDZAtnPlO1o8jsRx2XUFd1FEFsnignVPPWajhZNW6/EiY5GBlKTCI6gCpjbq7MpKwjGR9P2gZrwCwIGl4pvPggVCfAiko5GYpd+BiCSVy9Mfzdj5nUds+iWvs7lXvtFat7/UarMHRQBT0leVi5IrOwIjO1+gI13xT07wdwl0GqUnlgr2WB48IzLgiO/UJUJKqtOUF9+QFqLrcy0P/ekkb2DzsokgeDpahbZoqm0O7LTu4X02PzVrnZW+jVZWrTnquhvHlpghq2BKu6ffsfbyBasPBta95iar7dynshIVlIbyFIffzoHUwj0riWS7CDZtiUJs1LEgkKw1kgXnUHL2fAyqDfXu/dY8cNCGiVwKdsMSR90aReH3eYPqZdTPtdO/+Ec81LfxOcVlr4ksEycUVnukKJ3RwN+HWmntsF23PdfmXv5Sa1x/o9VbM5bKlWHvhSvTWHYsGc9z7K4Azuu/cDCGK58IiLP+PZwO0IE/nTuGJ9V/jPyITVv4Ujnx1v7CeU81zo/4vKUNdXcZuBQKVh3Zor/Ddl77HDt656vtuhe9wlq7DroF0q/25AqRrmYNES7vJal0O7Zy4lE788jdtrqwpHz7ykeExJyMy+J0WOIqobRIChBI4PJuVnRurcPnroXzhDAKM9qmFzo2/9RTsr/PWUvH+Ol0cH+hM6sSIhyWNHEzSJtqSPYNZ1IQ3iAGKbEnxN0a5kI8dx0PeFCPDVhNWx3MWXd6v7Vufq5Nv/ZLrHnT86y7a79vdXcRJRd/KBNWjZOdTsMOjNIos2+C88h+xb+Pv+l7GHvIg/PouV9U8HhraYmjc/wHOIWb5nHDdRDjUgK7bZkrcrfL83Gbwf948HBYYWm6bbXpHdac2SHua9rKmTPyYpZFJlOKA7GSp9pLBfMcz3ynZY39M9Y8JJfO7wXtyNwV9fCcx2WFUOLKUFok62CjjhVJBPA9GwLUvPqKid6Y3WF2+KCN9svMrrOZSh0XvZKxMkpSWSoiE5GG70qls0vpcEFc95SBu0B8R6cI+i4vxhK5RzWFxrBhM6vT1kj2WOPa54lEvsKmnvsKG+44oIgiEURiRJbV4u9Z8Y1dHBN0UZ9EghiCZRBC0EzKjMo9/q6TSukBCyJ+92IUAFM5rPQ4YbnsfA9X19pJgbxiYPObouobfwGB6hL9zwK0aKYm0rjuOTb1mtdY45Uvs3Rur4haqZottSWTx6SvWk8u5PSxx616//02PH9C57G+BBEWL9geyvW5WEqJ7YB7VuIZQEXm9szeQ7bj0BGr19uudBV1el4lCJkkLY24vuNVcSER9kvoOiRRE8lUarJCpJlVkQ4rE/W6Rt1ESlUdWoNH7estW57dbbWju23Xi+6w9u3PMZudskTpeEWAsnFgwfhqh8tEgBz0xS0fHYtJ2FqvIv1dHyi3/8V440+XUdfhN5auCVgSIRcwPla+kEjIfqzIY8QNbYFMgiwRfAtH5Bm6aZCTduj7RGvj4LW29wveYLtf/lpLdu/23cJD2gQ3S3FZyeml89Y99qDCw9aX5cY8lOesf5Hws+WWuDKEO1RiU8DPJ9ABGbU9cH4cQrcsxoB3aey9xnbe8WIpwI3GG8S6kAQ7zFBX7kRS91Wa8Bu8BOWo84k0FuuD1Rlcnxray0Y3nklJVfaobedl6p88KvP9zjdY/cWvsNHsfpn2DZFCSwrN+1qrUna2YGlk59fv2IOiKxTs6s+nAhaBb4mfECAHpn2dkPSpUwoiJh1gffDHzEf4QXKVxwa2UV0xw/tQSMCbygayivxPn6y4RGuhqMxsiPC5paaIcv+LrPmGb7L6677ERjMzVu92rcX7GfmVP33uqJ235qlP2OjhD5qtLiqPmqVq9wqEo09euuRPRXv5MZTYKugLJTZE6GBh8jScKQZUMlaIMavQ+SEe32zGG72OXO+/MNdvtaVkPG8SIvJqAvpzhR2eJEYp+XTXg7kR5UvZuozisezLNqxEf/1h3ZardZu6/gar3XazJUzqVpsujecuxvMs9RXaSFwpufWRRMYX1+CpHNEFiaN3vEY6d72cgJBEn7JKwh/5Knf9FwJxx5+eWnX1Lf5ys/SZihQH1H+tjA0Ag6sEXMBhe9bs2ltsz0teYztuvE3WXdNWxVepLBZkHVWWLV05a51TT1jnzCnJ2PcldASKvzlM9UtsD+Vk64aInr/Ah/ow3RhE/YNcwjlGY4hEBIGpwLFfoLuijDpoaKRUlMVzp23l/DlrjLruQvC0fSo/nxeBNUQSEMywKmVjXVjq578xI8Xx7fVSPjZtobwo42J1xhavvdGmXnan7brhuXKTdlt9yBvXgtz+vwr195YgwxhhhOcqdeQbn7AZ9eCaq5l/hkAMuQcjlq8lW2/JKr1Fq66etcriSbPzj5vNP2GV+WM2Wjiu70/p/CmzBV1bPmu2ctqstyArakUk2HciZAJZlVFNEicllxFpkC2Ifyk4DeGIocJ7WHjBk6Rs7RA3JLaYdq07f9pqcmMSSFhJeCZqtTplw/1HbVpW4ajBxFSoG+6Zw29itr4ltgL1180OA89O8GxM2J057tj68HebjsdWEK0ONylQRCeTcYdkxxkqo+vj5DZYOWnHP/geG77nl2zfyc/aVLpkS0nT/Ffr1Pmne/yeLi9h7lu/xogtd2I0pZuFW6J8qqz0IIHK6i3bwuxRW3rNN9rBN7zFZvcckHy4E+iK5II7iFftqHCUtqXruBo6RHl0FWJgqznfXXbExgWS3NGGgH9Q3Jot2UBlGm85Oy9yOHvGku55qyydsMHpE74RrDJQkPvVH1SsPbXTupKnOtWSu6H8GjUb7p6zlep+q+8+YAk7T+vT1mzsUJq22qGiusvSQpRx18y6NAEiCIiEOlIlVZYH8Rqdnp381B/b8A9/3qYe/qScqY7ykRzDga1OH7T09V9hB177TU4o7DmhjXlREnVjzgdyurysEptBSSQFcKVX7/KOavzqnY9dUjjcmzBquTk/bro1hfQdq2wWkyKRXmrHvACfF7snar1s/ccesMof/4qNPvjr1uov2opM8r6upMOhNbuiHuU5SAYKIoEhrlFTQWRCRsqfVZdKrW49kdfg+uda9Yv+iu18/pdZoy5LRWU7kUhmr4ssGJkNSkhecqmY3SUbz4zsRSTI7QSo804esoBEJm7JSCZeKTBMV605f9JWzjxlCwqdk09Z//hTtnr6MdvdWLXREsvaoh/J25cAFd6EL0tqtd8XkTCjLALTv2WVM6hfY8neA7bruhusve+oze6/Vsf7zVpy1eA93rimv9DWtGWAV1/HyBOB68dSOXtI0rPHrPvbb7fhh/7AahfOW5KsSJbUFlp7bHD7C23PG7/ekpteJUKbFdHoHor4IBB+92Jtt26JLaMkkgLQJH0UR92Xh8NQK+/M49WA0LmDkkaE69KAoMEex9WS837EOeLzRg0pUvcxS/709yx9909Jx5elWLxWgDLl2gw0ghMTF6aGJaEjuSr8XASTrLUKroU8hXTKOrNHrP2KV9rsF36dNffcEeJQnotBiZTJKZZ7OYmFhPxBovAZXnpEmpCKK4zQfEIyXUuPP2L1xz5mo0fv9R/4Wl5YsHSZXwgc2vLigk2zouSkK4UWwa1UpmyQJiIfuRgqkvz5fRuUd9CFBKtWa+pobsbSXUestmO/zR06YtWjN1pl382WzhyRCxJe5ejL4RIqtje0PK6Vw1/poLx9YpffUL7vA7bwJ39ki5/9hLXTB2xKcZb6LVs+cNCmv/SrbddL3yrC2m0JeYu1/PdsCCqjJJIrQzlHksW4d2Lq9t1N4YRUSp2LaTkQKSF2uEt4WKfCeTqlOvs4hJjkKyXFOlAafqKz+sinLH3gE7JCBlb152cEz15k4HF1UNW1KtYPjkxQxnqVd51ybdbsmtus/dKXWfvITVLOOaULu2aROZTnonBGXyARaoWVEs/xj/0r/E8tpVyuVFJ0nqodLFn3ybus/4k/ttqnPmijez5mg6cet+ryBauuLFldbs5M0lOqZRHGIJAGb3NOsaASDfSyzmQR8BBdIqKdlnUyM+zatNpheiTTa/WcLZ973BafuN+qCydtIHdpdaXjL1+qTM1ZXa6OJJKsksWtJqw+5AztSqA+/koARYN0etMzOpJ1cv5xqy2f9YlpfhyjWq9a68hhaxy4TUSyk9ugulJViEr5hYYqcQVQM5YoQtiiri6rT//BbeeL0G1BlkAufide6IxjWihEVYpkZ6Q0Z8/YYABRoAB0aI2O6sz88h0b05gHoXMzR8MLgciVvo7d0tOX5dq0jfbdZPVDN4s/+IGrsWuitERkWTNN5QaRVum4GkSVtvucSECQmfiM6lJ4og/mJeN9ln72Q7bwh79j5z/0flt4/Jgt6dpKLbGB4tZETPrqctckM1OmbGXnlQcNWSct1bM17Fh72LeWLJPWkHfRinSYq5FMw5RVK+af2yKMtvVW+9Z56GGb/8B77MIf/rIN7v4NG524399HElxMCDIQZRbsUoVWvBoirHZrrzUP3mD7j77A6lMHrDOsykXEa+pY/dxJG62cI3b483a5eC9LXBlKiySLoE/q5PGLiMQ7KVDnx5oQUO4wNxk6b+yG4TtdNHM8JhkfP33IlF0hpeo8+qAtf/r9GoWPuzOy9v4RKSPvG/UVTo3wvgFrzDQoru9yxTaRXKv7X2Tpba+0uee+UKPtlJ/zkVryoXTSVC/fyUgKJhpyokB0rq8pk44Z5/3NYyOVyeTo4/da71PvsvT9v2K1Bz9pM0siPZHSQITF+1KRNZHbk1T4CQxS65PyeY5I+VRlifC7OVWue77sUZGbJMKhrjzF26/xUxxYKiNrSQheezBKl63WfcpqC/fZ9BOy2M6dUEFdG9ZbVsUd4cfDfO/NuA76L9bBa0QTwzXNKUnVtOETd1uve0JpTC6OyI7y9z/ff3ydOSaW1bktkC95lbgyXByWSmQgdVafClOkjOOMWfoLvVUdLoz8RAodUM047oSxSwfE7k2P939BsVcH1j97znpLq5bK3OYFJb4iMu7MlMZzOOwXCdaIFID045dCk1NSr1t1ZsZ2HzkiEplVzIbyxvxHmZA1yIiFgxxx5YkjTvEJAtFBX/zPVjEp+bknbfG+u+3Mx//Yzj18n/XkHox4XF8EMMQ6472HYhLaQY6E8sJaCnmTy0gWQM2vqSY+AY1cKC0EWbEBE9Vs0NN3LAxlq7zJQ8QkK6bND2B1L8jNedjO3/NxO/7H77Xlz95vw5UVldT1OOR9sRYRfpdUV+XXblvtwH6bue5WS1p7rLewaP2lZX2etsGFeZUZ2iNuoiuxPZREMgnsk8CHH8k1YHKTlRjvuAoaXRnXOXalHAf+i+oEcI88lk6tzbPgDmh0r1x4wtLVJy2VTvaYfsXUV5nMl7BBC3fB8/LhVclwHUQkA7kHvd7Qluo7rX3DC2x44EaplJQUEnElVxInEpQjbKLzbBRc9ZBxHFyBdB25aiKoVu+EVZ+UlfThn7Hh3b9rjaeO2XQiF6Yp5WyIwPyX+U5Yvfqk1WrnRILz1kmknMhVa8jKqCvUrCsLakWhI4ujmyT+sxEDBZa3e6rHQPHTilyVpO8Tyj35UinzK2oHfq6jrnaYEnN2VM/G6jmrHr/L+h/6JRt96Jet9sSHzDrzEhvK85a5GKiLPlSU8ROf1V1z1rvpOVbZf6MlMy2rpR2lXTZ+bN1WOpbwGzrKxAnN8ypxpSjbrwBhNA+ThOH1heqgjMDqdIyeNBt2A6MiE4FY2hdDQad0pZUi6zo7MdLV07Zy4RGr9jsy5aVYypjnZniTeVVaMN1OrNHQSD2eyoAE3M1h0rLZ9JUO27nHGvsO2NzO/VIe2U5YRbhACjzfEhFJJQRsHJHC+FqY00CZVJv+aRudf8zsk++y7kd/1arHPmo7BqnVsSwaJhkHVpNVMl0f2myjYzP1ZWuKXNtKX0/DLttKs26VhvIUQay06yKTiq2K+M73TlonPWvLIhGWWZu4Z8pnVBWFKs8Be+dklTVEIGzGiytle6szagvKeNxWjn/Izn74v1v3Y++y3lMP2aoalHpQJ1o3WCgCVfe6iqxklQxFtsnRW6w5u9daTZHyQO7T6hmr9flBde6p2ksmjBOv39sSV4JyjmQCvE/RIV1F6NbqoZjk+h5cmdBnQ0w6sY7ojDr2DWB+Hkcj/PGPuYTaQP7+ox+y9KGPWXX5vEZPLA30X7FQMNLpnFOOzkEsEIqv1uhsjzkCXkF4+DabuuP1Vtt7DRtDlSZIg+Xj5QmB0gi87IicZXlAiIjKf/zTZ1XKni6dsOEjH7XFe95n6SlZHCqft5NBZO7CsHdF3/mtYjkgGvHbUtRZW5k+bL3d1wfL6NDNlh641kYHrrP2Hl6+vM8qUwetuXu/DVtiC+kxLozL4YVDKGIpn7FFZtVbZDMU2agxxuV7i6gtauKArvUuKM5wylozu3yTW3gxlBoISM4QO5AK7QA51wZDS5bPWHX+MZ+bqR58nlWvucUqs3M+OBDPyVhllbgylPtIChAsEsZuqEAd2glFR4xeKJ5C7LAel95I5x2ni3s1nEbcWvDxWn89qyyftd77f9r6H/5NWzp/OpCErgaKEtFodET12a3p2+RrGuX1WZXLw7XlStu609fa9Iu/yGZe+5cs3Xud8kc2RlWVCvkoPeJVcHXIQ/rRUxxq1BgTCXWgDGyrSuecjR78Qxt86J2W3v9BS3vKAfNKDDccShFTlne71pesK8kOuScK00csPfpis4M3Wnv3QZvascfqDfa5iCgkZ0MpRitdS+VC9PonbUlKXHvqMRs88VkbdE7YgXTZKj1ZZElL+dFcUvqhFJ7mpH055uc/RQ7+siO1Pc3bT3eYHbjB2q/6Qqu84PUiqWvUWBACafgtINWZ9hiDuaHaGblh7/9fNvzwT9t8r29TL/pWG776q6199HZJyS5gCZCwAY+/ElcC73MlLkWcQPVxE+uD7uV9MxCFb4ByxaXb6QK/raIwYj5FJrXHQwdIIpA0TJqKLlJ11nNPWW3plNWTVPnrojo+28X6rtwcsuGsIx2SeZ6SN5kEYmLFIm3utMHuQ3Il2n4D41jgT+1ipisAVkcYrKkCT+Y0FC9MkDJyQyuQi8o4d9L6j3zazj95Sspt1kSa6sBWMSKavK5AaevKW+5Vc65tyXOea7OveaPNvvR1tuulb7JdL3itzdz0fGseuc1a1z7Xpo8+1+r63rzpJdZ+4Yus/YKX2a6Xv87ar3uTzb78Dbb/6G2WTM9ZXWX4BK8EpG48gshv87BnxttXbeE/rs5mNwkGt6XponVOPmGduz9s/fs+brY0UBzuFe2NO6p2k/wx+I+n79oha+mIDWdbjAW20FeZIjifB1N7EELrlrhSlK7NOmBURN34N/7Pz9FlY6djj4bH0uWKnA8CPzNBQGVRhuBGqLMrUnX5lKX3/rZV5Of7ioErAaOoMtN3plZrIiTmaGqjug1kkahQLwOs1KXme+6w6ee9wn8Zz59fWfsLCDIiW5AZwCmhJGQJcYYqp7563oaf+WNb+sSvWXXxlE92YqnwkiV+4gIW61R2qtzDNjosC+T2N1n9ttfZ1K132oxcmampndas8JoC4o/LiWXxRe3Az302m7M2M7ffGvuP2GDnEevMXmOd1n5b6aq9Olg8ik8GrtQDq0sOh9KzQa8iy4hq8Y4Rl707b6Nux9qzcnFmpmwoi2LEG9T8lQXUEorFxuN81erdM7bK3Mo5uYZz+6x9+JC19hxSFKUhtgiHVCWuDLR2iUJkO5U6uB+Pz6mze1ibCwkIDgrPiPBaQLa8M0am1pVl0ZeVgGLyq/y2cl76uSKiwCIZp1dcOn9wihhNUSiVp3x42RFkROAdH8bv0ew6ILcApQnWRZQ2kkiE6ybB8yK4eeOWDw+s2bkTlj7yMRHbp63e5xftqtaHnERCzb7iSqGXa7vtwv6XWe/O77T2q99mc8/5Wktmn2OJCIb3nAAnTH3ihgykuE6i/Pn3llpht1yYA9bf8Rxr3foVNvv6v2nDL/heS2/9Squ0Dku6tovHLwwOZX1Uhl2lFZlQ7xSXiRlZEUm1Z83qkjWXT1vyyIft9F2/YsunP6Yy533+qC+nyl8C7TZYeA8LK0mV/QdsuO9W1W3W5s+ds76IxSqryp72oALho8SVoSSSzUCdGQWVTug7PU4K4suPIhJ17mB5iECYrGPVBI3wnkknZWVE/0sphjK7RytPaARekMLws5xkTRoF/atVQp6BUqQIKjCtqSyVmyQNxZGbUd1p1alpG9X5PRdZOLCM30bcFsq9FMEiCiFwFuqt73KZhoNlO/Pk47Zw6glrtaeszqqLyguvSEysqzJSkUj1muts5lUvtT033mLtnRK6MfS3tPkmOpcdKgvtEpqHdlGQWLgjPEcMOTLJwY+l8wNh1UZi+w7ebAdf8hqbufMLrXrgWn8xtvFAYZWyZdEpb29nrKSq2q7KUrzKqKZKL6esd85SWRnLdz9qtnxexDx2VSQCROmf+o+duqZ6JAePWmfqZreeVld4rVJo7dB+fJa4UtCCJXII8x8atcdvQ7scGMN0PcxhTG5Gv+DKQAUs5wLO1q1nU9Vla/Wfsurpj1t64m55LVIK5VuXorBdnD0cDeYBpBw8ZsNb0iCmqpRplLDvYhSe8pXC1ppNq89OKa4i6jhKQiiW9SIgE+Yj+LkKdpHWzj5s1cfeb5UzD1sqC0lOjI1qsgSmRtZvzdhqZb/1D77YZl/6ZbbzpldbXZbQcLxz1fPTH2pLiG4Tiyh1FwM2ov2wlnRd5WJv0V6kZznd2tLwmw7b9GveZM1Xvdma17/KBqMp6wynrJLMiZPVBvwGcm3B6i2Wa3mcIBARb5bjOZza2WNWf/yPrPfgB+QOrVpDhE1ruAT6Avkw8WutHTba9wIbHTpgT66KqOROOeHxnpdSDbaNsgUnIJIJnICZ7yrLd11DYTTE6Yuaz314rIeg1EyqpiIHHs7DuK9jlCwvWufYA9a55wM2fOheS1eWfc8FCpGoMysHDJkw0uKt1MhPLo3IhXeTxh/2rtRVRl1KKBJh5EWSQCSTgEbHEIEyi1AGHes9db8lJz9jTVvxKCgUf7y6oC+roLrrWms/505r3PRSq84dFqE1fPUEjhDLqj3kgunTp0J0KnzqmxrK93W4jAqxHdVGxHOpvY3YYi/3Y+Zam7njtVa/9RXW2neDDJIZuSM8+YtEyovXwbOPBUuGc8oE2q7LKmqunrPpCw9Y5eRDNlA7OzmM4XyODCpfDa76XGfD3Qetvn+P2lStLteOZV9d9PglrhwlkUyAd/q1jk+g84eRF2XjJK6HT6T6OX/+lL6vT7aNX9DoLD988UHr3fce6931e7Zw9wfs7BMP20p/1dKpOZGDSMJTs8mcHa3j3a3q97z8OUzYShWlQJjhkEZFLsHU3KxPOirCWLo80CBS8hkDx8oX1wJLobNsAylf5cJZ33FaT6YVjbkIjd/S24GyHxw8aKPrb7Xajj2+34XywpwOIznWhr76sYIOwhZ42oR9IVguYyXVZW+1GNdBfmo13uQ2bFtvetqSG2+3ym2vsdHcEVuUHF3lycpYTQQ2RKCh2sNXpHQ3xLy1el2WiizA7rJ1H7vfVh79hA17i16WB0Vlwx0b33Bipqeaduj2m+3oi19os4evl7uoOgtRohJXjpJIJiB2rvgZSAVFIgQTnRGYCCiU7ydRp+fp14Q3cy2dtN6jH7Hux3/eeu9/h9U+9ZvWOnOftWzRElkjK2nVugosd7LE7Bu1eDiNJeEEAvFH86QEuEoyw6WXLCwnM1M2aspiQa/QUckTraeLrg3f3clSPrw5nWVpZOQ6FoTSrMybybVpr56VRdJ3N466uZJ2RQYzB6x36FarH7xNRhd7R0RsuCnU0yWR1SIC4ilk5e6lUBql8pvG7OB1S02f2Ga4e06G+sSaYjI6rTR0vqG8Wzq3xyr777DqC15j1ee91pr7rrHarllxm8itRvuE1ReIaiCLrSMXa1BpWV3WWq27aLUzn7H0wd+34dnPeF0IgfBE0XJ5fFm+OW17bn6RHX7hG2znDS+0NJmVrJBOie2iJJI8UEg+UAj/4xvKqpMogUfhDCrnB+qu4w7LqC2fvrY8b+mxz9j8J/7U5u/5qHXOnLBKb8VaKVvOpWqKJ/fePSMmFMNDb8oTdiBUeJs8VsHYClJcLJSabxBTFClfReo/liDzGcExt5b8xvMSToAhHnLWR11rrM7bIF0iw+AyqAzmbqtsVz9w2Pbf8QqrTu9TeqZLyQ/lhEzUHjr2dhmfDfkHeSkmqCfWib7pHPUDSqq45IW1ggsnohBJ1fW9ZlNWP3zAms+52RpH9omoZtUGWDfKwy0QkbeS9vqiLZFUJx34ithQWQzZ9XryCVs9+ZTVB/Muk29/d1cHlxNyS1S/plypfSKoHTor99LlDe1S4srBHS0RMe7vEAXdz2f0nViCorsWBH0Ih/7B1aA8LOfWlk9Z5eE/sP7H/o/VH3uv1S8c0wi6Yp0pjdj1gYhE3Vfx6sbTtBrLm6IhlhXU8xNpxGjQlO4PNJjLcvAVFB5i6ynuqu8kT1r7rdo4YjVZCex9CILkFYFj3Vp3LSCSsG6CwkBGvdGqdVfPWyXlWZdQC6wgLItUJJLO7bf2oefYzN7bpWhMRmLFKI6ue2xlTwms7jC5GmhBstIG40B7BLsk5O9zFWuEAs1Abwoyq2o6P/JVLJVjB23u0POtffSF1mvsswsp+4HVwqoKrh8EnKgOU62GuFtWBu+6xSoh7cIxa5y81+zCYyJiCJvBgGVjWTxqA8inImJiB77PzYhosAmhxBLbQ0kkE0H3oqujRDLK1YndGhj3OUa4uIMUpWHkbchX7z30GRt87Hes9egfW335YbkrizK/RQzodAOVZoepFAJHgJc769qgqZG2JsUYJiIHjf24NzrPG8eaFQWVz5vGBvWe9ZptG0ztNuPX+sZlM8AHl4szAfHY3xHCp5TPr6O0lb51ektu8td4GFDljSAQaRjuytKevTbae8hWa9NreaL4TEziuPnqi/KFgwi8rT082Ej2F2XAykFH2a9a43UCtCHEHAPulH8fu0Sq+3A0bQORZXLgZqvuu9aqO/aq3WrWVVq1gIhPeTUgiJ612rwXhfJERrWuzdl5Gz3yYVs5/5il6Yp1JVBqDXehhjx56C5paJfww120iRqP7+N6lrgylESSBX0JRVanQinQ/aB8XNQJdd+oBG5C6DzfcEfq8tMHj3zcFj/229Y98aCtagRm6bYmcgjzIBrR1drMgfBAiYpRWbgSUh5GTn33t7/rGu8zdQ9Hwz0jcCADzHrlWVkJFoqKD7cvKOJFuS7CFWYc4nUCP1gFSfqv9kEIIRvFq8vtmbPp/Uesue+QLCCefg7Vd3tEcSghcEXIl3r4J1ckE2IRl+t86lKIP1ZWV2XaYpzOo1K2EjJ345vvaJOpQ9Y4dJMNZ+dkiYhISeumhOLqY5DySgNZeLyXhRUmipCFxU9e1JcuiBvl76g0X+3i2rggLxMEAUJmnrrEdlC24ASEzscnCoGBzqerkQeUg28oUGOwavbkB6x7789Z/fQvaaQNO0RR/qnmnM1Y22qplF2jsjx560trKrLVeeNZXaa97ylTPvTpmvwXZmYUwYVAESjLX1CsU2kfEtH1MSmsB5RmTXHGCO9IkSuQtJ2Y/Nkbym3gCog661Lcplyn5gG5PijjGM4GtAEI37P5D5UXr5FdFQOvynpIx9aaIug/KuiOjMfnCLL2N7/pssfwBkUyXI3EGtOHbfrArdaY2WsNWV9MltZ51UJd8VRWlXV1WWs0CkXwvhYeFBpZxy6cOWuV1aEsP+VEdK4rZpSe+zh5j1CJKwH3tEQBXI/X+lnohuErJwOlsLnLH8GfP27zj99tg2P32FS3L51ZVsvKFO8Nrb8sBe1JAUbMU4QRMXZg/secx/KJvZ2csUD4pq7uroBURJ9SVB4OFFyaMdcQMyp0PlyKsdw6LfpwRechw2GF374Y2MpwWSQnopO10qvLpdFIn7BaNE5JoUjKcizikz+jPH8eR/m5ezKW2S2fsQjhCeixXPxBWP4Z2oJU4WFCWWDKvyI6GTV2W2PXTdaaOWSjwTiuiIO1n/BCbNLIumPHMBOuvKZRoTdYttXzsg55cZHPgUQ5wtK9Ewh113cvm8qU2DZKIpmA8MAZnXU8ikIauB5SJro8VgMTppXBE1Y99jtW/ez7FH3Z0zHq9/psL8c3F9FU55UjcxHKK6kb79YYMUup/FkWhRB4d+hQaVGqviyXwdhdUYHjIDWQWd8YnrOkc1bKgJJjmWD5BEVbU8zLAuodF2mpU5holPZZ0qw6qVTrbWvxzpBR0ydAMRZ02pWXT58TQtmpn+TJlhkg4ZR3TeUlXicRCw/ewVyorZOH1NqJSBleAgiBAMUR9JXosyKTnfttup5Yv8msEutjqovyZ78NVsrQH+6T/EyiyvVppn1LBwu2uPSEdeXq+IOSCkwAgyDvmAL9O+0sClTgewgltoqSSCaCzh46FZ2O/wFK4N1Pn51Rx5Yff5+t3Pduq57/iNU7T/ozLJVhw6rJtNUb01LQ1JJGTZ9SoJo6LZaHAn0YhWBylf0gZFpRb0e/fQJEn8GtCfGD8iBPar3eeSlQBylcT7N6mSWQi9CxSASzH+VriJTqjZbVWi3rSRF90hGyQfFkSSXDlqwAxa+dD3m5rOOsxoj5hw9aCIeEaVgprZ9DObEgUNAxlIfvffEWHOehr94Wnibk6TH42po1m9tpi80wURruBqkhAgiUeSMFtRvHTrb6SFcvWH+FnwYdky3txCsZRNBhf0kkEcoVtXq7ltgOSiIpBL2YzhU7Np2W0XSsAvR6Li0u2urD91jvzGlLmAPRqDpsiBykpNWEJcl6WIGRKe6WCokZrQnq/HAKHTpJEoW68UYwfoqCZ2wSf9Ui5aIfQUGYV0hFID32SaSyhlCQsSyu8EEbCxCUKWz1V3kyjupOIij6OH+IBnKSO9NPzygvkQ6vXheDIGPYCxLkvaiEsUzVWdcxInBNguOiMrEydA0ri08QYmOV+KG+EeiG+pZjq5Qnd5ttG+7apbYUkUjhkT/IQNsopSyROlbe+C1rnBuszlu1vyJiU7urHA/kTxvoI6RHShWpa16PsXwlrgwlkVyG0PPCy5hRVEbW0Mm84/oxP6t5yoZPfsBap++zxupxa+3QNREILzwetaVM9a4sCmYd2JGJi8OzM1KgurqsWyQEuSoimASSUb8OiiH3R8fcGcxxVlX4RCwmDqe7q1ZZOG3N/lMum1OE4jPS+2iP9TIODvdLuBgOUVZ/8r8+Y5WdL7Zacq1k5ESq733bUXnU6qv3WWX+pCwr3BUULtbfP1xO4AqovP35ItoKWfWHkrL9n0r4y59kZtGE/rOf5AWBeduq3k4eWFzsWsU6C7tXCVyZnp6zZkOWifKCTBCC8mu4iSJAP+dlUE3SQ0sdhUXr8fLuCLlNoR6h3HBPqfdFlzUel9g6ylbbAoLiyMoYVG1wbtE6j3/GRhcetimRhpMO27kVmOPgTfD8ju+wUpeVUVf35U1jLAOr0dXquCr+nTkI5i787WpOCwph2jKUqf8UMQygck5WZLYvnJTpvqSj8ZwBkTxiQByFL4UU0zeoKWc2wrWnrT+3z/pTs/4KxaqsBzbI8U77xvJDNlo8ZaMuxCZhJWewSIIS58GZyzuSzrqfdinIJZ52OT1vrAuII5/30AZ9Jla98n49kJTiEZQ4lSXI8zfeBJxSvHpzqPOrOg6T0w4nrMtRVJ8SW8fld7rERLglkajj9k9bZ/5TdmHh0zYYdK0n07qja4x/6GpPnbg3WLVGkzmQnkhAClqVyg/YlKVOj/pLi3zCkDewM8kol2boP38RyIRVDBSO4CY9x0rHz2NUO/PWX110y4VzbOzK88al6oEK+uyFPl2VLZX1VNlznS3X5kQsDSc0VkJYERmdPmMXnnpEcslFgMTGuaGLSEep4UT4cIytgix8T4gTHCHMlRCNZeKL4IBuqJBTauTl4bwLy6yC6TtsKvNsWJMEcvuwrCA4SDnkQzsOrD1VV9vrInWh3XQpbFwD+TJCnUpsD9zBEpfAe50+GQVZnSFI8aQQjF4D9bxk5VFrPPlbtu/UPVbp9a2fNq07CG9Fgwfq8gjqdVktwyV1bCb8RBAa7cNv1UAQyl8dnMHecx/IQkh7/E6Wn4MgcK34czFcUaRWfn7e0oVHrXvmAVkn866orqwalXlfq8ygQCw65y4HsivwTEtFLhZLP04r9VmrHX6eVffcqTQzNkyZZ9B1WVz1nuKfech65+7TtTMqW2LAYUihCvqStII/y8JFafRQrOEW2Di4TaV2pO2GTHKqPvqCJGonfR03s58hL8nuHl0m+LtT9De3e8rnlAIh6IwIb2XUsT7VGVsmNJyiO/EuL89LLnYJqywL80BYhP7cjzJRFLVRqAMWXfgjVokrBW1a4jKoY64FOmHo8ARcgN7Zk2bHHpRlsiTSSCyptXyLe40dluq83rfVsZn/48fBU1yJRMFf0hMUyP18+fd0/rq/c6QqJZBSSUlQBn95j5jFV3z0HXLBwod4moMls8XTVllZkWDslYg2Q8g3muuoRlA+7BDl77db11EmFVybnbba9QdtuGeHpWI/5jvqYzchWVqw3oN322DpnKfxX8eDQPw6dKB8lV3Yl6EDgZ/mDGqqFOMIlOx/CCLZeYUBm89c5rGcRI6TuVkkuHt9uSj9FaXvKTtopWvVRPHHE9GhNHJmT4zoS0TZbk/pTHB7sFZCzpQFmQSbzA/HKCi6xBYR70OJHMK2dDWPOtxYFXwEw7XALelV5mSdtNU3FafGG859zDM2Xkr1XVGqjLIaEX3rNj8cXpFiiBBQGiZQUQR+u8ZzV97xeRh/DkTX/FkV5eE0oO9MMDbYMduTqb/4uPWXH1EakYrPBUSTgRA0I4604Uh5OcIRx7XGEZs+8lprHnqVdSqH5ZJJ/mTBmtNnzfqfsdVHf8+WHvpNqy3dbfVq+HU78uYt7951lBXyhtUlKsQ/5OVT+fv//Om6p6E9IBIX0usc5AkyRkkjmNiu8UzQ4nld6fgKGE8mM8nsvzyoeldo+0bHKg3J1hR5sPuVDWtp+M1hJzbdG16m7QRI8L8wPHirSPbYOiWuDNzdEhnQ0eJIycclXVsnWBVo7NxhwwM7rTct66TWlcKk1tYoO6W+2dIoSPcNfjtzGzwPIgUVc2BRcOwkAgERx0NQxvA9lMMSDY/1BwWlXDgFApIiiZRWzz5hnXOPiEMgko7kZPOXBHDl1CmR0virg2xDbeJJ5V9tW3P2Fqtf9yob7r3RfzyK34bh1/8SOysC+ZSlx37blh96r6Xnn7IE60OWSVgdGWcjsX2TmhSbeZygnJAJKkwIf36soulwXF8TA0S5swILaTployVI87zyZ4+L4tFMsUyVJY9SbSW3UVbK0PfphOu8JqHKS5rYUSwzEPJD5EgmYSmZ7ALV8VfiysF9LVGAQCaXdi/nBuyNHQctuelOSw681DrVw9YfzchlSfx3fHkUnt+zHcid4Y3qvpMT90MKiEvBrtLg19OROcbaQEFREsWVsmDA+1rOsCerRxaQa6Dywi1CgZoir9E5q519TEp2TLrLqxKZqA0bsBCT+Qq3aCZBmbE9f9Bq2XD3YavfcL1V9++3fmvWBnWN7pJrutqwwcKKnXnwvbbw0G+YdR62xuiC8mfeoaf0UmAmkvkdX1d0AnNBPK3cU+diYRmCURSCyoNEo6VSBFdy5liYhO6cliEx7y5hogyoDwSCbNwfny+RLKlPqjL/pLx1vkXbDpfUZEpfXVV81UelOonoeqCQugqDZKC5EttF+bs2E0FnU2f1UZLRT0eM2KhpVT5481q13n7rDqSM8uHTylnroUSJFDlRx9YIWee1w8O2T2S6hQCBeD4QCIERPOTro7yPpsqfVQknl7BX1NPi/ysuoy4vT+ItbMOulHl62po7r1F5TcUln4bn6YSCwulbkJ1PyhyrzdqFxJJWIqtp1rqd1FZXuv6eD0bxRmXV2r0T1uIxgKV75S48bBVZVzV+BoM9JjKxeN6Fevi+G0nIHAgrU93eE1brPql4Z0Vqc7IaFN1roCLdzUEgBIgYC6T0vqozlCtz9i4bPPZHlsw/SGJdpr1of10mqpOKCNOJhERBrlRuTdJqWk9WXW1qvxMm7qYaUiWEP24Fnw6++/0YH5fYMkoiySHbmehoUml9QzlCB1SP1YW6VZu7bDizX7rUkzFw3H+GcjToWhMS0GgMEdSGDaulIpJRy2p13uqF0pHF2NT3fENJbCKFSCARXh8QJh9ZYYFMkMDXXpxo/PF5EcBgULe0sdPqO6ctaR9QpJ3Kg9go2EUSAa44LJ/qjCsN3xSHV0NCcElLatgaWne0aKP5M1bpnbdmT1ZB2pMVojC8YKuL52zpfGqdReU9mrZGU64HhCflj8/QVAaypBZXbHTqIeucuNsWnxrI6ZIat+ty73iaGPlQan1423IcgeXWkYWRWn143rqPicCe+pDVe48b77Fde9pXf26Z0U7+YmiVrzQ2bOlrywarsgaXZZEMmuKVnVZrH9L9IndVklLG9ffGHzdQSSTbQ0kkE0HPxQhW53LXZNwBY9CJtFmxxrSsjfa0RvGd1um2rL/KMye8/kf+u9wU3tSVjt/FyjM0uDs+DenOPO5MOE4hABFMWLlhn4nS4gaNlY7H9FWwEwn7PXgSuNLXsYbvfv2ANeausUqjLcXmZT+hBopKUuWgeH5GZSkPN7L8DOexE3DFZlUPuWitnUqw21Z7IimWhJNZxa87UXT6IoXFs2bLx6y6/LgNF+6zZOmzshjutcrpT1jl/IetevrDlh5/nw0Vek/da0unF21l1LbWrt3WlNuEsxMV1omR+o1lAZVqV2dWrbL0qPWUJyHtnVHT4aqpwyot9XES4B+EKmIfyU2pjRr+Ex+1mbBNfri0rJp1rLZ3v9kMvw88E8oYl59FvK8lrgwlkUyEujmTgGPEjkYIS4gopTpvsstqs7eo814vJZmzXq9rdY2Gc4OepfUl6yqkTVkidXx0VnZQA6wM5SXCcFVWfhAJ2+jJ2WTR8NJ04kEyTi4QkAgk0SicQCIiGlaEWB5tdus23HHEkplrdEfr1neXYyAiQUkJzhwOSMQtB5WpzP0Tl4R3tg1rc8rjqMjkeuvWZhSkpHLXhisrVu+IIEWIiZ206fQpay0/ZqvnP2Gjpz5glSc/ZPbkR6zy1Adt9OT7/TO98ID1BwtWbzatsvc6m91/k9UbcyJH2lDk5SJdVFyXxz/132DR0nMP2Ooj77fq4mNqnxVZd8wlkVZxRBb8uZXCG9CQPVWdmVeRvImsmqrxcqNF68nNqYjAunuPWq22R6lwE2UxhjvgbRERZSixdZREMhFQRbBIfC6DDrx2ZayM/qcOWZULM9WyVmPKCaMympcSnZbSyEKRz9CX+8D8RS3lfzqw8lWekEaYdzF/VyrPl7BxDdcI8Kh/eI8JhMMWdsgjlO+ayP4SWUvL/YYtS0maOw7JPZmS1cN8ycjTonmM5CEVX6hPCBxSg6BK1EeyV+vWlhvSmk7kLqlOLbVCv2fLHbWHzld58dIotdXVrupYk3sla0lKPOjVbHWlJ0tm1awtikv2W392n7Wvea61j77O2ruuVxkiRepLPSkxFBxkGYOH8CrdU7JwPm5Lj3/YKqtn5b7wbhHFqWGxER/CFd9wD9QGDV/y1QWIf4j7qIwhaZUzEKn2+k3Jc9imdhzUOd7fyqz1xcnoiyR2UY4SW0NFCjG+nSUuBROI6pgKbn24wgVlRBnCiCaMW28g5W+wI3TphC2dv8sGJz5hdvJh63aO2+qFE7az0bHmaDm4GxoR/WXKKT+72XT7pJvIwcDPl2nvv0krUz4ZtjWq4tdLmTUq49bgugwgCPIZrXo+veYOu5C82Hbd8aVWv+X1NmzLzVGutfGb5lEsdpRAehyHEOAjtK7RDaipn2P/xrBnw96y9S4ckwvzqK2cPG2DzmlLpNjphQW5DsuW1FMb1NFsKWea2Or8qg2b01bbtc9mdu+22aPXWWP/88ymjlpam5LtwF4OtuOrTJUXux56z+QpepxU5I6c+gNbuuu/2fTxh63Kj4nVRb2ysHoiDX7jh5VyXDs2x3Ff6szzwDAiG/aPQLpYdVgr/aaskZrI/OAbbddLv8Oqs7eLaNsiWSyc2B7KR4WXRHLlKIlkHYRJRF7sg0Vy0c1h6RQy0XDIgbRASiEl58lXvqd2xmz5Qeueg1DusuqZB2x49hGrDc5YQ+b3QK6O1ftWXd5t7W5bI3vPetN1KYoUmD0R8usTKUR92JIVw484Md+yJOVg2bUlRZCvL6VJRku6smo9WTP95u1Skpda5egX284b3mg2M2NpGpSDcPE2oyzBCkEN+Q5/eTV8Hob9KGG1yC2ZakcXziuvJTt/+pR1zjxute6CRJH10VlQ3qo1r0tQe/T6uy3ZsccGMztses8hm9txQBZMU01C+/A2erWRZPIHAdeggtW+fbmJdbVxqjYafOrnbPn+/2kzC0+ojnUP3frIOo2KSEGGCfKqlZFfd0JtKpdRMrPHhVWjmv/CWCoXT+7YcNXmm7L2pl9tM7d9s03f8hU2THaoPWT5OHGMBwSfCA/HJbaOkkjWAU3jZCJ1dbPZexzNxXoLRKJA8xHUCUMXVBpbUT9G2c6aLZ201ZP32+rxY1aZf9Ssf15xzinuBUuX5K5ohE74tTjeribSYg6EzWW+q5MnjfmJCg3Zg4SnWZFDCjmadlEqFeUx6jIXbKPGEeuMDlh976tt9qbXWnL4xZZO7ZdoYzJhM5lKDeSBlKi1zkv26lDlOZswwUtcWUGu7FhfIhb/XWA+Veu+rKUR+0UGttLhWR9kEi/WkUvK2ZjzN8NVKrPyvFrKoa48yRvSVbbeVORNPQOwIFKVmwwfssqpT9jiXe+y4bkP2zS/mif3aTSQxaZ26dYln7JpDrBCRJ64etwjz0MXmEdSXrwbJpTAqb4stqatVo9Ycs2X2swLvl5k9zxZdciILETiP6WVXPEultgaSiLZAIFM6KxjFfS5DeYzpGTj7Z2+Zds7IXGwYqRcxKZleffGYMl6Z1ettnzaluZlnSw+aCvn2JexZG1/b8k5uQwnrdWXQitfZkTkK6AXGB5u9rM3hZUcNrfVZaV4WZCLrBfe/GWVaZGKXJlE5HHti2zHbW+13q4v8AfxeAsbMqZYUhJJOqkyoEPmGkRYlSWVK8tD11OWSEdyVcLEitKpRpApgiAX9ZRgib/9jPJxV5jkDCoImbDKw4oTlk04G0qLoK1YzsamQAYeLyCf4YXftOpnfskWHvqkyO2cO2aWivyGTPpWRBwqT4TX7tVsKm3KimG1q2Z91TFlAlX14MVMvFCbPXXsmkfKVBbToDpl6Y47rf3St1ptzxdamsxJjoGqE+erIBbJrG/BMimxFZSTrZtE8KcFdbKgUmH9hUC/gzxQ/KCcuDiKL+WT2ut62yr81i9LkNMta8y2bOehPVbfo44+N2O1OSlfL2wwa8BBFCXlHLLtWwrkLyrTUO5PwErZIYJgMMiM5zkXlFjKw161uhSpN5i2bqdizfYNvteDuQLezRHezoHbEid9+dNZ5mVw4ZCbp4SR2f9CHFaU+NmM8NSyzqp8VzUUkInPCiqvMrwc9org+nkEfUKuoe0gMX90QNcGVELf+VExnl0aLD9l6aN/JI/wvZZ25+WesClOUoooRrwsitS1vkgntYYy58XOPk+V8K4X2ki0RD1UFHtp6mr/hHsgeXF1erKsBjN7zVo32nD2sNpyh+9DCXVAJOpBdAR34UtsAaVFsgGiRRK/ez8T/AU7fjqMpsHER2FQbH3S0cctyzX/LiUY1TRqpivq6D0bduTmSJF6gwXrnbnXKif+0Oz4/VYfnLFEiu9b2JWMx+kZxX1uQcXw0xboAI/Crz2zozKQZKjj1RF7Qvbb7mvfZHbkJTbceYuMgxvc5WD3p//0wxqUoZQMawf43IjIRif9GCVFdKwiJxAO/IxcHT69bOqtr2MlhDrchqMcoujDo+kq+YR4uCXQGq7eo9Z/5MPWefjdZufvkjiiJLEnFl/YsYoFI9sCC0wWBL/phbXBsi/L3W6pUXs1shOP0idOrDrL3IeuLtVl0czcZM0bv8gqR77FGnO3elyIxN/DIisKyy0gfpbYLEIPKLFpQAghoHh0YDee/ThsIkOh2Xgm012tm6It6qBuTWhk7VVnbFjf53MaydRLLJl5gU3t/gKbu/6NNjp4m/VbU1IguSvpqoikJ02TwvL6ASmUWwz6n1cTQEAJitRnW/h4NOVVBXJRWpUnba73cRs9/PPWffIdtnzqXhuuyLUaSNHQZknMlnuILRy1lKvKlTMBCaBIRAvUEmgBm8CtILkWvoeFiU25AvzYFi5R2PNCQEa24+EmSWYnAkEfkAjb3yEndgr7j1gN5m35qffY6mO/aqNzHxFBnrIG+0BwOSBl/qc8WRxshccdGYpJhjW1T0PEUl9W3uflWq3IKpOMvaHylaByq/x9JhIaQmapvDo6a/2V0yJpuXI+Y0v+WF+S2y1OZCWU2CpKIikAI5u/oEefrndSBp+wvCRcVDVppX/4KVhmrHw8tJZIWZnI5JF3zPhpKX1TPj9zCSxlpryIVa7BUKZ2dfZ51jh4q3z+PfLp5S5I0ZiM9fkHlElWgCuT7lqFF0VDMHUmPqUUnNOFWlXKWZmxzmjG5kc96zz2qNUe/qCNTt4j0nlMMpwWqS1JPhSVNMg5kKuAlaN6xboo0DlwIKiYT9Oqbu4SudLFrhPaI8LbRmzl+eo0cz6epQK/8Us9eB98Yud07hFZIJ+y+uP32XAB66wuK0LuX/yBdAiTp5G9Pckr5KFmE3cpTlVEKjGqtZbKbFjSaCk0rdqQtDK+eo2K9eptW0p22qBy0LrNW60yd70l9alQB7mBHqhjiW2hdG0KQJMMRCR0UqmFKwN/gSQi4nitczrvbwAbd8jwC/h8QRGUDi1wnx6lw0wPozV/7ki4pvUt7S9a79xHbfUz/8NqJz5uUx0Z9HWl4ge3lMJdI+UZiEwKrXQahEUAElRKSP78Xg4TmS6Pzq343ME+m95xndmho1bf92qZ9a+T0cCDfpj2uGDIHYgBAvX5gmC6OAJp8omcXt1xU/BfOJeHt45kJW8IiLhOSlwZrFq1/wmz+T+14eMfsZVjD8jQWRW5sDIU2hGLiZdI8ca2UdpU2cpOVog/20M9R7KesPRYnnaykfxDJqFF3zw1rcO+6pCOdotXb7d+IgLZ+xqbOfICa+45qnTjeRf986exlc7viJNkcZ1KTEboPSUuA11p3P/XsKZIoQs66Hz+P8qtP1cWFA8lQPGl1D5HAhHEa8oYRSMPv16VAuEqNOasvvNGKft+q+3cw1Ari0SKLcLAqqnJcuA4qKlcqnEZYY5At5JheJwzyj9MunJzUpsdPmqjpQ9Z+sgf2uDRj1r/ic+YLZ2VnjPJymP/SuPVQCJ0WdaYi3tRoWLdI+KRJ9N/4XKoGx/+FjQPrva63hO5rUhc1eHCWUuPf1LW0sesd/xT1ug/aU25G27FVVg9kVLL8hrWunhNThhMBjOhHOZ3cJ+wa5inwn2CDPnxCVFRhffnmr9DN5V10rjmGmtce5tN3fRKm735ZVYXichskYBBaLJzIvWqeyVKXAFKi6QANImH8THd6+JofLG5wjmOL42PMqMU8Q9AMfxPGriAuQJSh3Ew5NWRIrf7C9Y9/z7rPfhRGz75Pv9pCHZg4dOzG9PLZ9lS+Q6xcpRtsGvkHvnkJATDvA0vUCIuipxYb9C2jtyqpHWdJbM3WPvQ7VY7fLO8p51Wm75W8uyQFA3lOSVl1cgeqitAAkE+FzSc0r+LtXWMzyFfmCcRnOjkOowWZHGcNOueMjuncPZx6zz5Qeuf/6wl1fNuabibMpRbwpyLLJOKAvMrvJiIF2SzTO3PDqk+zH1AHt2KrnVFJs2DVpd7s5Kq3Oac3MWmJe2dVp/aZenhW6y54xarT6ve9VmR54xIitUlFceNkLzcGYgpvq2+xNZREkkBYpNkm2YykVwONxoAiuwKp6C4xCaJP7krn8Q7s0Igk6otV0UHUnZ+SLvzyN2yHn7Oqgs/77pY9WVZzPGwXyK8rrDqP/lZS3ilgEpJ5SYx0vK8zqinNKxIaMSmkMo+W+nLQmlp3FY5vUrLkl0y8Wdv0ij9PHkFN1itdZMNkiMasXe6ue9FSEjqGauaqf5luPSarCQJXpXbUVu9x+z8PdY/91nrnfi0Vc49bPUOL8YWWdQ7crGwilQ3uTBD9sLQUl6PuvX7coNUZ2SuqB4+z6wYKRPX9WmbH91uzeaN/tOeq/22JSKVRBbd1NwRq+p7bUpukYjFLT6sQncxqRZErG8KtD9teemO2xJbQUkkBViPSEA8X0QknGOD1viIfjpGHNkDkVR9E5nPfDiYxOzy8N/4eyLXo3vs/9nqYz+jAf2sP1/S4m3StmKDdMknbnnBEO4NvFXlt3N4xT3shEVSY3lW5eiQTWyjociBjVtD5iJwrTTm8/b49n6RiMz/XbdafccdZjM3W3VmVqP3jDJtSn7cjPbYvdBIToWcIMdwKwEJ5IZgPch9SSqrNljt2aC3bP3VBRud/bBV5h+yyuLjVl05bvXBeXkqHRZ3RAg9ydXxSWI2zA1Z9sWfkcXBr+fxiEKadn2CFQZg6gYL68KwbdUDt9hw7xusvfNmEUZbdWorL7mEyazVGrtk5OxQewdyoE1D25AN9acOCqpPoPiSSLaDkkgKEJsk2zRhVIYYLl6bTCQX04XvdFt96h9ddYA1MsBaSELnVTbesUUKzG24fTLs2mD5Aes89h678Oh7bCr5hDWG81bpizwGclGk2LzqECpipHaFwXrgTFXKx2YLH4XRHF3rz4hE+v7W+7Qf5ldYJV3py1UYTtmu2f06ljK321bbd9CmZg7ZCFcgOSSPZ6cNk2mRi5TUawAJUrYgdwQrKR2c06kVeWFnrLf6hNUunLR0ZdH6K8s27IpQ5k/bDEuu/HCVyMEFRWby4eVQagcmimktSIvnZthLIrPBhjw7wySw4uN+LPd22HDHqy259tU2c91rJNtBVTVMX49gJzbF4faoDM4EkmClTPnppN8NyI/7p/wRpSSS7aEkkgLEJsk2zZUTCaM1ZjS2BxOvOnILAevC5Nsz+iofKT90EkZ7IokCmIBc/Iydf/xd1jz/a1a58Kj1ekNrVaVI7hrJ5EcEZcp8iW6m8oEgdCxFGfLyaCkOD71ZVwThcuByoF76lNXCrnDeasbzKexNQZZ+vWU2tdfS1j7JN2eV5h7Fu0bS75CVsEvWQ1hFobieCGRY4Xdklmyqtmy9xccs7T0puc9Z2rkgV0SkppITWRe4FvzmjjRf5aO0zPGo3onOy+RgIyrWDS1A/tYN8yL83If/Do3SQg6d6etseceX2I6b3mztXS+TJcZjAOIjJ6IxwYFMWzpRKDFnuCNj00Z14L6EuZiSSK4cJZFMAM2SJ4vs9/y1fDNePOaTDh42qnkvpkN751YH1ijry6s+MUmnxoZg9NRXjfSV/gnrnPotGx77t1Y597iSsq9EbgzzHuxwdUXBCiHb8UgbIZbgR6p8l2dPioJrJIukP+jLguhbrclGMllGUlLyGPaZs+CXc6WUIouayup0Z2yAMtd3WLW+15LGlGSm3qq/0nU7SpPOSwlPq06ryqSntKniX1C5I2so34EsKHb7Dv15HpUnawM3yFeZJDc/mN6XtdTjwcVauM7bzvq9QJS1KuTSstVOy5arh6x+zStt5ravssrUHZLpGq+8kwBNyn0ZWzzBPvOqjf9z+yx89TZnoZz4XJH1pnqVy79XhpJIJoBmIWyFSPhFOQgjEAPNOm5aKWI8YuRTBE+LscIoC7uEJVjMc5EI5rli+1JvesrSM79lvUf/udXmT4gAGMWlmJj5GsIrg4GUSFaEj+iUTxnKIU2skU5ptNY1WTZpIoWXsrFhy59TSSu+V4YXAg37qeLJKlF1+g3lwRNvXn/JqQxTXWvUWVGBu6h3VUrd8TmamsrlyV+IcZDqXE1yJXwfWF0uSaIqYIHxS4WjBu+tpbahHYb9xJr1tmo7Y51ear3KcRGDCK7almLL6nGCUxpedK3j7uDl1pl9gzVvfI21rnuV5Kg7d/jv1/i9wLKgrSHkeL+oB0REyyjuOB7gJ1NZPQvUwcODMR/OlNgKyha7QmRJ5CIYA2lSfHGCTHifPPTurjTq5EpHl6ZjS089n4tZ8YXrKAPfFUdEgVL6r8ZJMVGKqDQs8aKWvgLhlgjlhxEWpPWa9cUOFSk6Kzts008HPeunXVknkAjkx2auQIAgYQlUgrHJDRKAdKaShoipb3W5AbycqDrqWLspa0PkVK9K8XVcGcmNqWHLSOlFKL5CMiZUnvNlCZsysBwI/Mpga6ppPcXtDVak1MsiFZWDryW4BSNSkjHjm8tGNblVu661maPPk9d1g5qz4bX1DkzdY6WzFpkjtFUA8QLJxK5Pe41TTrinJTaD0iIpQLAuQoek08cm2mxHK2pSlMhdGyeVi/CnihmtIQUpAZOFOCzMbTSqXUuX7rXe479h9Ud/Sl7Daau2eF1AGGFZAmYJM+xJYTRWhoNgMQTywnJRPFZwmFylfJQaJZLb4sSEbukwYWJWZfZVx4Q3kvGmsYqsmIHiY0boPA8IMt8BaAsmRJ0rdMzrCpj07codqYq8+P2Z0XDAOC/PQwTGszN9uWqy2iAR6slzLsxRDNkU59ZPIs+LH7WSvLJEZNPY2Y4IqHrEmnOvsPTgl9nuI6+x4ey1LoO3l2RkjwkWBSEShEN5+hKvkwdE1pXcyNzSJ/FoERqAtivnSLaDsuUmQH3Qt1j31NHZ3oUK+mQfSk/nXAfByghh81Bc7/iY3CqDw3TJet2TNlo6bWlHyjeYk2JLAfntGimEPwBX49kTqaQSNKTIvGARshqyxOxLqyu6y+F5EiyMEG8ktwMFUvpEZckIGCYD69ZFZqqz/8LoqC43hr0r7OtQmVgqXicJCEkw8ktO2oVVEtyXvvL0d7pKsKFcK34uY1hrWUdyrYi0IEh/Fghikm77nITcC57QHbJyM2pbd7ltvT7WCK8RmLdGa8aS2evNrn2NTV33RhvNsnKk5CqLHbiq1hjxi0vk8GLUw0MIxEeXx2VzC0/yc4/CPJUil7hilEQyAXRylK6uTpYohIm40Nk26nRczwfX2g3B7VD8cKCOv2rD/rwNF1fkQuCaMJei0VrBny6WqzKSlcACkHTeg6/E+HtfpYi6XmHHKAqEIhEX94ZXM/KuE8WX2WNDhYGTCCs+YemYLerBdeK7Lmm0xpFgRPf8FCA8XKOUeQysCJEM1kYiiyQdrVolESOJoOSFKCCLFFcBIqKS1BQXTq0rkqTusmbkMg1ENt10ygbJrdbY/1JrXn+nTR26xRpzUyq2TVV8bsfdJEjA5QpkEN6Pwqef9eeYQlBcuZtuuXAtzjNxrOsltofStZmAzVgdm0HMh88YIsjDHzzTd077JKE6tb9NXkTQGB234ZO/bZ3PvtdqZ/7U6u0VeSQdS6VsHV+qJROsA+Y0pLOyNBJZA+yXYBv4cCBldzGxPnCHwkQw5vzArQqddu7Sd5VdxYpQWhQVEvXnZHDxlCdlKLHSoZ6eRHmTr1wnna8Mec6HunAsEhKZUVO2ua+6jDWbFq/wLhXAG8kwhYbs1MXtoN6SqVpPbbm/23rpHVbd8xJrHf1Cm955sw3bR1WUSlYI1INbg0xBBnLMu42XgvqLFKkwJtgagitYYnsoW3AC4qg2KWwWk+Jn8yKgvKiHjsaevhQEdkFJZB3Um7pVshggAP+RLTFHfE0gbw1Def2nKwk6HqRYLsoNvx+3BAJgFNanr6wwmis/f6M9JMJ8BfH90X3UKwRWhDBq2O4SsqFcyle5fkzdqIM+lCLQlPLAKpJlw4uIeLcIr1NUIeNMICbFRn6vh9IzKZzIXRPzjdq7rHHoVkuOvMKSvbdZZerQOH/ajf9ok2iB0Gbj4MeTgupbYV4mWCTZ8yW2j7IVn1GMR0+USJ0YZVJXXvvDTGd0d31DjUUOhCGTpXWNqHJL2LTF1OHQVy2ayq4erAH2ZIw/hxrtq7W6XJSOlHVVCi03o8ZrCHlOhzxVBoUo7WigPBTqA5aLq9YYMnGZuiXh15UXr08Mr1oMLo//cDiEpT/Xa6+PKETn2G3ry9BsgtPIT21asnSm+qqbKhzqXVNeJFQ8EUlal60g0VllWh3ssmT6dmvse5XN7bvNGo3diuaRvSxAeaFgP1II19cH10ViZZd/WlC26jMJRmWpOSO9/w9XuE8jhXTt0PH4s8qzK8OOXI3x28B0pyoJ275lP2hUD+4PKy0N4zeGq8Om8uF3hpkcZf5iTE9OHFJuffZ5olbWRB9y8lldXXcCmhKhTEuT28oHp2MgN0kKP5qydDQjWmkqaqJysR7kn4gAnATGGi2HRJYSE6bKU2JhH1QGdav1KlZX9Cpb3IPv5vGd9JxUlAYrCzKRddKTpdSY22028xxr7X+1oj1XMs2qrVqqp3IlD1pO7ehZXQbat/hKiacXJZE8o8AiobOH7u5hTCTS/GCssE/EAw/Iyeqota3empGSymGQG4IpznyCb71XGhnq43TYMApSbqwJ5kZY3OTpYKWynsgmlfvCHAhLryhyUOpgKXgmOsYi8g1cThYQEBOw5CVyQmIvV8cug67pFLbJQPXiE3sGjhpwLVUeQ8mt+vGCZ3pbcCfCd1wpzjuhQEySK+VlSw3JyidATMHnl5CAT/LTEX+Xo+hciacbJZE8U0BhmCCVqmU7+0V14P9w5GcgEX91AM+RiFSYu+DBNOYk9A81q+Fm+DsGWKVB8UVAshr8ruoT64Pfi2H/BwYMtDPiiV5rS5YpicTzN7hTbCY7pwyXxxvAEn3KUqhfsLSxIA9F7lEiOpI/5GQF4YhIKCaUV1VZiSwK8x+w6iQV6zeVR1suUT1szWfbO4TUkYu22hh4OSwre3ByhSBlxVT2WdI85JZQgFoDMgn/6U/1VJHOe5Fl1sBx/lyJZwIlkTxD8O7toy7BtcDhHoaPsOO/8WjL3AgkUq8d8D0ZzI+40kqD4JLw2BvEMZ63YNlTf0yGMinL7+CEh2BJp1Ms7yYN66Z160th04bcFqYxuKh8amxz9zkO3IyKpSISgiWijSRVvtgakEhTn0xYhklLlmEhN/ayJNW6VRORX0NB5FFhNpYdtZAZf/r0eR7J5JM0Ip/wjAtWEu6YXJvaPqs29im/0D6BViEa54/wP82gb+MoGRSfLfH0o1z+fYYQfmSq48qAy0KHDwrmJ8bKwlwJ473OukVyyioLd1v3oXfZ8MK7LdExm7rW3AOIRA4F/zOX4OBHpMa6xG/h+DWIYzgnApkTYVxn1dY1lrZQYrkUq6tWG560zspxa/EKwgE0RuDX9Toqh300PIeifAbsQFV2TMhW2cHK4//ILQKRjzOQ9vtuV/3hHiXsYlXdoE5kRa6+uIWjhliMnbC4T8yPDGSY9PtHrLnna612+CssmXuZyp5RToFEQHzPC5YR5FPicwclkTxDoJldpfhkyQIdghBQzAIiwd6ojaSoFx627rFfteH5n5V9ckyEhAKRSP/kEviv1LEvwidZsVY6siq4FspjBYeJ0t7gJlkpr7PGjtdYsutmS/bsEiHIJOl1bGX1ARstfVpk0LNhd1W6LXJKzyjveesuL8jqYMdq2JyG/cIr26oimlp1QZIu+d4QGSwqD7XHVUF+OpfqRN2QEWuHT65JnmTIRPG4TXDP5H51h3faYN832u6jX2VpckMoy3MSqI+IhDbDxPJHC0p8zqAkkmcQgURCc/tgDJHItykmkrpsj4GlnWPWPf67Njj5k9YePezTCZ4HaT0fffelVgVUr7osImH7PGsnSq/z/coBq86+2JIdr7XmzCus2jxi1emdXgZWwUr/cZvuHbNeb0n5SqlFDP3OU1L2eVtZOi6LRNnKcuj3RB767ntVRDbVAb8l86RI5Jwlg0Vd0HmVx7wLMkJoTgBKE37/V+ckN9cj/AnnKk/3Nmyl8RXWuuFbbWrny2TdyMVhJWoNtBGTzTQccy4lkXwuoSSSZxD5po7HfAZXJahLOJayaAQepScsPfN+W3n8X1vSv9fP+U5Sj47CMluiMJqWMrZtkE6JU2akxLP+Gy71qWus3rrObOqIWeuAJfW9IoMZ3XmWdJ0VlO6CLJ0L+t7V977xrpPqsGOJjnv9BX8VAU/xBF4Ido7/GNXwlAyaxy1dlDXT+bgsmWNWHw4UYDuyxvpATg7DapH/DCf1g4ywcBSBqnSre22w92/Y1HXfZEly0C0U/8mJ0CwWXh3Ju2glgzXNt+wjf4nPCZRE8meI+BAgcOsEvfa5FLSlJmuBUXzFBivvse4jP26V5Q9JgVheTa3Joy3S19QJYafCDinbTqvUr7dB41qz5lFr7r7ektnbzRqHRB64OLhFUlyyR4HRQ4WqW0EQGGUPfWnXl6BFGMELG0cEiEsaPyv5Vh+ywVnJd+bXJeonRC5L/vvDlbShSLgtTCEzb8IKjYhhMKMjWT7VFZFJ32qYLdW6LVTusOZ1f8+Sg1+puLKUnCSY3A1lhv0rCn7YUjuEuaISnxsoieTPEJFIokIwyvpj9TrvD8dh9vPynf5dtvTE/7Xh+U/KhZDFIHJh1+ioKguk1rR6fbdIpG215k6rN26yWuuw1aYO6pifZtir0X2XiKQuAgrlZO84K0GoeYS/nIlygwqrjKwLEc45sUB8+qumT1p//mMKH7Hu/HvdKmmkZ/33ef1t9rI6kJXJUeo5HLDkzIOFkAkb42asJwukP/1qm77uO+WCvdJL8XbJukCwptyrQHlyn0oi+ZxCSSTPEGjmSBprTe5mPUqLXkotx4qRvSXu6gwXzAaPWW/5hCtov4eboFG7PW2WSDFZ55UrwBbzRJaJzx+46Y8FwsQkW9XZ7n75SgcuFdZFhO94Hcukq7Jioqz8E8F5HbgSlVykwOsOlk/acOVuWSYfsOrS3VYZfEwiYDalSpNYjQcJ2WWrXKpDVoFWfR5npbLfluuvt5mDb7apA1+s+sx5rqFdIA8/JJX+Cwf8XxLJ5xZKInmG4Mu/LJu6cgv4DICRdozLFGM8EYuLUbF5RcC0Z3v5lAIWCxOsbDIjbdAzv5v6hCD4w6pxpVSk+IBaKIdw6a2/2BWwiPShPIKbgxIHWZDXbRGPECZVmTDuD/hBrmO2ev4DtnLuvda48D5r9h61Xq1jrXS3LwNX+DEstvEjM+9JGbZttXK9pfu+xdr732j1nc+x6mjGpaKtwlJQIMMA5AjfkgRXqcTnCkoieUYgd4WJU4UAFIIRNSpIQCQSPrktIaDDSlcZv2ME5SWSK7esEhEL8YPiEzdYDPqmPwgknOMPywTEcrLIdgPPgydzFS0QCdQRZAkp+TLOw4vwQnRqQZ7YCeuvHLPh/D3WvfCYpekJq68+aUl6TpLP25B8ScaczWi/2dxrrXnNW60xc7s8IJEIvKG8cLG8fbyOyI18oUzkxw0s8bmDkkiedtC8rHOw4kDAvA+uBguhYbSFCMIqRLgdWClhtMeeYH2DP9QZMuG9qMxjVKylG9iQJUDaoVKMlTsD8vA/fU4iknwX8DkSWSMVuSUx1+jh4KaEOoEx4fFHfNWTOrGXpLKyYEu9czaav8uShd+wtHefrI0l61dOy3rpWp23wTfvsOSab7Zk9xdZPWHVSXWrrnie4VWXtFFdcmN5UWaQuySRzz2URPK0g+ZFIUUHQygB6wKakJKglO7iQAT6UHDqUBJXYIhF53hHq2ejCCgrb05ziET4rVxfDuZqjiCyhLQefLXGCyBgBSi4yxUsKPL1rBEGGYZYRfqrXiyPmL60q/P+8xFMEveG1hk8ZsPF99ho+QGz1eNmPZaXlTdvj9/5fKvv/jJrzj1PWastvH1Y5lXeLjJEK8uNP2eySCClRfK5hpJInhGgGKKQVCQARVQZ7aWEIgF2uQZyQYGYA2G7Vliqdd0l+XiuBG0OCk18HSutKzlxlOpyIrmIibdZ+TiRMCcRzQ4U2MnE/4Uy9EUx/Tx5QT3pWJl5lSFQZ1I8KDA1/31j+Smj6pLqLSujf8Fs0LFKWrMBbktNZNCasWr9oIhwSunIixIgML4iC+dinXTerTFkEYHm3MISf7YoieQZAq3sLxzWaOyvUZWSoHIYG6xssLuTyVReUlSVy8JW8jW9FiAhFBrrgz0mASQeK55SrUckkwElDH1OIhbIg3S4X4FMmCtBeQOZ+SsR9emvKXCXSrSjY5y1MAek4Dtcx3IpHb9LzO/5DmTJ8IAfJJBCOCou6bMCpS9szl2nK4Z5orCPpFJpKY/YBiU+F1ASyTOEoIQEFGF8cm205RZotPVt5FgD7BGBSHR+fHf8x6L4VJKwt4O0nIuf62N9awXFz+ThWVJGKOeiFyECwTqiPBdEQURBdM+e+nHNXaUwqRosDciC60QJ5QR5yDtkHvbOcC7g0nietZJjtXGu3CL/uYaSSJ5BbNzUXMeERw3l2khRo2qFb+PrbjFkcFH/rggXV5MCopJ7oMi1/AMRXgSWCp/RKvIYIY2uETdkBdmETC62gV9YI4qNEJLhGvKlfGjvcw0lkXzOISg14zlTl4Bb5IoohQwncsq3OV2cCF8BKlTo/LlAJJfHvbQLZeO47P41xAlEczF9fgl8PUCvIZvNE1CJZwYlkXxOglvy+agosauVJPD5htI+/JzE56uiUa+SRD4fURJJiRIlto2SSEqUKLFtlERSokSJbaMkkhIlSmwbJZGUKFFi2yiJpESJEtvGpveRZKOxGSh/XOLZh0l9IJ4v+8WzB8+4RUInix0tfs+GEn9+MOmelffx2Yd1LZLYUSaNLHnLBKw3Cq2srNiFCxdseXnZv3c6vKDn8vS1Ws2mp6et1WrZ3Nych62+fyL7ENh6MpUoRvbex3vE93icvW/xfEQ2folnBzYkkiyKOkseMQ7XB4OB9Xo9W11dtSeffNLuv/9+e+ihh+zEiRP2xBNP2JkzZy7rhHyHRHbt2mXXXXedh9tvv91uvPFG27lzp9Xr9bX3dWbT5ZGVb714JS4HbRfbL992HBfd+7KNn93Y0rM22ajZ79lOxHmOIZBHHnnEPvnJT3q499577fHHH7f5+XknFiwSAnHznRCyaDabTigzMzN2zTXX2K233moveclL7OUvf7mTCudjunx6kH8sHRTFK3EpuH/x3tJe+TajXbEO/S1nGWTjcY2AZVm+yezZgatOJP1+362PP/7jP7b3v//9ds8999h9991nZ8+e9evEnZR2PUxNTdkNN9xgL3zhC+0Vr3iFvfrVr7Y77rjD3R/yyOcTiSSWVRSnxOWIBJFtL9qQ87ilx48f98+lJd58dvH1AzE+cbFEuXbo0CF73vOe5/eoxOc3rmjVpghch0A+/vGP23vf+177rd/6LbdIsvMgRXlsRrljOuI2Gg3bv3+/fcEXfIG96U1vste//vVusWDBAOJm42exmbKe7ci2HWSABfnwww/7YPDoo4/a6dOn3SVdWFjwQQOLg7gECARAOqT9mq/5Gvuu7/ouHwRKfH5j20RCB8KNOXbsmP3SL/2S/fIv/7J9+tOfdvcljm7bQVT+PDlAKNdff7195Vd+pX3zN3+zPf/5z3eXKF6PIF08l79Wohi0GSTBPf3DP/xD+93f/V372Mc+5lYlZMF9JU7+nsT7zXnI/fu+7/vsb//tv+0uTonPb2yLSDjHPAfuy6/8yq/Yu9/9brdC6IQRk9JllZuOxrlsiNficZYEst8xn9/whjfY13/917u7s3fvXh8lCfm02XQlJgO3BeL43//7f7uL+thjj1m32x1f3bgdIfSv/uqvtu/93u+1V73qVeWPWT0LsCGRTLpMZ8LEpaO9853vtA984AO+EhOvReTTx2P8ZtwRVmcIpKGzYkpjNk+yaEgf84/fmXhl7uSrvuqr7Mu//Mt9Yja6Ollk5SpRDAYGrJC3v/3t9ju/8zu2uLg4vhKwURtyHWvkH/7Df+iW4uzsbNnun6PI6hLIH28FV0QknGPu4xd/8RftZ3/2Z31SNY5YCEKI6bLpWb699tpr7fDhw3b06FG3HpjvwIfGVSHP8+fP21NPPeUrPIyETO5BLtGkngQsEPL8xm/8Rnvb297mZeQRGwmZNtNgWdmzdQKbSf/nBbE9sCT/9E//1P7jf/yPTiJYJlupJ/lgjWAh/oN/8A98HivOoVwpNtvmW703RfGz57LYjvzPJIrkR/ZJ9QLZuhGvqK6TzmexKdcmHwVr4fd///ft3/27f2cf/OAHnQCyiMITIIjdu3e7YrN0yxLuLbfc4koPsWD20tkgiZiODszELUvGn/nMZ+wjH/mI7z85efKkl52vVJSP0e8tb3mL/eAP/qBbJXnEdDF+/hhkzxHiMZ/5eEXpJiHGzcbLpgcb5ZFHUZ55bFRGNo8HH3zQ7+kv/MIvrK2yZZGNi8XHcbx3TK5C9sxbMcH6rd/6re52cj2miSDdJJmz8hKH46L48VoWMV6MG69n0+bTTEK2zGz6PPL5ZcteL93VQLZsyorHeRnyMq6HbNosNqrLpudIAFHpNPjPP/zDP+wmMBOteRCPgrE0WKL90i/9Uh+lbrvtNt+lSieEYGJckBeU85AGu2CZd2Gk/L3f+z0nLsztrHVCWgJzJD/wAz9gX/zFX2ztdnt89SJiGVG+iCgD4DzHebni+TxiXtn8ipAvA+TL2SiPLIryK0K+nbKf2bIZDJjn+rEf+zG766671s5HxO/MZx05csQtydjGWDL0A9yiF7zgBT438tKXvvSSSdZsXtlys4jn+eQaIVvPbLr8tSxivnFwiscgmwfI51F0Pps+D+LFckAkznw5Twcog0AZG8lYBNJkr2XzyNYJrJc/2BKRkPkDDzxg//W//lf7qZ/6KVf0STh48KC98Y1v9FWVV77ylT5SxUaOmFSJLIjDaHfu3Dm3UN7znvf4vAyb3CKhYNXQcf/aX/tr9uY3v9nnXIqQLWO9stdrkngtn2ajho5YL+/18siXu578WdA+gDj5eNk8Wdr91//6X/sEK65kNj7xuHe4pZD0nXfe6d9pd67h1vKJRYIVcvPNN19yD8hnkrz589ljvmfjZpG9lo2TVwCQzTd+ci7GW6+ciJgOZONy/krz3C7WkwlwbiM5NsojYqO6bJpIiMbkKh3tP//n/+xmcBHocGwcY+KT+YoXv/jFl2waywsejzcSlHh01FOnTtmHPvQh+7Vf+zX77d/+bZcJN+lv/I2/Yd/0Td90iTmdx0ZlFGGSvHnEvPPX82myx9k0BI7z8UE+TdH1PLJxitLk8b73vc9+6Id+yNsWCyPmySfK+ZznPMfb9+u+7uucKOI9BVnZCLR/vLYRNpJrI1BONo/s99gPOEeYJG9ENu1mzkdsdP1qI1veJEQ5iJv9DvIycj7Gu1L5izWuAFgfWAK/+qu/urY6kwc3jvmPv/SX/pIrNpZI0a7GzTREERgBIYqv+IqvsO/5nu+xb/iGb3BTGisE4sLknkQi4ErLBVtp4KJy1is7m3eMtx1Zi5DNN583c1JMbEPSkHUWyHbgwAH72q/9Wvu2b/s236nKKlnc/k7gewwcX0lnLJLr6UJRe0esJ8OV1OvpQpHc68m+3vWrUa9NEwkTnX/wB39gH/3oRwvnRehAN910k337t3+7fcd3fId/j50qL2g8FyuXD3nkzzG/wgY0XBlGUTo4VgmIeecDiPkzwubLyp6PyMaL17PI5h/jxPN5FJ3LIns95plFPM6WURQvIp4v+symIT+2vDO5zWfMP4K2ZoI87iCOm/4iicQQ8yR9th35zIY8srJcDeTrFsH57LVJ5cbz1CFbD87zPdsnImLek/K82igqa1L52XPxe75uoChttr4bYVNEgjXCJCcTnkx+MmeRBQUxJ/KX//Jf9r0DdDg61yQQnxArnw/rIcZhwhYyYeMTZndcRYihCDHvbBnZ+PmyY1lF6TaLSbKAWHZRnHzZWUySI59fNl42r3x5TJKy7J63RgBWBlYmT2BDIpMQ88+WA7JlZmXLI59usyjKr0gGQj5uXqYYLxuyKDr3Z4WsjEUhj43iFJ0DReeKsCkiwRrh+Rn2dBSBiTUm4TB/IZHNFh5R1BnWQ/bm07np7JtFUVnIG/PMhjziuVi/bNz8ufgdRp+EojTxHOmYqyAwmYkVmM03j5hHUZzs+a2C9mWFJjt5GvPLBxDlB/HcRsjmEUdLBqtYbwgukhxxJrVbPOZ7DBExXvyMiPHy5+NInM0jgvOEKGs25PN5phDL5jMuxRNov3iclS8vZ5HcRe0yCRtOtmKBsOz6Ez/xE26VZK0RCqKjsauUDUiQyXoPaGUFi98J+ZuVP86KGL/HdPm4EUXni8qjgVFWdtPGzsp1LCqWqnmVQQTnGb0JxI35RUBotA/50S60BemzW8TJI6bJfucmswrF6hTWASsntH22DOYm2CtDnsxboOARMQ5yUZe4mQw56EzIFuuTJV7Ssbz+0z/90/Y//sf/8IfyAGnBjh077K//9b/u7uOePXv8fJFrC8iL/CknIuYT5eM4nougzZCZsmkDLGDcLD6Ji7WJzNSdPUn79u1zYsvWg3jUnTaj7hGUy71kz1LRpD+fEBbpWAKPsiET7U1dKCeeR0722HB/oivI/Y354gpinbPZMjs/SLyYx9UE+SI38rDwkO031Is2oR8SaAPajftI3bIy0f+IT9/jO6Au3APS0Q/Ww7pEQoZ0sv/yX/6LveMd73BB89GxQHBpmPykAddzabKgAtm8Nmpk4hLWS7fetZgexPMc0zE+9alP+XIyjYb8nGePBMvXz33uc/1m0MGxyHg5EztvIYuYB9cBHYoOyA2h4V/2spe5+5VVrCxIh1LSMVl+5WFH8udpW8ogn5g/eaOkdFDamT05bPBjhYz86RiASVNWXsiHekIkyERa5jqYnM7KQ/6UDZH89//+39eIJIJ2YH9OfI6JPlFEJJRB2zE3xp4hOuskxPanfkzwUt+7777bPvvZz3q9o6JynXrHgBJQX1wt2hWXFkKljig794i9TeRDvQBloUQMdrQX3+M1QNuyAkmbcX8jOUFGpGFwhMDihPQnPvEJz5/2pa3oB7Q9MlB/4rIZkrSEuHM7qxfZfhmRlanoeh7Eh8jwFpCHvT9szYhzXcjFfSJwDyFg+g3bMJCPfsASPm0a+zzznwTuCSTIOUiKenzJl3zJWh8rwrpEwiWeoeG5CeZHYgeKFaXReZT/H/2jf+Q3CQbLZrdRg0wqelJDE2KlY9psXL5n88xeK0rDMZ3j//2//+fL2nRg8kdZaPTv//7v99UgHkpkJy8WGU/EcqOyeaBEfEbZSM+cwl/9q3/Vn/2B0fMgDUrDjWPpldcvoNAoAxYPbR3lBXynvVEobjJ58vY4bvJrX/tae93rXucyIyPE/0d/9Edryg1Y7fqLf/Ev2lvf+laPl2+Dn/mZn7H/9t/+2yVEQhwCykGg7Fi/eI1jyuE7ZX3hF36hT4Cj7HkQl3jEhyioO1vx+eSRCNqVenM9kmgsB9C/UEqIEAV4zWteY1/0RV/khI2VgjX39//+3/dFAdIC0iI7S9esJBIvCwiCbQTUn/sMqB/p2UjJ08soIVY5T7ejrNFqiveIdqEcvnOPIuEzCKEfPCqAAiN/tj5ZRHlB9nrReUiCe8YqKvcZEqbvxvaDHGMdQLbf0H4QAveHwQH5WImDCGkD9ojRjpTF/eReEOdf/at/5XWaCBU2ERJ49Iu/+IsjNQISrQUVMpJwI3XI0T/+x/94pM43kuCXhY1QlIZQhOy1bNxsyF/LIns+BjX4SKPR6Ad+4AdGGkG9XgQ16kidb/Td3/3dox/7sR8bfe3Xfu1Ilpefj/WPn0WBeKSRUo/E6GMJLkKdcCTiGP2Tf/JPRq961atGGlW9PbN5Zr/rhnqI57NBCjW68847Rz/6oz860sg0+shHPjKS0ozUcdbS8KmRcaQBYSQLc6TOsdYGfJdF4NekZJfknS07G4rkiEHEObr33nvHNb0IygK0hzr+6Md//MdH6qAjKanXnTy3EpBDZDqSko7kVnuZGp1H3/It3+L5ZeXViDx629ve5tfzkCk/kjU2etGLXuTpYqAusno87+/93u/175Sbr2825GWUSzaS5Tj6zu/8ztHv/u7vjkRaa+2QR7wf2evxON4v+ivy/vqv//pIHsBIRDUSOVxWflam7PnsdepIn37zm988euc73zkSeYxkkY6OHj26liam1+AwOnHixFiqYtR+mL3uE8CowSQrowYjhDJfY0UYDsZl1YRRUTfsEiYF+eM8Yn4bpZOc42+XpsmH/PUssuezgdEFRse9wbcEumnO4rA8jwNwjbaAnWO69YD5zR4XrBFGAeJTBz7JE+sGC4hNdbgzjIrxesSkMjifvYbpiWWDpRQtGb5jrjMyRTCKM4Jzr/iezQP3jnpitsc2WA/Z+5EFIy75Y5XkRy/SUA47k3GT3/Wud3m7UvcrBX2SuhJoB46xGHgJU3Q9ARZJdM/itv5Yf9oouiy4Ntx7wHW+045Y5VyL92hSyIP+wuhOHrgLuHtYhtkVRpDPp6h9OYfV9hu/8RtuOdCHqDf1jOkist9B0TH5YcHgViIb7Ucfpwz6U4yHnmOxsEOddpyEdSc0ov9K58yDG4Cvha8eTbs8YmNNClmQPoY81rt2NRDzjTLxSafkQUHmiDBj6VT5eEXgGgTLfET0mwFpUSQ6AObj//k//8fbNnbcrSK2B4EOS2f9X//rf9n//J//0x8liOUCZMrGL8J6dYogTj6vbKAfIAsknAXn6KSY4uyKfvvb3+4KH5VgO0AeFIp688Ahc10oKvnGOmVljCGPvMykhQS4/8h+pfeJfBiscLe47wzMKHCUDWS/5xFlhey4v//iX/wLJ2MGpPVkWq+uWXAPmLag7RjYyDfbFnzHVWOQWA8TiYTKMYMLOxVVlJuF37fV5V7yivnREIR8/jHOemEziPH4LConIqt0gPrQ+aN88VxEUT4xD1ib+ZHodwLyoDPSmZjU5MbFOYAiROuOwI0sIursMd8pg4k3LAtGZKyTGIfPfMgj3wZZIAP3G+uKQKcqCrRZnDuIoI5YHcwxMAfDKycY/bLtmpUnfucz1j22Uz5uBNfpqzwlDqFS93zbcpw/F0EZsc0BnxzH+589H0FexKHetA2yFskWgUx/8id/4vefeax8G60nH3NncZDAYshampPK5HxsP+Qk76K4nEcWiIp5OvpQHuvVK2Ji76EBueGYuvGmZ4GZxpZ0Jm8oaCsBMDozIsP4bLnHdIyB482EGD+at0XnCDQ+5UCKk0z3rGwgfp90c7k5tAGTd8zMs3qASxNN6Kz7QPsxGvOgI4qEsk3KFxAfE5z25elpLBwIm0kyygXZ9LGjEBhhyD8SYRbZOsbv2VAkEx0ROXhQD9eIN57xHYuLl3BzzHkeh+A7sjKCAfJDDiZT/+///b+uSIzORWUTADKjmLQtz/RQf3Yt089QjPVAWggaRcvmGVFUvwjSxut8xhDzyH8iDwMp9WahAes81nsSIFRWlXjKGsWlbaKc2TKzwCug7XCF6cOkATFd/jv3i7bjlxYY0AhMrtOfivLPlguhROs7C47z5/KYuGqDwIwi//Jf/kvv/JFBERhhWX77//6//8+fe9noBmdBcSgzfifvAqXjM8pFIDBlkGdkXtKgLATiR/bnO50OWaMMpEG++J3zECLfo6+H4jOSkC83FKZnDwW/t7MeyDfOeLPMyc2CMOi8yE1HokPRsSAW5EU2lud+9Ed/1N9nmx2JsiAu+ZMvpIESkT9ERV1ZTYEoIUUImJE3kiLXJ9zGNfA+GFYgeA6K/CNiGzBS5ldtAPXlJc6sYNBB4z0BpKVsAvWirck7kgl1xz388R//ca87Vhn1jGkBaWk70kJYtC31ZmmS+4RVh7XBsiZyYm2hUFmrY6P6s+rCXhheb0CeWaDcvKj83//7f+9LwFFRs4h1RE6W9ZkHwqVHSZGT8xAk812M6rxDh60SsS/Hz5gXq21/62/9rbW9OZNk5/4yl0T7kSdtH/OJiPcAoqDv0X9YFmcuhnO0N2SEK0n70Rc5Jq+icmN+EegJz7LRPvm2y2Ldl2lys2Coos6DAtFZ8hXbCMSn0TFDYVkaK3YuFAlyAJzL3wDOcaNjfL6TJjYKnZE0nONa/E6epGfy80UvetFlS4Axv0mIZcfH6HnuBFKKTE85kAlxOKbxY54oJsvLuDPZdswCucmLJ6VZKoSI4hp/zJ860OkxPemsWDh0fMxerlFeUcfYLqgLnZN6o5CTyuA8MhBoc2RGmVhaZbIeCzTeS8D3eM/ooNSdJWysGwiF/hUVgXaj7pAJ/ebDH/6wt2esexbZMjbbHsga7xn9Jp8Hx8SBjOlDX/ZlX+avraAfUdcYj3sNmTCHwcOtED6ykz7mSTzqwaQpk9Lc42x5EZTHXpWf//mfdxLIywU4jlMMtBt9hwEeOWk7ZKM8SJ55GUgdqxDDgLmkon1h+TK4jiwbQhELoQbwZaGXvexlvlSkAtYCS04s88lM86WprULMOJI1M9JoRy2ekaCOMtLIOlJD+vIrUAP5cugP//APj9T4l9RRnWrtO/XXKOJL3SyxqvNeskyXR7wmchmpw4xEDJfknQ8iDV9iZOlWo7a3/STQ3iL4kUao0U/8xE+s3R/qWJR3DLIUfClbVs04p4DYBkXLvwSNwKMf+qEf8uW/ojpzLoYsqPu73/3ukTq4L0VnZaFto8xsLfh7f+/vjdS5RxpgvG2pY8wvmz9B1uVIBDL6yZ/8yZGU2Zfa83ln8+ecRn2vQ9HyrxRsJKIficTW5Ix5EMiDvFimZsmV+48MRUA+6i13evQjP/IjI7m6ngd5kkfMj2PuuSxhLz9fR+qPrCyR0y9jmnwQiYw0qI1kSXqZ9OvYdkWBtpU1MtIg5MvhtH2Ub1Kgfd/ylrd4uvWw7lAMS8NqynB85iJgOaUfH20N5IfJqsYdn3n6QFlRfuqihiusT6xLNj7nCMx9/JW/8lf8gURGZ/LJXo9pI0ivG+cmObP0mOL5OABZMHO//du/3TevYeUwEmfbJZ+ONIw2mK9sLmOTFRZM1j282uBeZ+93rDMhtldsswgsiLiknLfEYlra8i/8hb/gbcumMiaq8/comz+BEZg2o+64B9SdcxExb9o/j3jfsiBukdWQzQPLm/ewcJ+Qmb7LtRiPAEiPzuBWsAEOlwDrgPrE+LEMLDSsAqyTeC6C+FghuFxYDUWgzsxR0Qb8ggIuJefyeWVBv8KVIh1PzrMjnb5NeZPANdKtly9Y36YXigqhUcR8hY0ZUXQuAqFInwfnY4jInttMQN4oM8dZcEyjcD0rH5+TOgZKyyQiHR4fNHbGbN58j2kiqB+mJO4HhEKcGADx6XC8/OlbvuVb3Ocu6gj54wjO00mZ84GEJnWIbH0A6eK5bADxMwviRxkmyZIHdWcug/05uMZFgDTYg8S7XZkPKlLySUAO5qBi3XGLiuoe5c3XMV/PeC4fAKTBvWGeiHKQM7ZJzD9+RtDHmCDmvrLrOH8d0C7spGVhIAvi0l8gYObBcN2y6eN35mmY92Fnb3Q587ITtyjQz5jfQT76H+5VNl0epEE/wKQ46xIJjQjD5kFmNASjFKCgrYD0dLaswhM45kZFZeez6JiQvx7PR1li3llQl7yyxgYsaiDi4a8zM8+cBeVsFsz9sJ8DPz7ehAjKYpRjFEaRmFzMyr4ZkAfxmV9gGz+T3nSIScjX+UoQ81gvL47p/CgJPn4WpCPQr1AwRlLIeSvtmgVzFDxxzrwF36MssZw8JtUbeegvRWlYnUFps3Jm8y9KA8iT51mYSym6L7QR1gb9JCsX1hET6mzWY16jCPRF6gyR8qhEVp6NEONSFwgcSws5i/Q8gvhxoJ2EdYkEpaMh80oJCdAIbF6hQQCFUVAMEdmRHvBJnpiILCHGZURMVD6ZNGL5lGMUmAkkjlE6LAOO6YTE5Trx40QTqwVxcjIrA6AOjIKEWJ/YqBzTsPE8acmDc0xksZJAW+QR08fvEaRlUhRFiqsLMXCNuHQGHm6DRCgnG2cziGUTIBNGdzoEhHQ1gbxFoNxJMqMc1J2l9/y1KC8EwAhP3Tl3pWA0ZpI27+JsBchY1GeQC1cTNzKO2lsFViOWZ1EdmaBnRTEL5KDdcG2KrDkIiuV3LBH6clamWMZm25P+jh5ibWWfvyrCRnlOJBIKYekPxkP4LBA+bsum0xSBgmPIg5vDjDW789lRx0uH/82/+Tf++c//+T/3N5lzzNLzP/2n/9SPiRePf+RHfsT+7b/9t/5qA5ZVeaCI6/jaNAjI33Q6GeYwHYK6Rbn4niUQEOXmPApPRygC8WOa/Pe4NZq5gixivoxwkCHEF89vB5AoZIqSxvoUIcp4NRDbKQvyp2/EJdp8HIiOuSBIhP4FivLZLEjHXhMGGxQLxHsRQwTft1IO8ek39KkrWaGEJOnrLBmjQ1lZuEdYHHmyYJBmECpakQIMwnG/TtF9jjJuVlYsOVYhyS+mybcZMm2U3+QeJ0Ai+b0DEZxjogh/Lha8WeHpTDB13MwUA52Bc1gaBJg3fsYQj1FCrBSOMR9pCBoFli8CNxQl46ZmgcxFDQg4T0diIjNPphuBdoFoi+SBPJA3WiPbBR0KGfHlmSspskrydXu6gLvLfhyItMiawYKASLhXVwsMDrQnz/dwz6jrZuu7UZ+N/WM9cl4PpJ3ktkKkeZcCvWIZmS0S+TrQV5h7YRCiP+cRZS0qaxIgCfSCPLk3ecS23Cjfia1DIgpgNrhoRYAKs06OsiBMRCww2whF57gxBM6DKHBW6Bgnxovnojkcj/lkkw3mdN4CID/i0NnovFHJYlnR1YihCKSP8WMaPiPy32kbRhs6Q7ZtAGUgBysPRZ1hq4gyUS9GTpQpT06UGWXMyrpd5Nst1p17AIHG8xEcIx+uYrRGtgPK415QX9qU+aytEj7Iy1mEIlLcDLj/RW3OOcrNX8PVYRCa5NYwUGBZb0bmzYDyITP6YyTiLDZbzro0y83m5mAy5jOkgSASJtXipGtEbJzsZ77Bio6z8TeDKBMmIC92YbPSpBuAi5IdBUlLoINEYsiXG+NAJFnE8zFkwTH5IUd292UEsnDDCJEE83lsBTE9RML9wgTPllmUd0yTDVcL9AvIBBTli3xYo+tN7m0FsQzypU3z8yTx+qQ+xfl8G0z6fqWgjFh+/M69p9/m3ReIhB3ARZYsAzpeQnThrgaQg3vBPSHvImQH0klYl0hgehiQpSIKy2ZEA2ONsMsSayDL2NlCs98n3ZRsvnyPir1ZoLQ8z8FMd/4GUCY3gDrAunlwnfImyZY/zzEh1osQz4EoN8dFysJ1/Nx4LZtPTBs/t4qsDJPyyMq6HeTz5zhb/qSRmDi4dnlyvlLEcq+0Xtl0+e+gqA6bxXppuYZ+5fsI5cb+mA0xPoNFJOo8iBPDZsF9iHJkXeKYB2WDjfJc926SCRONLH8xVxIrFIHSsleA7cpx0jVfYGyI9RDjFIWNAKPj0rDuzipSUYXx/VjRiBOxW0GUYbPyRHBTsjcmAgXD7YkTkXlsdMMmgc43qYNFbEX+9bCejJTB9aLBIJ6H+K+0nkWgzGgJXUm+yJRFtp3y17YK8ioizdhOyJ0FSo11hWJn5QD0dfrNRkSyVVBH8kafJ6XPy5LHhsMCcwtMbDJfkgcCsDLBcwP55wqKCt5sJWn4bPrYQEXpqTzPnbCLMm8mAkY/ZvVZM8cS2CooM46uBOpcJEcWdIaiZXNAWiYiIT3yzbZXNmwV5AtBxTmiojyuJN8iRBljmxDiMXWnzYtIFDBvxMOHRab7lYByaUfqjWWcd7O3AuTPI865XEnbxfyKyIhz+X4OsJ6ZA6H/xLYlEI82YyK7yH0HxNmqnLQdbcYDfUUDMXISNsp7Q4uEVQ5Gc2bFi3wztvryJC+PR/M9ChIbIGKrFdwI5E0DMDfCU8S4WfkbRmdmXoR9BqyQFCk24Hy+AfPgemzMGDd7nD1HfvjqcdkvC+JBJCzvxfYqClsFdaeT5d9X8XQi1p8Qj6kvvjajar69qRd1Z6MeI2s8NwmbbQ8ULL4+omgwWQ/ITP6xDkVl5o83i5gnyKePeebPQ8RMwhOy6QF1o9+wPDwpfR7ZePkA6Dd4E+gPRFKEvF4VYUOLhMqwcoMysjmrCIwwPMnLU4/RxcnemIh8w0xCTJOtcB40Ku4Mr51jniY7umfBvAgb2HDN1sOkcrix5DnpehaxbBSIiT+W6uI+kSzo+GyfJ3CT1su76Brn8uchJeaIyJO2WA+bqcuVAiJh4o5JeszzbFm0DysSTNBH4o9ttlWZsm1A3ckTkuJcvg+sh5jPZpTlSjGp/8Sys2Dwg4gJ+XogI2TJ4wfUGWy2rrGcbHl8p69yL9ClSXvCNoMNiQSgDOzvYK4kuxRMJRCEjsv7EniLE494o+RciwGBN1KYLPKVLQIuFe+4wBphljsbL8rF/A4/KcFyI4RQhChjBPnEEEFe2Tj5NEXHuILs6yiy4rAYmFviTVn5nY1ZFMmSRTxPHpApE87ZbdXZ9NmQR9G5zSKfJ3WHRJmkj3t2stepO+/EoJ+g+CDmkY23GVAWaZgjoy2pe8wjez9A/jgLrq13fTvIylMkU/4cRIxrw+Cdn4gFWHJ4APQf8s7mUdR+8Vr+ExAfK5ZXC7CBMA5A2Tggf1yETREJSsgIww44Vj+y/m8UPs5V8JIgBMsufSLIZoSJiHGzDcN3zkNSdMR3vvOd/qYpNsXF0SSbjpvA7kmeR2Ce50oR88x+xu9ZUGYMXKczQLwoVT4+cbDisODoEHFkzuYd84qIx9lzgGMeV2Ceindh5K8XIR8nL992gX8fN9xl847yI++v//qvuwUVB5giGWJ7TLpGx8fU5ylZnqSNc3RbBWmy9+BqItYt3+Yg9tss0C0sf7blF1mz9H8WN+IAmkWR7LHcSeVjAPDOGDbBZe9D9pOBlGtFeURsikgAPhvPhvBwWHb1IxaIUEykcVP/03/6T96x47LwegJsBrGCkBOTqj/7sz/rr5+Lj+dzLcrBMRWH8N7ylrf4ROska+TpAjLQCdgtyCQv8yXIFMF1Oj3mJC+B5mZyLouNjiNoY14cxBxVHOH/LIGcKAPtT9vH+5IFdUfxefkPZnpU4s0iKiA+PXmgVNkd1leCq9FPixDrFWWOiMqZ7RcRWNLs2ma1Md8uHHOf0TN0IBLAJNlj+mw+fGd+ESuW3+qB0CMJx5BFzDt/PotNEwkVZoThaUHmHFDOvPA0FpWE4XgOhrc7YXZeyQw9ecdK8Z1RjA7DMzU/93M/t/bWqDyIzwQrJMKbrK7GDsqtIrYLm+Cw4vLLzrFOmJXveMc73LqK8yURse6EeJwF6elEtAkuJaRK+ny8ZxpRZkxztsJjDRbJhOJDAsytsWKw0bxOFvRFSAQChYiZH0ERtgMs2CKlvhrgXkXiyCI/ER/BRDULHJBJ1vqP4D6zyMAb+bNvn8vnPwm0FZYw84voaNYdzoN84zzheli35RCMEDs4mWGy8ottPG1Z5MMB2I4RB8uEh+xQFOY0EBjTjDzXE4zrxMMCQdlwmXhIj4fzUBxmraNMUUYCYG4CdwYSic8OUNZGDbEdZGWIZfGdDhGfSs530hifTgAR/ORP/qS/BAkiZs4jSyqAPFE22gXLj47AO1ZpF+YbIGvy+1wBBM4zUPxKW/75pgjuY/YnFibVHVB36kh7UXd+2uE//If/4CRCm2wXKFdRuVcDRflyr5B70jUGIX4mk4nror6LvAzSvGuYgRX9Ql/Qvdi3sv2Bclg2ZkDm1/kYkCHy7LwSmJR2I6z7A1kgmyGAIVFWOgqzvUU/V0HFKRwfjpGSOQ38d+IyEtGAxCEvAp2E+OQT9xlg7jOB9u53v9t+4Rd+wU33+DMLEbGB4ycrM5DId3zHd7hZnd8uXQQ6Ztxen39OhxEDZeDBwKJZ9Cy4FkME5IGLQ33x5bEg4vVsm1FnrhNwVWIdo0tGp0GJaG/akZ+1YCShbehAWYtvkoxM+lIP3umZf+SBNsDNYrI2276ANmRkZC/RJEKIdcnWje/RGmFQKVpa5J5Td5asscjoH5EQGaRIyzEKwDXqzgvJeQcucywoEoqTRbZegGPuQXwNRdxLFOORnjakr7Eigkxci4E5LlYs44untgLqgYxMjtKnswoZ82YxAMstD/oeOka70T70zSgz4Dv50S7IT9+CiNElrkULiL7Hagx6iCuDS4QVyDwm8YmbDRHxO32QujOlwcAIsvEiNiSSLGIGrNywtEnDMtlJZfONBKgINwrlYOSACOgwEAt7CXBPOEdglKHD8Tu4kAYB6wOlgVTocHlQTiwLd4Y3nUMidHo6TFGF87gaRBLlKLpOHnQYFJR6xF2dhGwartM2xMHUp3PQPrQT7UInYCT5zd/8TXcd6Zx0BPLJokgG8HQSCcjWJdaNtNwX8ocEJq1Q0SZ0dJQOhaPubHCk7syJcW/4YTH6A4GXF9OnityhfP053gyRUE5+SRpw77Aqt0sk5J29Vyg6eTPvWEQkyACRMDeJVU77FNUXedE/9It6ENAvykWnuK/UjT7DD2DhCnEvaPNYz2x9s98BRMJ8Fy9SWo9IqNy6kKATXygrNhy9/e1vH8mN8JfjqoDLAkXE7xLKf4dVAvlv1h45cmR06623jmQ9+Ccvoz148KDnRRyNSmsv4c3mmQ2yaPxFut/1Xd81kqKNxL6XvTw4e5wF52QFjP7ZP/tnXi6yZgOy8lJm3cTC9JsB6TQq+O8Af9u3fdsl7US9aBNCrCOfIh9/MbY6mrcR9bvmmms8LTJR55jHeiFbl0OHDvnLhNWhvT0ikI/68fJnysumIagjj/7u3/27/sLuPEhLXvn25XsMXFPHHX3rt36r/1Zv0b3kHIF6UT8Rncurwcpfuh37hAYwb6t8+kkB+fkkLb/hq1F7Tb4Imfb+8udXv/rVnnesd8xDBDJ6xzve4S+m3iqo+7ve9S7/feIod8yfcPPNN4/k2l3SXvkghR/J+vQ8RGSXyZcNlEEbifC9zeQWeb/hk7aP+pRNk82rKF/64lvf+lZ/GXWUqQgbzi4pM2dPPvOBJU7e+fh3/s7fcdNHN8zPZ5E9lhA+KjHq4fYw+sRRFwZlJMZv5hpxMMsk4yVMDpCHc3yyX4EXGvESZCaBGX2yZUZZrwSky5Yfv8fjzYA8dIN9KVpk56Yso0zMQ51t7XuUM5qjjDRxx2Z89wvtR5o8Yj1pE6ygeC6C75STPZfFVuqURSwXkEc+H66xj4e685MWuCxRjnzc2D/w2xmF6Q+Y9ZjvWF+4OcQpAvlhMdDWRXmDonOA+LjYtF0RuH41EMuP+UVZ8wHEuNQJa4AXNfM2s0nzkoA0WFhYgOgRfSYGzkV9yoLyOJeVJQvahLYpupbFtqepUVxeSPS2t73NlZm9E5t1K0C+YqDoHIjnqRzzIbxu7vu///u9kZnQpDGuNibJshXQFnQAflOHt36zosS+HOTNd96ttEe2jckfE5TX5mHG435m0/F9o7pMUqTNYlIZdERk+p7v+R5/Ry0rOtstC1B/yiMv2pN31/KCLIg6C+Kt1x9jPpPaZ720m0U+D47z8zuTQH2o2w/+4A+6m8Xxen091mczchOHuSwGOKYGuDdZcD3mtx62fzcFiIMRlzd682tm/Jobip3dBVuEKGQM64HrdBh8bnxdfqUM8uJnCdirwSg8Kb/8cRaxgSZdBxs14mYB6TJP8Tf/5t/0uRzeV4vfyShLGfFzs4hxGbVQ1O/8zu/0FTXaI44wEcQlTKrnemXHtHnEds2HIiAj94268/ZzFD763Hmsl08e9D3mbxjE6H/0uyhrzCPmV0ReWHcodD5NPJ5U981iUlrKYRIdK6EIUY4IFjh4zy0DEX2eRz82IpOIfF5ZQCIQSHwjPfM2xI9yIyPzKWC9drgqRELBVIodeYy23/d93+c/D0nFWQ/HBcqaR+tVLCLeQG4+HY4Rh86HokAguFM0QJE7tVXQUChSlI0y+aSTcS26H/E64UoB4THhianPCM1vn2CpMJFZ1NGLEG8ok3FMAvLiZ5SIDsZeHzonHQBEeakfbgPn8/ITH7eBwDXkiAFEkonlTkIsqygA6o6iQyb0D+TmmM5blHdRHoDv9AlMfUZq+sN3f/d3e1/DhM8+M0K+uMkE6hPLydaHNoFMisiUdLRLkTu5GZAvk/gxfWzTKEu8T1nk6x0DfYQpBEgTyy4+/8YABfKy5xGvo4sQE94D+8JoO9xOrHzaLupClI82AJybhC2t2kxCrCigsyAQHRorhY7OhizOUWGuU5Hoz2KS8z0b6CQ0GpVlRhvXiQ4DibC8iyLCpPGmrFfBPGJjxjT443E1iZvNigajHAETkjowksalTJDPYzPIpiFQDvM7KBIkGd1B6kSb0DaRfON32g/ygDwxQdnsxhwVv7mDpUMbswzIKgfzT7EOpOMa77qNqzYRyMX8A3NUzPhTDmVwD7gXrFaxcoXFwz3ZSp2LQHrkos4QKG2APMgR60ngmE/O0WdoE9IhA8qDiY8SYJmyp4k8UFj24rBCQlzqEOuC0nAf+Z4FJMo8DCsdkFBMQ6DdaGcGMLasb2Rh54FCMgfI6gkKSt4EZCMwwPIS9KJVmyLEvgDxIg+6hXzIRb+hnfiM7Uag3agHcWg7+gHlsUeF37X5hm/4BneJiccKD6uGtEmUk0/66EarNhN/RPxqgIZEUZk8ZaKQCSAmDvmMk6oxXgxUmoaikelsBNwZFILPSB6ITYiV2kwHz6aJ8ZEvLpFhfXATkANwI+jsKCDlg6I8NoNsuiw4pgMzuUiA1JhkZIKRNkM5Ysegc0PKKBIKyCcBZQfITfuyPMoSH0RAezEqomiQIu4U36McyMTSOvVnmZlORBrOk448UEKIio54pSC/iGzZKBiTgSz3otCE2Edin6D+lE2fYKMWrhsDFW0RBxQC7cjGNpSBvAmkR0m4j5BPJIMoD/Vl/w7Pr9DuKCOB9uYaigcBobic3woYzalXzJu2JN84acx9w51AUTeLbDuSBxPycXmYJWAGEO4ngwP3j7YjDW3F1nvqQZ/BmqNu9CnuB7KyVZ79NLQ9pBHbgPiQNro5CVeNSMiGgFDZjpIFIz4dB+UlRDOKQBo+ETaOPCgvnSCSB3EmiRvLXA/ZtDE+ZSIHjR/l55PzlIsMNCrn82VspswsimSPeXCN9kEO9kjQPpAIN5JrKAAdORIqnZC2ycpAPDoEBI0bg/x0Br6TljalbfNyU1fKoh2QgXRRHuKSjg5HXlvFenWOiGUhA+SJckAKyMU15KH+1BkrlU8UJNt28TP2K76TnjjIjfzcx9iXsqB9KC+SKCAd6Wm3orbeDJABZeaexvtBIF8CcpF3VNAryT9+ct+xRgmxvNh+yE7dIQ7aL7YD5cUyiYustAN5xWucJz1pi9ou4qoSSUQULp7jMys0xzGAeD4ie5xPGxHTx/P560XIpinKL/sJsnlnz0dspsw8uDFgvZtCWTFelBfwuV66LPLy5mXNX8+WAybVLZtuUpw8NpIli9j582my9Y7fY7yN6sZ1Qv58Fvl8snE32+aTQF4x/7wc2TI3i2z6LGI5WcRjyqEek8qflCfgWow3Sd6rTiTxc6ObnUW+Mtnj/DnA93y+2evrIZtfNn1EvB6RPc7H3WyZWaAopMumjXLkZYvfrxTr5ZGtVxYblZdNt1nZ8mWtl249ufL14ZiwkRzZ+Flk88vnkY27Uf7rIcpXJGfRuc0gDjKT0sbz5B/LyMYtOs8xyB9nkc0jj6s+R0IlCZhtFJzNnu9FwkwScCuirVfJPGK+UZ5JaeMNi8jH20qZEdk2yMsRj7daTkyXR7asbP5bRcxjknxPFygv1iFb5lbrkU8b84z5bKU+m40b845lgUlybKX8mA5MSsf5GKeojJhHPJeNH8/FAS8i+70IV4VIsllkBYqFZ69vJFAeReKRB+cJMb/t5DspbVHZWWy1zCJsVAbYqJyiPOI50l4NOQF5Xq28NoNsvbLlbqbNni5stv5RxmybTarDVvKclB/IWirxWracPIgTr2e/FyFfVh7bc/4KECtRVPBGwhQhm18M8fx2sNn02TKfDmyU92bKLorzdMr85xFFSkIbbaWdriRu/jNiK3kVoSg95yadB+sRxXZx1V2bIsQittt4eWRFv9p5fz6A9inbZbIC/Xlrm+3096I2uJr1f0aIpESJEp/fuOquTYkSJZ59KImkRIkS20ZJJCVKlNg2SiIpUaLENmH2/wMfHjw1wckxOwAAAABJRU5ErkJggg==;" vertex="1" parent="sy004vF7E9jO8Do3R6p2-10">
          <mxGeometry x="5.78" y="24.83" width="112.44" height="97.26" as="geometry" />
        </mxCell>
        <mxCell id="sy004vF7E9jO8Do3R6p2-13" value="" style="endArrow=classic;html=1;rounded=0;entryX=1;entryY=0;entryDx=0;entryDy=35;entryPerimeter=0;dashed=1;dashPattern=8 8;" edge="1" parent="1" target="sy004vF7E9jO8Do3R6p2-1">
          <mxGeometry width="50" height="50" relative="1" as="geometry">
            <mxPoint x="630" y="215" as="sourcePoint" />
            <mxPoint x="440" y="360" as="targetPoint" />
          </mxGeometry>
        </mxCell>
        <mxCell id="sy004vF7E9jO8Do3R6p2-14" value="" style="endArrow=classic;html=1;rounded=0;exitX=0.987;exitY=0.556;exitDx=0;exitDy=0;exitPerimeter=0;" edge="1" parent="1" source="sy004vF7E9jO8Do3R6p2-1">
          <mxGeometry width="50" height="50" relative="1" as="geometry">
            <mxPoint x="390" y="410" as="sourcePoint" />
            <mxPoint x="630" y="241" as="targetPoint" />
          </mxGeometry>
        </mxCell>
        <mxCell id="sy004vF7E9jO8Do3R6p2-18" value="Datos BD (V,I,P,Q,FP,S,THD)" style="text;html=1;align=center;verticalAlign=middle;whiteSpace=wrap;rounded=0;" vertex="1" parent="1">
          <mxGeometry x="350" y="240" width="200" height="30" as="geometry" />
        </mxCell>
        <mxCell id="sy004vF7E9jO8Do3R6p2-19" value="Query/Peticiones" style="text;html=1;align=center;verticalAlign=middle;whiteSpace=wrap;rounded=0;" vertex="1" parent="1">
          <mxGeometry x="414" y="180" width="60" height="30" as="geometry" />
        </mxCell>
        <mxCell id="sy004vF7E9jO8Do3R6p2-22" value="" style="endArrow=classic;html=1;rounded=0;" edge="1" parent="1">
          <mxGeometry width="50" height="50" relative="1" as="geometry">
            <mxPoint x="500" y="440" as="sourcePoint" />
            <mxPoint x="700" y="290" as="targetPoint" />
            <Array as="points">
              <mxPoint x="700" y="440" />
            </Array>
          </mxGeometry>
        </mxCell>
        <mxCell id="sy004vF7E9jO8Do3R6p2-24" value="Modulo Predictor" style="shape=module;align=left;spacingLeft=20;align=center;verticalAlign=top;whiteSpace=wrap;html=1;" vertex="1" parent="1">
          <mxGeometry x="364" y="390" width="136" height="90" as="geometry" />
        </mxCell>
        <mxCell id="sy004vF7E9jO8Do3R6p2-25" value="" style="shape=note;whiteSpace=wrap;html=1;backgroundOutline=1;darkOpacity=0.05;" vertex="1" parent="1">
          <mxGeometry x="404" y="550" width="80" height="100" as="geometry" />
        </mxCell>
        <mxCell id="sy004vF7E9jO8Do3R6p2-26" value="" style="endArrow=classic;html=1;rounded=0;exitX=0.361;exitY=1.005;exitDx=0;exitDy=0;entryX=0.105;entryY=-0.033;entryDx=0;entryDy=0;entryPerimeter=0;exitPerimeter=0;" edge="1" parent="1" source="sy004vF7E9jO8Do3R6p2-24" target="sy004vF7E9jO8Do3R6p2-25">
          <mxGeometry width="50" height="50" relative="1" as="geometry">
            <mxPoint x="390" y="410" as="sourcePoint" />
            <mxPoint x="429" y="550" as="targetPoint" />
          </mxGeometry>
        </mxCell>
        <mxCell id="sy004vF7E9jO8Do3R6p2-27" value="" style="endArrow=classic;html=1;rounded=0;exitX=1;exitY=1;exitDx=0;exitDy=-15;exitPerimeter=0;entryX=0.25;entryY=0;entryDx=0;entryDy=0;" edge="1" parent="1" source="sy004vF7E9jO8Do3R6p2-1" target="sy004vF7E9jO8Do3R6p2-24">
          <mxGeometry width="50" height="50" relative="1" as="geometry">
            <mxPoint x="390" y="410" as="sourcePoint" />
            <mxPoint x="440" y="360" as="targetPoint" />
            <Array as="points">
              <mxPoint x="398" y="275" />
            </Array>
          </mxGeometry>
        </mxCell>
        <mxCell id="sy004vF7E9jO8Do3R6p2-28" style="edgeStyle=orthogonalEdgeStyle;rounded=0;orthogonalLoop=1;jettySize=auto;html=1;exitX=0.5;exitY=0;exitDx=0;exitDy=0;exitPerimeter=0;entryX=0.594;entryY=1.044;entryDx=0;entryDy=0;entryPerimeter=0;" edge="1" parent="1" source="sy004vF7E9jO8Do3R6p2-25" target="sy004vF7E9jO8Do3R6p2-24">
          <mxGeometry relative="1" as="geometry" />
        </mxCell>
        <mxCell id="sy004vF7E9jO8Do3R6p2-29" value="Cambios en Modelo" style="text;html=1;align=center;verticalAlign=middle;whiteSpace=wrap;rounded=0;" vertex="1" parent="1">
          <mxGeometry x="354" y="500" width="50" height="30" as="geometry" />
        </mxCell>
        <mxCell id="sy004vF7E9jO8Do3R6p2-30" value="Lectura de Modelo" style="text;html=1;align=center;verticalAlign=middle;whiteSpace=wrap;rounded=0;" vertex="1" parent="1">
          <mxGeometry x="450" y="500" width="50" height="30" as="geometry" />
        </mxCell>
        <mxCell id="sy004vF7E9jO8Do3R6p2-31" value="" style="endArrow=classic;html=1;rounded=0;entryX=0.853;entryY=0;entryDx=0;entryDy=0;entryPerimeter=0;dashed=1;dashPattern=8 8;" edge="1" parent="1" target="sy004vF7E9jO8Do3R6p2-24">
          <mxGeometry width="50" height="50" relative="1" as="geometry">
            <mxPoint x="630" y="270" as="sourcePoint" />
            <mxPoint x="280" y="270" as="targetPoint" />
            <Array as="points">
              <mxPoint x="480" y="270" />
            </Array>
          </mxGeometry>
        </mxCell>
        <mxCell id="sy004vF7E9jO8Do3R6p2-32" value="PeticiÃ³n de usuario/&lt;div&gt;ReFit&lt;/div&gt;" style="text;html=1;align=center;verticalAlign=middle;whiteSpace=wrap;rounded=0;" vertex="1" parent="1">
          <mxGeometry x="484" y="280" width="66" height="50" as="geometry" />
        </mxCell>
        <mxCell id="sy004vF7E9jO8Do3R6p2-33" value="PredicciÃ³n" style="text;html=1;align=center;verticalAlign=middle;whiteSpace=wrap;rounded=0;" vertex="1" parent="1">
          <mxGeometry x="540" y="410" width="60" height="30" as="geometry" />
        </mxCell>
        <mxCell id="sy004vF7E9jO8Do3R6p2-34" value="Datos en Tiempo Real" style="text;html=1;align=center;verticalAlign=middle;whiteSpace=wrap;rounded=0;" vertex="1" parent="1">
          <mxGeometry x="300" y="277.96" width="86" height="30" as="geometry" />
        </mxCell>
        <mxCell id="sy004vF7E9jO8Do3R6p2-35" value="" style="endArrow=classic;html=1;rounded=0;exitX=0.855;exitY=1;exitDx=0;exitDy=-4.35;exitPerimeter=0;entryX=0.062;entryY=0.622;entryDx=0;entryDy=0;entryPerimeter=0;" edge="1" parent="1" source="sy004vF7E9jO8Do3R6p2-1" target="sy004vF7E9jO8Do3R6p2-24">
          <mxGeometry width="50" height="50" relative="1" as="geometry">
            <mxPoint x="390" y="410" as="sourcePoint" />
            <mxPoint x="440" y="360" as="targetPoint" />
            <Array as="points">
              <mxPoint x="264" y="446" />
            </Array>
          </mxGeometry>
        </mxCell>
        <mxCell id="sy004vF7E9jO8Do3R6p2-36" value="Lectura Batch&amp;nbsp;&lt;div&gt;Para ajuste&lt;/div&gt;" style="text;html=1;align=center;verticalAlign=middle;whiteSpace=wrap;rounded=0;" vertex="1" parent="1">
          <mxGeometry x="260" y="370" width="60" height="30" as="geometry" />
        </mxCell>
        <mxCell id="sy004vF7E9jO8Do3R6p2-37" value="" style="endArrow=classic;html=1;rounded=0;exitX=0;exitY=0.75;exitDx=10;exitDy=0;exitPerimeter=0;entryX=0.366;entryY=0.989;entryDx=0;entryDy=0;entryPerimeter=0;dashed=1;dashPattern=8 8;" edge="1" parent="1" source="sy004vF7E9jO8Do3R6p2-24" target="sy004vF7E9jO8Do3R6p2-1">
          <mxGeometry width="50" height="50" relative="1" as="geometry">
            <mxPoint x="390" y="410" as="sourcePoint" />
            <mxPoint x="440" y="360" as="targetPoint" />
            <Array as="points">
              <mxPoint x="210" y="458" />
            </Array>
          </mxGeometry>
        </mxCell>
        <mxCell id="sy004vF7E9jO8Do3R6p2-38" value="PeticiÃ³n datos/Batch" style="text;html=1;align=center;verticalAlign=middle;whiteSpace=wrap;rounded=0;" vertex="1" parent="1">
          <mxGeometry x="210" y="460" width="60" height="30" as="geometry" />
        </mxCell>
        <mxCell id="sy004vF7E9jO8Do3R6p2-39" value="Modelo" style="text;html=1;align=center;verticalAlign=middle;whiteSpace=wrap;rounded=0;" vertex="1" parent="1">
          <mxGeometry x="414" y="585" width="60" height="30" as="geometry" />
        </mxCell>
      </root>
    </mxGraphModel>
  </diagram>
</mxfile>
